<svg xmlns="http://www.w3.org/2000/svg" xml:space="preserve" width="512" height="512" style="shape-rendering:geometricPrecision;text-rendering:geometricPrecision;image-rendering:optimizeQuality;fill-rule:evenodd;clip-rule:evenodd" viewBox="0 0 500.13 500.13"><path style="fill:none" d="M0 0h500.13v500.13H0z"/><path d="m353.45 360.24 2.89-7.54c8.19-21.37 31.57-38.88 53.25-39.88l39.96-2.31c1.82-.08 3.57-1.42 4.18-3.2.38-1.14.24-2.34-.4-3.27-.62-.89-1.61-1.44-2.75-1.49l-38.44-2.31c-9.53-.45-17.37-4.32-22.07-10.91-5.12-7.15-6.25-16.87-3.2-27.4l7.09-24.49c.26-.92.95-1.62 1.82-1.92l-.1-.05-10.34-4.54c.01.79-.12 1.57-.41 2.31l-10.38 27.12c-8.18 21.37-31.56 38.89-53.16 39.88l-182.03 2.31c-1.83.08-3.59 1.42-4.19 3.2-.38 1.14-.24 2.33.39 3.26.62.9 1.62 1.44 2.84 1.51l180.36 2.3c9.52.45 17.36 4.32 22.06 10.91 5.12 7.15 6.25 16.88 3.2 27.41l-2.55 8.84c-.54 1.84-2.22 3.1-4.12 3.15h18c-1.44-.07-2.42-1.52-1.9-2.89z" style="fill:#fefefe;fill-rule:nonzero"/><path d="m341.47 359.98 2.55-8.84c3.05-10.53 1.92-20.26-3.2-27.41-4.7-6.59-12.54-10.46-22.06-10.91l-180.36-2.3c-1.22-.07-2.22-.61-2.84-1.51-.63-.93-.77-2.12-.39-3.26.6-1.78 2.36-3.12 4.19-3.2l182.03-2.31c21.6-.99 44.98-18.51 53.16-39.88l10.38-27.12c.29-.74.42-1.52.41-2.31 0-.43-.03-.86-.13-1.28-11.79-53.02-59.1-92.66-115.67-92.66-52.13 0-96.39 33.64-112.27 80.41-10.24-7.69-23.35-11.78-37.44-10.37-25.01 2.48-45.11 22.62-47.59 47.63a53.85 53.85 0 0 0 1.37 18.64C32.76 274.49 0 307.96 0 349.1c0 3.73.28 7.38.81 10.96.25 1.74 1.72 3.04 3.47 3.04l332.97.04c.04 0 .07-.01.1-.01 1.9-.05 3.58-1.31 4.12-3.15z" style="fill:#f08519;fill-rule:nonzero"/><path d="M401.55 235.22c-1.67 0-3.33.05-4.99.13-.27.02-.53.08-.78.17-.87.3-1.56 1-1.82 1.92l-7.09 24.49c-3.05 10.53-1.92 20.25 3.2 27.4 4.7 6.59 12.54 10.46 22.07 10.91l38.44 2.31c1.14.05 2.13.6 2.75 1.49.64.93.78 2.13.4 3.27-.61 1.78-2.36 3.12-4.18 3.2l-39.96 2.31c-21.68 1-45.06 18.51-53.25 39.88l-2.89 7.54c-.52 1.37.46 2.82 1.9 2.89.04 0 .07.01.11.01h137.46c1.64 0 3.11-1.07 3.55-2.64 2.39-8.49 3.66-17.45 3.66-26.7 0-54.44-44.13-98.58-98.58-98.58z" style="fill:#f7b539;fill-rule:nonzero"/></svg>