<svg xmlns="http://www.w3.org/2000/svg" xml:space="preserve" width="512" height="512" style="shape-rendering:geometricPrecision;text-rendering:geometricPrecision;image-rendering:optimizeQuality;fill-rule:evenodd;clip-rule:evenodd" viewBox="0 0 275.48 275.48"><path style="fill:none" d="M0 0h275.48v275.48H0z"/><path d="M137.74 3.4C61.68 3.4 0 65.07 0 141.14c0 60.85 39.47 112.49 94.19 130.7 6.89 1.27 9.42-2.99 9.42-6.63 0-3.28-.13-14.13-.19-25.64-38.32 8.33-46.41-16.25-46.41-16.25-6.26-15.92-15.29-20.16-15.29-20.16-12.5-8.55.94-8.37.94-8.37 13.83.97 21.12 14.19 21.12 14.19 12.28 21.06 32.22 14.97 40.08 11.45 1.24-8.9 4.8-14.98 8.74-18.41-30.59-3.49-62.75-15.3-62.75-68.08 0-15.03 5.38-27.32 14.19-36.97-1.43-3.47-6.14-17.48 1.34-36.45 0 0 11.56-3.7 37.88 14.12 10.99-3.05 22.77-4.58 34.48-4.63 11.71.05 23.5 1.58 34.5 4.63 26.29-17.82 37.85-14.12 37.85-14.12 7.49 18.97 2.78 32.98 1.35 36.45 8.83 9.65 14.17 21.94 14.17 36.97 0 52.91-32.22 64.56-62.89 67.97 4.94 4.27 9.34 12.65 9.34 25.5 0 18.43-.16 33.26-.16 37.8 0 3.67 2.48 7.96 9.46 6.61 54.7-18.23 94.12-69.85 94.12-130.68 0-76.07-61.67-137.74-137.74-137.74zm-35.09 223.07c.19 1.11-.95 2.25-2.57 2.55-1.6.29-3.08-.39-3.28-1.49-.2-1.14.96-2.27 2.55-2.57 1.63-.28 3.09.38 3.3 1.51zm-10.49 1.79c.03 1.13-1.29 2.08-2.93 2.09-1.64.04-2.98-.88-2.99-1.99 0-1.15 1.29-2.09 2.94-2.11 1.63-.03 2.98.88 2.98 2.01zm-11.28-.83c-.33 1.08-1.88 1.57-3.44 1.11-1.56-.47-2.58-1.73-2.26-2.82.32-1.09 1.88-1.6 3.45-1.11 1.56.47 2.58 1.72 2.25 2.82zm-10.26-4.45c-.76.83-2.36.61-3.54-.53-1.2-1.11-1.54-2.68-.78-3.51.76-.84 2.38-.6 3.56.52 1.2 1.11 1.56 2.7.76 3.52zm-7.44-7.66c-.84.58-2.22.03-3.08-1.19-.84-1.23-.84-2.69.02-3.28.86-.59 2.22-.06 3.08 1.15.84 1.25.84 2.72-.02 3.32zm-5.43-7.94c-.66.61-1.94.33-2.81-.63-.91-.96-1.07-2.25-.41-2.86.68-.61 1.92-.33 2.83.63.9.97 1.07 2.25.39 2.86zm-5.58-6.22c-.3.69-1.38.89-2.36.42-1-.45-1.56-1.38-1.24-2.07.3-.7 1.38-.9 2.37-.43 1.01.45 1.58 1.4 1.23 2.08z" style="fill:#fefefe"/></svg>