<svg xmlns="http://www.w3.org/2000/svg" xml:space="preserve" width="512" height="512" style="shape-rendering:geometricPrecision;text-rendering:geometricPrecision;image-rendering:optimizeQuality;fill-rule:evenodd;clip-rule:evenodd" viewBox="0 0 207.72 207.72"><path style="fill:none" d="M0 0h207.72v207.72H0z"/><path d="m184.77 100.93-46.94-46.96c-.2-.19-.47-.3-.74-.3h-.06c-.3.02-.57.16-.76.39l-20.01 25.39c-.32.42-.29 1.01.08 1.38l21.56 21.56c.78.78 1.2 1.81 1.2 2.91 0 1.09-.43 2.1-1.19 2.86l-6.23 6.23c-.35.35-.41.9-.13 1.31 1.55 2.33 4.09 6.15 4.33 6.58.78 1.56 1.04 5.55-1.26 7.3l-49.05 37.67c-.25.19-.4.5-.4.82 0 4.18-.01 9.82-.01 15.51v22.58c0 .72.01 1.16.58 1.45.14.07.3.11.47.11.42 0 .6-.17 1.01-.59l.82-.82c.72-.71 1.77-1.76 3.11-3.1 2.67-2.67 6.5-6.49 11.08-11.08 9.18-9.16 21.4-21.39 33.63-33.61l48.91-48.89c2.37-2.4 2.37-6.31 0-8.7z" style="fill:#69f;fill-rule:nonzero"/><path d="m122.39.47-.02-.03-.03-.03-.03-.04a1.01 1.01 0 0 0-.75-.37h-.05c-.27 0-.54.11-.73.3L22.97 98.12a6.086 6.086 0 0 0-1.8 4.35c0 1.65.64 3.2 1.81 4.35l46.93 46.93c.2.2.46.31.74.31h.06c.29-.02.57-.16.75-.4l20.02-25.39c.33-.41.29-1-.08-1.37l-21.58-21.56a4.03 4.03 0 0 1-1.18-2.87c0-1.09.42-2.12 1.18-2.88l6.25-6.25c.35-.36.4-.92.11-1.33l-4.26-6.12c-1.72-2.45-1.19-5.91 1.19-7.73l49.06-37.65c.26-.19.41-.5.41-.82l.02-38.6c0-.22-.08-.44-.21-.62z" style="fill:#cff;fill-rule:nonzero"/><path d="M131.02 121.64 76.7 86.36l23.99 34.5c.52.79.47 2.14-.1 2.9l-42.98 54.55c-.77.99-1.4 2.06-.86 3.16.29.58.99 1.04 1.67 1.1.85-.01 1.5-.38 2.39-1.06l69.08-53.03c2.11-1.61 2.05-5.52 1.13-6.84z" style="fill:#f2c913;fill-rule:nonzero"/><path d="M150.97 26.26a2.052 2.052 0 0 0-1.8-1.11c-.67 0-1.3.29-2.26 1.02L77.8 79.24c-2.19 1.68-2.68 4.87-1.1 7.12l54.32 35.28c-.78-1.15-23.77-34.46-24-34.8-.52-.74-.47-2.17.09-2.89l42.98-54.57.03-.04c.7-.89 1.4-1.94.85-3.08z" style="fill:#f4d646;fill-rule:nonzero"/></svg>