<svg xmlns="http://www.w3.org/2000/svg" xml:space="preserve" width="512" height="512" style="shape-rendering:geometricPrecision;text-rendering:geometricPrecision;image-rendering:optimizeQuality;fill-rule:evenodd;clip-rule:evenodd" viewBox="0 0 1226.56 1226.56"><path style="fill:none" d="M0 0h1226.56v1226.56H0z"/><path d="M1166.85 450.32c-47.24-62.1-115.83-102.06-193.09-112.54-60.75-8.24-121.45 2.51-175.59 31.12-7.21 3.81-14.3 7.93-21.12 12.29l-24.33 18.3 62.8 82.55 19.14-14.55c3.87-2.41 7.89-4.72 11.97-6.9 34.88-18.41 73.99-25.34 113.14-20.05 49.86 6.77 94.07 32.55 124.54 72.59 30.48 40.03 43.51 89.54 36.74 139.38-13.96 102.91-109.11 175.24-211.96 161.29-39.11-5.31-74.99-22.43-103.69-49.49-3.44-3.25-6.67-6.55-9.67-9.8L559.09 443.49l-.09.98-24.94-32.76-2.69-3.27a299.728 299.728 0 0 0-17.79-18.19c-46.47-43.84-104.52-71.54-167.85-80.17C179.3 287.49 25.38 404.56 2.8 571.06c-22.61 166.46 94.45 320.31 260.95 342.89 63.35 8.61 126.66-2.62 183.19-32.48 2.29-1.2 4.51-2.51 6.76-3.75l-63.79-83.85c-35.05 16.49-73.57 22.56-112.2 17.32-109.82-14.93-187.02-116.37-172.13-226.18 14.92-109.82 116.27-187 226.19-172.12 41.75 5.66 80.02 23.93 110.69 52.86 3.58 3.37 7.08 6.91 10.43 10.54l186 244.49.08-.99 75.54 99.26 2.59 3.17c5.32 5.92 11.07 11.86 17.14 17.57 44.53 42 100.18 68.55 160.91 76.8 13.27 1.83 26.43 2.68 39.5 2.68 143.72-.03 269.31-106.52 289.2-252.81 10.5-77.3-9.76-154.06-57-216.14z" style="fill:#fff;fill-rule:nonzero"/><path d="M660.37 861.22c-.96-1-2.02-1.99-2.94-2.99L537.6 700.87c-5.21-5.84-10.89-11.65-16.87-17.29-44.53-42.01-100.18-68.56-160.91-76.82-5.79-.77-11.57-1.34-17.35-1.76h-8.9l44.22 57.87c.95.96 2.02 1.98 2.92 2.96l119.85 157.38c5.22 5.83 10.89 11.64 16.87 17.28 44.55 42 100.18 68.57 160.89 76.79 5.81.81 11.59 1.35 17.38 1.79h8.86l-44.19-57.85z" style="fill:#66ccca;fill-rule:nonzero"/></svg>