<svg xmlns="http://www.w3.org/2000/svg" xml:space="preserve" width="512" height="512" style="shape-rendering:geometricPrecision;text-rendering:geometricPrecision;image-rendering:optimizeQuality;fill-rule:evenodd;clip-rule:evenodd" viewBox="0 0 131.08 131.08"><path style="fill:none" d="M0 0h131.08v131.08H0z"/><path d="M65.54 0C29.34 0 0 29.34 0 65.54s29.34 65.54 65.54 65.54 65.54-29.34 65.54-65.54S101.74 0 65.54 0zm47.93 39.34c.23 1.74.36 3.6.36 5.61 0 5.54-1.03 11.77-4.15 19.56L93 112.74c16.24-9.46 27.16-27.05 27.16-47.2 0-9.5-2.43-18.43-6.69-26.2zM66.5 70.31l-16.39 47.62a54.559 54.559 0 0 0 33.57-.87 5.94 5.94 0 0 1-.4-.75l-16.78-46zm35.91-7.53c0-6.75-2.43-11.42-4.5-15.06-2.77-4.5-5.37-8.31-5.37-12.81 0-5.02 3.81-9.69 9.17-9.69.25 0 .48.03.71.04-9.72-8.9-22.66-14.34-36.88-14.34-19.08 0-35.87 9.79-45.63 24.62 1.28.04 2.49.07 3.51.07 5.71 0 14.56-.7 14.56-.7 2.94-.17 3.29 4.15.35 4.5 0 0-2.96.35-6.25.52l19.88 59.16 11.96-35.85-8.51-23.31c-2.94-.17-5.73-.52-5.73-.52-2.94-.17-2.6-4.67.35-4.5 0 0 9.01.7 14.38.7 5.71 0 14.56-.7 14.56-.7 2.94-.17 3.29 4.15.35 4.5 0 0-2.97.35-6.25.52L92.8 98.64l5.64-17.85c2.5-7.81 3.97-13.33 3.97-18.01zm-91.49 2.76c0 21.61 12.57 40.3 30.79 49.15L15.65 43.31a54.413 54.413 0 0 0-4.73 22.23zM65.54 3.93c8.32 0 16.39 1.63 23.98 4.84 3.65 1.55 7.17 3.46 10.46 5.68 3.26 2.21 6.33 4.74 9.12 7.53 2.79 2.79 5.32 5.85 7.53 9.12 2.22 3.29 4.13 6.81 5.68 10.46 3.21 7.59 4.84 15.66 4.84 23.98s-1.63 16.39-4.84 23.98a62.233 62.233 0 0 1-5.68 10.46 62.599 62.599 0 0 1-7.53 9.12 62.599 62.599 0 0 1-9.12 7.53 62.233 62.233 0 0 1-10.46 5.68c-7.59 3.21-15.66 4.84-23.98 4.84s-16.39-1.63-23.98-4.84a62.233 62.233 0 0 1-10.46-5.68 62.072 62.072 0 0 1-9.12-7.53 62.599 62.599 0 0 1-7.53-9.12 62.233 62.233 0 0 1-5.68-10.46c-3.21-7.59-4.84-15.66-4.84-23.98s1.63-16.39 4.84-23.98c1.55-3.65 3.46-7.17 5.68-10.46 2.21-3.27 4.74-6.33 7.53-9.12 2.79-2.79 5.85-5.32 9.12-7.53 3.29-2.22 6.81-4.13 10.46-5.68 7.59-3.21 15.66-4.84 23.98-4.84z" style="fill:#0075a6;fill-rule:nonzero"/></svg>