<?xml version="1.0" encoding="UTF-8"?>
<!DOCTYPE svg PUBLIC "-//W3C//DTD SVG 1.1//EN" "http://www.w3.org/Graphics/SVG/1.1/DTD/svg11.dtd">
<!-- Creator: CorelDRAW 2019 (64-Bit) -->
<svg xmlns="http://www.w3.org/2000/svg" xml:space="preserve" width="272px" height="54px" version="1.1" style="shape-rendering:geometricPrecision; text-rendering:geometricPrecision; image-rendering:optimizeQuality; fill-rule:evenodd; clip-rule:evenodd"
viewBox="0 0 272 53.58"
 xmlns:xlink="http://www.w3.org/1999/xlink">
 <defs>
  <style type="text/css">
   <![CDATA[
    .fil1 {fill:#FEFEFE;fill-rule:nonzero}
    .fil0 {fill:#F08519;fill-rule:nonzero}
   ]]>
  </style>
 </defs>
 <g id="Layer_x0020_1">
  <metadata id="CorelCorpID_0Corel-Layer"/>
  <g id="_1528947320352">
   <path class="fil0" d="M168.12 40.31l-5.7 0 -10.33 -19.03 -1.91 19.03 -6.34 0c1,-9.84 1.99,-19.67 2.97,-29.51l6.89 0 9.69 17.65 1.77 -17.65 6.33 0c-0.99,9.84 -1.97,19.67 -2.97,29.51l-0.4 0zm82.52 -8.36c0.04,-0.29 0.07,-0.58 0.11,-0.86l0.01 -0.06 0.01 -0.09c0.04,-0.26 0.07,-0.53 0.12,-0.79l0 -0.01 0 -0.01 0.04 -0.27 0.06 -0.36 0 0c2.1,-12.16 9.01,-19.27 15.28,-25.72 0.71,-0.74 1.44,-1.47 2.14,-2.22 0.47,-0.5 0.94,-1.02 1.38,-1.56l0.19 0.24c1.46,1.87 2.06,3.59 2.02,5.07 -0.03,0.79 -0.23,1.52 -0.58,2.16 -0.35,0.64 -0.85,1.21 -1.46,1.69 -0.79,0.61 -1.77,1.08 -2.87,1.38 0.98,-0.07 1.95,-0.21 2.93,-0.44l0.41 -0.09 -0.17 0.38c-0.78,1.8 -1.76,3.02 -2.9,3.75 -0.43,0.29 -0.9,0.5 -1.38,0.64 0.48,-0.02 0.95,-0.09 1.43,-0.2l0.49 -0.12 -0.26 0.43c-0.99,1.65 -2.21,2.63 -3.57,3.21l-0.17 0.07c0.36,-0.09 0.72,-0.2 1.07,-0.33l0.5 -0.18 -0.24 0.48c-1.19,2.33 -2.46,3.7 -3.8,4.48 -0.57,0.33 -1.15,0.55 -1.73,0.68 0.27,-0.01 0.54,-0.03 0.82,-0.06l0.49 -0.07 -0.3 0.4c-1.19,1.58 -2.44,2.91 -3.79,3.85 -1.3,0.91 -2.7,1.44 -4.22,1.45 -0.04,0.25 -0.07,0.5 -0.1,0.74l0 0.05 -0.03 0.04 -0.01 0.03 -0.02 0.02 -0.02 0.03 -0.01 0.03 -0.02 0.02 -0.02 0.03 -0.01 0.03 -0.01 0.01 -0.01 0.01 -0.01 0.02 -0.01 0.01 0 0.01 -0.01 0.02 -0.01 0 -0.01 0.02 0 0.01 -0.01 0.02 0 0 -0.02 0.02 0 0 -0.01 0.02 -0.01 0.01 -0.01 0.02 0 0 -0.01 0.02 -0.01 0.01 -0.01 0.01 0 0.01 -0.01 0.02 -0.01 0.01 -0.01 0.01 0 0.01 -0.01 0.01 -0.01 0.02 0 0 -0.02 0.02 0 0.01 -0.01 0.02 0 0 -0.02 0.02 0 0 -0.01 0.02 0 0.01 -0.01 0.02 -0.01 0 -0.01 0.02 0 0 -0.01 0.02 -0.01 0.01 0 0.01 -0.01 0.01 -0.01 0.01 -0.01 0.01 0 0.01 -0.01 0.02 -0.01 0.01 -0.01 0.01 0 0.01 -0.01 0.01 0 0.01 -0.01 0.02 -0.01 0 -0.01 0.02 0 0 -0.01 0.02 0 0 -0.02 0.02 0 0.01 -0.02 0.04 0 0 -0.02 0.02 0 0 -0.01 0.02 0 0 -0.01 0.02 -0.01 0.01 0 0.01 -0.01 0.01 -0.01 0.01 0 0.01 -0.01 0.01 -0.01 0.01 0 0.01 -0.01 0.01 -0.01 0.01 0 0.01 -0.03 0.05 0 0 -0.08 0.12 0 0 -0.12 0.19 -0.08 0.12 -0.01 0.01 -0.03 0.04 0 0.01 -0.08 0.12 0 0 -0.04 0.06 0 0 -0.02 0.03 0 0.01 -0.01 0.01 0 0 -0.01 0.01 -0.01 0.02 0 0 -0.01 0.01 0 0.01 -0.01 0.01 -0.01 0.01 0 0.01 -0.02 0.02 0 0.01 -0.01 0.01 -0.01 0.01 0 0.01 -0.01 0.01 0 0 -0.01 0.02 0 0 -0.01 0.01 0 0 -0.01 0.01 0 0 -0.01 0.02 0 0 -0.01 0.01 0 0 -0.01 0.01 0 0.01 -0.01 0.01 0 0 0 0.01 -0.01 0 0 0.01 -0.01 0 0 0.01 -0.01 0.01 0 0 0 0.01 -0.01 0.01 0 0 -0.01 0.01 0 0.01 0 0 -0.01 0.01 0 0 -0.01 0.01 0 0 -0.01 0.01 0 0 -0.01 0.01 0 0 0 0.02 0 0 -0.01 0.01 0 0 -0.01 0.01 0 0 -0.01 0.01 0 0 0 0.01 -0.01 0 0 0.01 0 0 -0.01 0.01 0 0 -0.01 0.01 0 0 0 0.01 -0.01 0 0 0.01 0 0 -0.01 0.01 0 0.01 0 0 -0.01 0 0 0.01 -0.01 0 -0.46 0.64 0 0 -0.01 0 0.02 -0.12 0.07 -0.66zm19.19 -31.22l-0.02 0.03 -0.02 0.03 -0.02 0.02 -0.01 0.03 -0.03 0.03 -0.01 0.03 -0.03 0.03 -0.01 0.02 -0.03 0.04 -0.01 0.01 -0.03 0.05 -0.01 0.01 -0.03 0.05 -0.01 0.01 -0.04 0.05 0 0 -0.04 0.06 0 0 -0.04 0.06 -0.01 0.01 -0.03 0.05 -0.01 0.01 -0.04 0.05 -0.01 0.01 -0.03 0.04 -0.02 0.03 -0.03 0.03 -0.01 0.03 -0.03 0.03 -0.02 0.04 -0.03 0.03 -0.02 0.03 -0.02 0.03 -0.04 0.04 -0.01 0.02 -0.04 0.05 -0.01 0.01 -0.04 0.05 -0.01 0.01 -0.04 0.06 -0.01 0.01 -0.05 0.06 0 0 -0.05 0.07 0 0 -0.05 0.06 -0.01 0.01 -0.04 0.06 -0.01 0.01 -0.04 0.05 -0.02 0.02 -0.04 0.05 -0.02 0.02 -0.03 0.05 -0.03 0.03 -0.03 0.03 -0.02 0.04 -0.03 0.03 -0.03 0.04 -0.03 0.03 -0.03 0.05 -0.02 0.02 -0.04 0.05 -0.02 0.02 -0.05 0.06 -0.01 0.01 -0.05 0.06 0 0.01 -0.06 0.07 0 0 -0.06 0.07 0 0.01 -0.06 0.06 -0.01 0.01 -0.05 0.07 -0.01 0.01 -0.05 0.06 -0.02 0.02 -0.04 0.05 -0.03 0.03 -0.03 0.05 -0.03 0.03 -0.04 0.04 -0.03 0.04 -0.03 0.04 -0.04 0.04 -0.02 0.03 -0.05 0.05 -0.02 0.03 -0.04 0.05 -0.02 0.02 -0.05 0.07 -0.01 0.01 -0.06 0.07 -0.01 0.01 -0.06 0.07 0 0 -0.07 0.08 0 0.01 -0.07 0.07 -0.01 0.01 -0.05 0.07 -0.02 0.02 -0.05 0.06 -0.02 0.02 -0.05 0.06 -0.02 0.03 -0.05 0.05 -0.03 0.04 -0.03 0.04 -0.04 0.04 -0.03 0.04 -0.05 0.05 -0.02 0.03 -0.05 0.06 -0.02 0.03 -0.06 0.06 -0.01 0.02 -0.06 0.07 -0.01 0.01 -0.07 0.08 -0.01 0 -0.07 0.09 0 0 -0.14 0.16 -0.09 0.11 -0.05 0.06 -0.14 0.17 -0.05 0.05 -0.1 0.12 -0.14 0.17 0 0 -0.15 0.18 -0.09 0.11 -0.06 0.06 -0.15 0.18 -0.04 0.05 -0.11 0.13 -0.14 0.17 -0.01 0.01 -0.24 0.29 -0.07 0.07 -0.15 0.19 -0.04 0.05 -0.11 0.13 -0.15 0.18 -0.01 0.01 -0.16 0.19 -0.09 0.11 -0.06 0.08 -0.16 0.19 -0.04 0.05 -0.12 0.15 -0.14 0.17 -0.02 0.02 -0.16 0.2 -0.09 0.11 -0.07 0.09 -0.16 0.2 -0.03 0.04 -0.13 0.16 -0.14 0.17 -0.02 0.03 -0.16 0.21 -0.09 0.1 -0.08 0.1 -0.16 0.21 -0.03 0.03 -0.13 0.17 -0.14 0.18 -0.02 0.03 -0.17 0.21 -0.07 0.11 -0.09 0.11 -0.16 0.21 -0.02 0.03 -0.14 0.18 -0.13 0.18 -0.03 0.04 -0.17 0.22 -0.07 0.1 -0.09 0.11 -0.16 0.22 -0.02 0.03 -0.14 0.19 -0.12 0.18 -0.04 0.05 -0.16 0.22 -0.07 0.1 -0.09 0.12 -0.16 0.23 -0.01 0.02 -0.15 0.2 -0.12 0.17 -0.04 0.06 -0.15 0.23 -0.07 0.09 -0.09 0.14 -0.16 0.23 -0.01 0.02 -0.14 0.21 -0.11 0.17 -0.04 0.07 -0.16 0.23 -0.11 0.18 -0.04 0.06 -0.15 0.23 -0.01 0.01 -0.14 0.23 -0.11 0.16 -0.04 0.08 -0.15 0.24 -0.05 0.08 -0.1 0.16 -0.14 0.24 0 0 -0.2 0.33 -0.08 0.14 -0.01 0.01 -0.14 0.25 -0.05 0.07 -0.09 0.17 -0.02 0.04 -0.19 0.33 -0.07 0.12 3.31 -0.12c1.47,-0.05 2.9,-0.22 4.19,-0.77 1.16,-0.49 2.22,-1.3 3.11,-2.62 -0.52,0.09 -1.03,0.12 -1.54,0.11 -0.68,-0.01 -1.35,-0.11 -2.03,-0.26l-3.98 -0.91 4.06 0.5c1.33,0.16 2.55,-0.06 3.61,-0.74 0.98,-0.64 1.85,-1.67 2.56,-3.18 -0.92,0.19 -1.76,0.3 -2.58,0.33 -1.19,0.05 -2.36,-0.05 -3.71,-0.24 0.73,-0.01 2.15,-0.11 3.6,-0.55 0.93,-0.28 1.89,-0.7 2.69,-1.32 0.57,-0.45 1.03,-0.97 1.35,-1.56 0.32,-0.59 0.51,-1.25 0.53,-1.97 0.04,-1.33 -0.49,-2.87 -1.75,-4.57zm-13.43 17.9l0 0 -0.08 0.13 0 0.01 -0.01 0.01 -0.17 0.33 -0.06 0.1 -0.08 0.15 -0.07 0.15 -0.01 0.01 -0.07 0.13 -0.08 0.15 -0.07 0.15 -0.01 0 -0.07 0.15 -0.07 0.15 -0.08 0.14 -0.01 0.03 -0.06 0.12 -0.07 0.15 -0.07 0.15 0 0 -0.02 0.04 -0.13 0.28 -0.06 0.13 -0.07 0.16 -0.07 0.15 -0.02 0.03 -0.05 0.12 -0.07 0.15 -0.06 0.15 -0.06 0.14 -0.01 0.01 -0.06 0.16 -0.07 0.15 -0.01 0.03 -0.05 0.12 -0.06 0.15 -0.03 0.08 -0.07 0.18 -0.02 0.05 -0.06 0.15 -0.01 0.04 -0.08 0.18 -0.09 0.27 -0.05 0.13 -0.06 0.16 -0.05 0.15 0 0 -0.05 0.15 -0.01 0.01 -0.05 0.15 -0.02 0.07 -0.08 0.23 0 0.01 -0.05 0.16 -0.02 0.05 -0.07 0.23 -0.01 0.03 -0.04 0.16 -0.01 0 -0.09 0.31 -0.04 0.16 0 0 -0.07 0.25 -0.02 0.06 -0.04 0.16 -0.05 0.21 -0.06 0.23 -0.04 0.19 0 0 -0.04 0.16 -0.03 0.16 -0.02 0.1 -0.02 0.06 -0.03 0.16 -0.01 0.06 -0.04 0.19 -0.01 0.07 -0.03 0.15 -0.05 0.28 0 0.04c1.4,-0.02 2.69,-0.53 3.91,-1.38 1.2,-0.83 2.32,-2 3.4,-3.37 -0.41,0.03 -0.81,0.03 -1.21,0 -0.55,-0.04 -1.1,-0.13 -1.64,-0.26l-2.49 -0.61 2.56 0.2c1.34,0.1 2.66,-0.05 3.92,-0.78 1.18,-0.68 2.31,-1.87 3.39,-3.84 -0.67,0.21 -1.37,0.36 -2.09,0.45 -0.89,0.11 -1.83,0.13 -2.81,0.04l-3.31 -0.27zm-4.12 10.24l-0.01 0 0.04 -0.24 0.02 -0.13 0.01 -0.05 0.06 -0.38 0.02 -0.11c0.03,-0.12 0.05,-0.24 0.07,-0.35l0.01 -0.06c0.03,-0.13 0.06,-0.26 0.09,-0.4l0.01 -0.04 0.09 -0.4 0.01 -0.05c0.03,-0.13 0.07,-0.26 0.1,-0.39l0.02 -0.06 0.1 -0.37 0.02 -0.1 0.1 -0.33 0.03 -0.11 0.11 -0.35 0.02 -0.08c0.09,-0.28 0.18,-0.55 0.28,-0.83l0 -0.02 0.15 -0.4 0.02 -0.05 0.14 -0.37 0.02 -0.06 0.15 -0.39 0.02 -0.04 0.14 -0.35 0.04 -0.1c0.17,-0.41 0.35,-0.81 0.53,-1.21l0.03 -0.06c0.52,-1.13 1.11,-2.23 1.73,-3.31l0 0 0.23 -0.39 0 -0.01c0.32,-0.54 0.65,-1.07 0.98,-1.6l0 0c0.17,-0.26 0.33,-0.51 0.5,-0.77l0.03 -0.03c0.15,-0.24 0.31,-0.47 0.47,-0.71l0.1 -0.14 0.18 -0.27 0.02 -0.02 0.24 -0.35 0.03 -0.04c0.26,-0.36 0.51,-0.72 0.77,-1.07l0.02 -0.03 0.25 -0.34 0.01 0 0.15 -0.21 0.11 -0.15 0.05 -0.07 0.2 -0.26 0.02 -0.03 0.14 -0.19 0.13 -0.16 0.02 -0.03 0.22 -0.29 0.03 -0.03 0.13 -0.17 0.14 -0.18 0.02 -0.02 0.48 -0.62 0.04 -0.04 0.1 -0.13 0.16 -0.2 0.1 -0.12 0.17 -0.21 0.09 -0.12 0.17 -0.21 0.09 -0.1 0.18 -0.22 0.07 -0.1 0.19 -0.22 0.07 -0.08 0.19 -0.24 0.06 -0.07 0.2 -0.24 0.05 -0.06 0.2 -0.24 0.05 -0.06 0.21 -0.24 0.04 -0.05 0.21 -0.25 0.03 -0.04 0.46 -0.54 0.02 -0.03 0.22 -0.26 0.01 -0.01 0.23 -0.27 0 -0.01 0.23 -0.26 0 0 0.06 -0.08 0.07 -0.07 1.06 -1.26 -0.58 0.6c-6.21,6.39 -13.04,13.42 -15.14,25.39l0.78 -0.07c0.02,-0.17 0.04,-0.35 0.07,-0.52zm-0.29 0.97l-0.63 0.05c-0.07,0.41 -0.13,0.82 -0.19,1.24l0 0 0.82 -1.29zm-227.89 10.47l-7.19 0 -10.12 -12.6 -1.27 12.6 -5.52 0 2.86 -28.48 5.52 0 -1.28 12.71 12.92 -12.71 6.55 0 -14.26 13.99 11.79 14.49zm30.8 -20.61l-8.98 20.65 -4.45 0 -2.86 -12.29 -5.33 12.29 -4.45 0 -4.86 -20.65 5.41 0 2.58 12.89 5.18 -12.89 4.55 0 2.62 12.89 5.18 -12.89 5.41 0zm22.53 10.29c-0.03,0.33 -0.09,0.67 -0.16,1.03 -0.07,0.36 -0.15,0.72 -0.23,1.1l-16.45 0c0.13,0.6 0.34,1.16 0.63,1.69 0.29,0.54 0.67,1 1.13,1.39 0.45,0.39 0.99,0.7 1.59,0.93 0.61,0.22 1.29,0.34 2.05,0.34 0.93,0 1.87,-0.16 2.83,-0.48 0.95,-0.33 1.77,-0.76 2.44,-1.3l2.92 3.23c-1.54,1.07 -3.01,1.83 -4.41,2.27 -1.41,0.43 -2.88,0.65 -4.4,0.65 -1.54,0 -2.95,-0.28 -4.23,-0.85 -1.29,-0.57 -2.37,-1.34 -3.26,-2.31 -0.89,-0.98 -1.55,-2.12 -1.99,-3.44 -0.43,-1.32 -0.58,-2.72 -0.43,-4.22 0.15,-1.49 0.58,-2.9 1.28,-4.22 0.7,-1.31 1.6,-2.46 2.7,-3.43 1.09,-0.97 2.33,-1.75 3.72,-2.31 1.38,-0.57 2.84,-0.86 4.36,-0.86 1.44,0 2.8,0.27 4.08,0.8 1.28,0.54 2.38,1.28 3.3,2.23 0.93,0.95 1.62,2.08 2.08,3.4 0.46,1.31 0.61,2.77 0.45,4.36zm-5.18 -2c-0.27,-1.3 -0.88,-2.35 -1.83,-3.15 -0.95,-0.79 -2.08,-1.19 -3.39,-1.19 -1.28,0 -2.47,0.4 -3.57,1.19 -1.1,0.8 -1.92,1.85 -2.45,3.15l11.24 0zm29.63 2c-0.03,0.33 -0.08,0.67 -0.15,1.03 -0.07,0.36 -0.15,0.72 -0.24,1.1l-16.44 0c0.13,0.6 0.34,1.16 0.63,1.69 0.29,0.54 0.66,1 1.12,1.39 0.46,0.39 0.99,0.7 1.6,0.93 0.61,0.22 1.29,0.34 2.05,0.34 0.92,0 1.86,-0.16 2.82,-0.48 0.96,-0.33 1.77,-0.76 2.45,-1.3l2.91 3.23c-1.53,1.07 -3,1.83 -4.41,2.27 -1.41,0.43 -2.87,0.65 -4.39,0.65 -1.54,0 -2.96,-0.28 -4.24,-0.85 -1.28,-0.57 -2.37,-1.34 -3.26,-2.31 -0.88,-0.98 -1.55,-2.12 -1.98,-3.44 -0.44,-1.32 -0.58,-2.72 -0.43,-4.22 0.15,-1.49 0.57,-2.9 1.28,-4.22 0.7,-1.31 1.6,-2.46 2.69,-3.43 1.1,-0.97 2.34,-1.75 3.72,-2.31 1.39,-0.57 2.84,-0.86 4.36,-0.86 1.45,0 2.81,0.27 4.08,0.8 1.28,0.54 2.38,1.28 3.31,2.23 0.92,0.95 1.61,2.08 2.07,3.4 0.46,1.31 0.62,2.77 0.45,4.36zm-5.17 -2c-0.27,-1.3 -0.88,-2.35 -1.84,-3.15 -0.95,-0.79 -2.08,-1.19 -3.38,-1.19 -1.28,0 -2.48,0.4 -3.58,1.19 -1.1,0.8 -1.91,1.85 -2.45,3.15l11.25 0zm26.92 12.32l-6.09 0 -7.33 -9.22 -0.93 9.22 -5.23 0 2.97 -29.51 5.23 0 -1.77 17.66 8.06 -8.73 5.98 0 -9.44 10.01 8.55 10.57zm17.45 -5.77c-0.1,1.02 -0.43,1.93 -0.98,2.73 -0.56,0.79 -1.25,1.46 -2.06,1.99 -0.81,0.53 -1.72,0.94 -2.69,1.21 -0.98,0.27 -1.94,0.41 -2.86,0.41 -1.57,0 -2.99,-0.29 -4.25,-0.87 -1.26,-0.58 -2.33,-1.52 -3.2,-2.8l3.42 -3.13c0.53,0.78 1.18,1.39 1.95,1.83 0.76,0.44 1.6,0.66 2.53,0.66 0.81,0 1.49,-0.15 2.06,-0.44 0.56,-0.3 0.87,-0.74 0.93,-1.34 0.06,-0.61 -0.26,-1.13 -0.98,-1.55 -0.72,-0.41 -1.75,-0.82 -3.08,-1.22 -0.79,-0.24 -1.54,-0.54 -2.26,-0.91 -0.72,-0.37 -1.35,-0.82 -1.89,-1.35 -0.54,-0.54 -0.96,-1.15 -1.24,-1.84 -0.29,-0.69 -0.39,-1.48 -0.3,-2.38 0.1,-1 0.42,-1.9 0.97,-2.69 0.54,-0.8 1.22,-1.46 2.02,-1.99 0.8,-0.54 1.7,-0.95 2.67,-1.23 0.98,-0.29 1.96,-0.43 2.94,-0.43 3.13,0 5.58,1.19 7.34,3.56l-3.37 3.1c-0.52,-0.74 -1.13,-1.32 -1.85,-1.75 -0.72,-0.42 -1.53,-0.64 -2.43,-0.64 -0.31,0 -0.64,0.04 -0.99,0.13 -0.35,0.08 -0.68,0.2 -1,0.35 -0.31,0.16 -0.57,0.36 -0.79,0.61 -0.21,0.25 -0.34,0.53 -0.37,0.83 -0.05,0.55 0.26,1.03 0.95,1.43 0.68,0.4 1.68,0.81 2.99,1.21 0.85,0.26 1.65,0.59 2.39,1 0.74,0.4 1.38,0.87 1.92,1.4 0.54,0.54 0.95,1.14 1.23,1.82 0.27,0.67 0.37,1.44 0.28,2.29zm21.87 4.88l4.77 0 2.79 -27.73 -4.54 0 -1.99 19.7 -10.81 -19.7 -5.55 0 -2.79 27.73 4.54 0 2.12 -21.1 11.46 21.1zm32.66 -9.89c-0.02,0.19 -0.04,0.37 -0.07,0.53 -0.02,0.19 -0.06,0.37 -0.09,0.55 -0.1,0.49 -0.21,0.98 -0.32,1.47l-16.3 0 0.09 0.27c0.1,0.26 0.22,0.52 0.35,0.77 0.14,0.25 0.29,0.48 0.46,0.68 0.17,0.22 0.36,0.41 0.57,0.59 0.21,0.18 0.44,0.34 0.68,0.48 0.25,0.14 0.51,0.27 0.79,0.37 0.28,0.11 0.58,0.18 0.89,0.23 0.31,0.06 0.65,0.08 1.02,0.08 0.44,0 0.88,-0.04 1.33,-0.11 0.45,-0.08 0.91,-0.19 1.36,-0.35 0.46,-0.15 0.88,-0.33 1.27,-0.54 0.39,-0.2 0.74,-0.43 1.05,-0.68l0.33 -0.27 3.55 3.94 -0.42 0.29c-0.78,0.55 -1.55,1.01 -2.31,1.4 -0.77,0.39 -1.51,0.7 -2.24,0.93 -0.73,0.23 -1.48,0.4 -2.23,0.51 -0.76,0.12 -1.53,0.17 -2.31,0.17 -1.62,0 -3.1,-0.3 -4.44,-0.89 -0.67,-0.3 -1.3,-0.65 -1.87,-1.06 -0.57,-0.41 -1.09,-0.86 -1.56,-1.38 -0.46,-0.51 -0.87,-1.07 -1.22,-1.67 -0.35,-0.6 -0.63,-1.24 -0.86,-1.94 -0.23,-0.69 -0.39,-1.41 -0.46,-2.15 -0.08,-0.73 -0.07,-1.49 0,-2.27 0.08,-0.78 0.23,-1.53 0.46,-2.27 0.22,-0.74 0.51,-1.45 0.88,-2.13 0.36,-0.69 0.78,-1.33 1.25,-1.92 0.47,-0.6 0.98,-1.15 1.55,-1.66 0.57,-0.5 1.18,-0.96 1.82,-1.36 0.64,-0.4 1.33,-0.74 2.05,-1.04 0.73,-0.3 1.47,-0.52 2.22,-0.67 0.76,-0.15 1.54,-0.22 2.33,-0.22 1.51,0 2.93,0.28 4.27,0.83 0.67,0.29 1.29,0.62 1.87,1.01 0.58,0.39 1.11,0.83 1.6,1.33 0.48,0.5 0.91,1.05 1.28,1.65 0.36,0.59 0.66,1.24 0.91,1.93 0.24,0.69 0.4,1.43 0.48,2.19 0.08,0.76 0.07,1.55 -0.01,2.38zm-0.95 0.4c0.03,-0.18 0.05,-0.34 0.07,-0.48 0.07,-0.77 0.08,-1.51 0,-2.21 -0.07,-0.69 -0.21,-1.36 -0.43,-1.99 -0.23,-0.63 -0.5,-1.22 -0.83,-1.76 -0.33,-0.54 -0.72,-1.04 -1.16,-1.49 -0.44,-0.45 -0.93,-0.86 -1.46,-1.21 -0.53,-0.36 -1.1,-0.67 -1.71,-0.92 -1.23,-0.52 -2.54,-0.77 -3.93,-0.77 -0.74,0 -1.46,0.07 -2.16,0.2 -0.7,0.14 -1.39,0.35 -2.05,0.62 -0.67,0.28 -1.31,0.6 -1.92,0.98 -0.6,0.37 -1.16,0.8 -1.7,1.27 -0.53,0.47 -1.01,0.98 -1.44,1.54 -0.44,0.55 -0.83,1.15 -1.17,1.79 -0.34,0.63 -0.61,1.29 -0.81,1.97 -0.21,0.67 -0.35,1.38 -0.42,2.1 -0.07,0.72 -0.08,1.42 -0.01,2.1 0.07,0.67 0.21,1.32 0.42,1.95 0.21,0.63 0.47,1.22 0.79,1.78 0.32,0.54 0.69,1.05 1.11,1.51 0.43,0.47 0.9,0.89 1.42,1.26 0.52,0.36 1.09,0.69 1.7,0.96 1.24,0.55 2.6,0.82 4.09,0.82 0.74,0 1.47,-0.05 2.18,-0.16 0.71,-0.1 1.41,-0.27 2.09,-0.48 0.69,-0.21 1.39,-0.5 2.1,-0.87 0.59,-0.3 1.19,-0.65 1.8,-1.06l-2.32 -2.57c-0.26,0.2 -0.55,0.37 -0.85,0.53 -0.43,0.23 -0.9,0.43 -1.4,0.6 -0.51,0.16 -1.01,0.29 -1.5,0.38 -0.5,0.08 -1,0.12 -1.48,0.12 -0.4,0 -0.79,-0.03 -1.16,-0.09 -0.37,-0.06 -0.72,-0.15 -1.06,-0.28 -0.33,-0.12 -0.64,-0.26 -0.92,-0.43 -0.29,-0.17 -0.57,-0.36 -0.82,-0.57 -0.25,-0.22 -0.48,-0.45 -0.68,-0.71 -0.21,-0.25 -0.39,-0.53 -0.55,-0.81 -0.15,-0.29 -0.29,-0.59 -0.4,-0.89 -0.12,-0.31 -0.21,-0.62 -0.28,-0.93l-0.11 -0.54 16.72 0 0.16 -0.75 0.08 -0.51zm-5.26 -2.89c-0.12,-0.4 -0.28,-0.77 -0.48,-1.1 -0.28,-0.49 -0.64,-0.91 -1.08,-1.28 -0.44,-0.36 -0.92,-0.64 -1.43,-0.82 -0.52,-0.18 -1.08,-0.27 -1.69,-0.27 -0.6,0 -1.17,0.09 -1.72,0.27 -0.56,0.19 -1.09,0.47 -1.61,0.84 -0.51,0.37 -0.97,0.81 -1.35,1.3 -0.26,0.33 -0.48,0.68 -0.68,1.06l10.04 0zm0.29 -1.55c0.33,0.56 0.57,1.2 0.71,1.91l0.12 0.53 -12.52 0 0.26 -0.61c0.28,-0.7 0.64,-1.32 1.07,-1.88 0.44,-0.56 0.95,-1.05 1.54,-1.48 0.59,-0.43 1.21,-0.75 1.85,-0.96 0.64,-0.22 1.31,-0.32 2,-0.32 0.71,0 1.37,0.1 1.98,0.32 0.62,0.22 1.19,0.55 1.71,0.98 0.52,0.43 0.94,0.93 1.28,1.51zm39.62 -6.16l-9.14 21.01 -5.12 0 -2.65 -11.37 -4.93 11.37 -5.12 0c-1.69,-7.21 -3.39,-14.42 -5.09,-21.63l6.36 0 2.37 11.84 4.76 -11.84 5.24 0 2.41 11.85 4.76 -11.85 6.42 0 -0.27 0.62zm-9.73 20.12l8.64 -19.85 -4.46 0 -5.64 14.04 -2.85 -14.04 -3.92 0 -5.64 14.05 -2.82 -14.05 -4.51 0 4.68 19.85 3.83 0 5.77 -13.31 3.1 13.31 3.82 0zm25.75 -5.34c-0.05,0.55 -0.17,1.07 -0.35,1.56 -0.18,0.49 -0.42,0.96 -0.72,1.39 -0.29,0.42 -0.62,0.81 -0.98,1.16 -0.37,0.35 -0.77,0.67 -1.2,0.96 -0.43,0.28 -0.88,0.53 -1.35,0.74 -0.47,0.21 -0.97,0.39 -1.48,0.53 -0.51,0.14 -1.02,0.25 -1.51,0.32 -0.51,0.07 -1,0.11 -1.48,0.11 -0.82,0 -1.6,-0.08 -2.34,-0.23 -0.75,-0.15 -1.45,-0.38 -2.12,-0.69 -0.67,-0.31 -1.29,-0.71 -1.86,-1.21 -0.56,-0.49 -1.07,-1.08 -1.53,-1.75l-0.22 -0.32 4.09 -3.75 0.29 0.42c0.25,0.37 0.53,0.69 0.83,0.98 0.31,0.28 0.63,0.53 0.99,0.73 0.34,0.2 0.71,0.35 1.1,0.45 0.38,0.1 0.79,0.15 1.22,0.15 0.37,0 0.72,-0.03 1.03,-0.1 0.3,-0.07 0.58,-0.17 0.83,-0.3 0.22,-0.11 0.39,-0.25 0.5,-0.41 0.11,-0.16 0.18,-0.36 0.2,-0.58 0.02,-0.2 -0.02,-0.39 -0.13,-0.57 -0.13,-0.2 -0.34,-0.38 -0.64,-0.55 -0.69,-0.4 -1.69,-0.8 -3,-1.2 -0.4,-0.12 -0.79,-0.26 -1.19,-0.42 -0.4,-0.16 -0.78,-0.33 -1.15,-0.52 -0.38,-0.19 -0.74,-0.41 -1.07,-0.65 -0.34,-0.24 -0.65,-0.5 -0.94,-0.79 -0.3,-0.29 -0.55,-0.6 -0.78,-0.93 -0.22,-0.33 -0.41,-0.68 -0.57,-1.06 -0.16,-0.38 -0.26,-0.79 -0.32,-1.23 -0.05,-0.43 -0.05,-0.89 0,-1.38 0.05,-0.53 0.17,-1.04 0.34,-1.53 0.17,-0.49 0.41,-0.94 0.7,-1.37 0.29,-0.42 0.61,-0.81 0.97,-1.17 0.36,-0.35 0.76,-0.67 1.18,-0.96 0.42,-0.28 0.87,-0.52 1.34,-0.74 0.47,-0.21 0.96,-0.4 1.47,-0.55 0.52,-0.15 1.03,-0.26 1.54,-0.33 0.51,-0.08 1.03,-0.11 1.53,-0.11 1.65,0 3.12,0.31 4.41,0.93 1.29,0.63 2.41,1.57 3.34,2.82l0.23 0.32 -4.05 3.73 -0.3 -0.41c-0.24,-0.35 -0.51,-0.66 -0.79,-0.93 -0.29,-0.27 -0.6,-0.5 -0.93,-0.7 -0.32,-0.19 -0.67,-0.34 -1.04,-0.44 -0.36,-0.09 -0.76,-0.14 -1.17,-0.14 -0.15,0 -0.29,0.01 -0.43,0.03 -0.15,0.02 -0.31,0.04 -0.47,0.08 -0.15,0.04 -0.31,0.09 -0.47,0.14 -0.15,0.06 -0.3,0.12 -0.43,0.19 -0.13,0.06 -0.25,0.13 -0.36,0.22 -0.11,0.08 -0.21,0.17 -0.3,0.27 -0.08,0.09 -0.14,0.19 -0.18,0.29 -0.04,0.1 -0.07,0.2 -0.08,0.31 -0.02,0.17 0.02,0.33 0.12,0.48 0.12,0.18 0.32,0.35 0.61,0.52 0.32,0.19 0.73,0.39 1.2,0.58 0.5,0.2 1.06,0.4 1.71,0.6 0.44,0.13 0.87,0.29 1.28,0.46 0.41,0.17 0.81,0.36 1.2,0.57 0.4,0.21 0.76,0.45 1.1,0.69 0.34,0.25 0.65,0.52 0.94,0.8 0.29,0.29 0.55,0.6 0.77,0.93 0.22,0.32 0.4,0.67 0.55,1.04 0.16,0.38 0.26,0.78 0.32,1.2 0.05,0.42 0.05,0.86 0,1.32zm-1.18 1.26c0.15,-0.42 0.25,-0.87 0.3,-1.35 0.04,-0.39 0.03,-0.76 -0.01,-1.12 -0.04,-0.34 -0.13,-0.67 -0.25,-0.97 -0.12,-0.31 -0.28,-0.6 -0.47,-0.89 -0.19,-0.28 -0.41,-0.54 -0.66,-0.79 -0.25,-0.25 -0.53,-0.49 -0.84,-0.71 -0.31,-0.23 -0.64,-0.43 -0.99,-0.63 -0.36,-0.19 -0.73,-0.37 -1.12,-0.53 -0.39,-0.16 -0.79,-0.31 -1.2,-0.43 -0.67,-0.21 -1.27,-0.42 -1.78,-0.62 -0.52,-0.22 -0.96,-0.43 -1.32,-0.64 -0.41,-0.24 -0.71,-0.51 -0.9,-0.8 -0.22,-0.33 -0.31,-0.68 -0.27,-1.06 0.02,-0.2 0.07,-0.4 0.15,-0.58 0.08,-0.18 0.19,-0.35 0.33,-0.51 0.13,-0.15 0.27,-0.28 0.43,-0.4 0.15,-0.12 0.32,-0.22 0.5,-0.31 0.18,-0.09 0.36,-0.17 0.53,-0.23 0.18,-0.06 0.37,-0.12 0.57,-0.17 0.19,-0.04 0.38,-0.08 0.56,-0.1 0.2,-0.02 0.37,-0.03 0.54,-0.03 0.49,0 0.95,0.06 1.4,0.17 0.45,0.12 0.87,0.3 1.26,0.54 0.39,0.23 0.75,0.5 1.09,0.81 0.21,0.21 0.42,0.43 0.61,0.66l2.73 -2.5c-0.79,-0.98 -1.71,-1.72 -2.77,-2.23 -1.17,-0.57 -2.51,-0.85 -4.02,-0.85 -0.47,0 -0.94,0.03 -1.4,0.1 -0.48,0.07 -0.95,0.17 -1.42,0.31 -0.47,0.13 -0.92,0.3 -1.35,0.5 -0.42,0.19 -0.83,0.42 -1.21,0.68 -0.38,0.25 -0.74,0.53 -1.06,0.85 -0.31,0.31 -0.6,0.65 -0.85,1.03 -0.26,0.37 -0.46,0.76 -0.6,1.17 -0.15,0.42 -0.25,0.86 -0.3,1.32 -0.04,0.42 -0.04,0.81 0.01,1.18 0.04,0.36 0.13,0.7 0.26,1 0.13,0.32 0.29,0.62 0.48,0.9 0.19,0.29 0.41,0.55 0.66,0.8 0.26,0.25 0.53,0.48 0.83,0.7 0.3,0.21 0.62,0.4 0.96,0.58 0.36,0.18 0.72,0.34 1.08,0.49 0.36,0.14 0.73,0.27 1.12,0.39 1.37,0.41 2.44,0.84 3.19,1.28 0.42,0.24 0.74,0.53 0.94,0.84 0.22,0.35 0.31,0.73 0.27,1.14 -0.04,0.38 -0.16,0.71 -0.36,0.99 -0.2,0.29 -0.47,0.52 -0.82,0.7 -0.32,0.17 -0.67,0.3 -1.05,0.38 -0.38,0.08 -0.79,0.12 -1.22,0.12 -0.5,0 -0.98,-0.06 -1.45,-0.18 -0.46,-0.12 -0.9,-0.3 -1.32,-0.54 -0.41,-0.24 -0.79,-0.52 -1.15,-0.85 -0.23,-0.22 -0.44,-0.46 -0.65,-0.72l-2.78 2.55c0.36,0.48 0.75,0.9 1.16,1.27 0.51,0.44 1.06,0.8 1.65,1.07 0.61,0.28 1.25,0.49 1.92,0.63 0.68,0.14 1.4,0.21 2.17,0.21 0.44,0 0.9,-0.03 1.35,-0.1 0.46,-0.07 0.93,-0.17 1.4,-0.3 0.47,-0.13 0.92,-0.29 1.35,-0.48 0.43,-0.2 0.84,-0.42 1.23,-0.68 0.38,-0.25 0.74,-0.53 1.07,-0.85 0.32,-0.31 0.62,-0.66 0.88,-1.03 0.25,-0.37 0.46,-0.76 0.61,-1.18zm8.81 4.94l-5.96 0 0.64 -6.37 6.37 0 -0.65 6.37 -0.4 0zm-4.98 -0.89l4.58 0 0.46 -4.59 -4.58 0 -0.46 4.59z"/>
   <path class="fil1" d="M47.42 53.45l0.36 -4.78 -2.22 3.39 -1.06 -3.39 -1.31 4.78 -0.93 0 1.89 -6.54 0.75 0 0.96 3.4 2.15 -3.4 0.75 0 -0.41 6.54 -0.93 0zm4.61 0l-0.89 0 1.14 -6.54 3.65 0 -0.14 0.81 -2.76 0 -0.34 1.91 2.18 0 -0.14 0.8 -2.18 0 -0.39 2.21 2.84 0 -0.14 0.81 -2.83 0zm6.37 0l-0.89 0 1.14 -6.54 2.19 0c0.36,0 0.7,0.06 1,0.18 0.3,0.12 0.55,0.29 0.76,0.51 0.21,0.23 0.37,0.5 0.48,0.83 0.12,0.32 0.18,0.69 0.18,1.1 0,0.6 -0.1,1.14 -0.29,1.62 -0.18,0.49 -0.44,0.9 -0.76,1.24 -0.32,0.34 -0.7,0.6 -1.13,0.78 -0.43,0.19 -0.89,0.28 -1.38,0.28l-1.3 0zm1.01 -5.73l-0.87 4.92 1.3 0c0.39,0 0.73,-0.07 1.03,-0.23 0.31,-0.16 0.56,-0.38 0.77,-0.66 0.21,-0.27 0.36,-0.6 0.47,-0.97 0.11,-0.37 0.16,-0.76 0.16,-1.19 0,-0.56 -0.13,-1.01 -0.39,-1.35 -0.26,-0.35 -0.65,-0.52 -1.18,-0.52l-1.29 0zm5.94 5.73l1.15 -6.54 0.89 0 -1.14 6.54 -0.9 0zm7.52 0l-0.24 -1.77 -2.15 0 -0.85 1.77 -0.93 0 3.25 -6.54 0.9 0 0.95 6.54 -0.93 0zm-0.69 -5.29l-1.27 2.72 1.58 0 -0.31 -2.72zm9.41 5.29l-1.52 -3.47 2.67 -3.07 0.96 0 -2.67 3.07 1.52 3.47 -0.96 0zm-3.31 0l1.15 -6.54 0.89 0 -1.15 6.54 -0.89 0zm10.05 0l-0.82 -2.55 -1.19 0 -0.45 2.55 -0.91 0 1.14 -6.54 1.99 0c0.26,0 0.5,0.03 0.71,0.08 0.21,0.05 0.4,0.13 0.55,0.25 0.16,0.11 0.28,0.26 0.36,0.45 0.08,0.19 0.13,0.42 0.13,0.7 0,0.53 -0.14,0.99 -0.41,1.38 -0.27,0.38 -0.61,0.68 -1.02,0.9l0.87 2.78 -0.95 0zm-1.43 -5.82l-0.43 2.41 1.12 0c0.18,0 0.36,-0.03 0.51,-0.08 0.16,-0.05 0.3,-0.14 0.42,-0.26 0.11,-0.12 0.2,-0.28 0.27,-0.46 0.07,-0.19 0.1,-0.42 0.1,-0.69 0,-0.29 -0.08,-0.51 -0.23,-0.67 -0.16,-0.17 -0.42,-0.25 -0.77,-0.25l-0.99 0zm5.8 5.82l-0.9 0 1.15 -6.54 3.65 0 -0.14 0.81 -2.76 0 -0.34 1.91 2.17 0 -0.14 0.8 -2.17 0 -0.39 2.21 2.83 0 -0.14 0.81 -2.82 0zm9.04 0l-0.24 -1.77 -2.15 0 -0.85 1.77 -0.94 0 3.26 -6.54 0.9 0 0.95 6.54 -0.93 0zm-0.69 -5.29l-1.27 2.72 1.57 0 -0.3 -2.72zm5.65 5.42c-0.4,0 -0.76,-0.04 -1.09,-0.12 -0.33,-0.08 -0.59,-0.18 -0.77,-0.3l0.3 -1.04c0.18,0.21 0.42,0.37 0.72,0.48 0.3,0.12 0.64,0.18 1.01,0.18 0.45,0 0.8,-0.11 1.07,-0.32 0.26,-0.21 0.4,-0.48 0.4,-0.83 0,-0.14 -0.03,-0.26 -0.09,-0.36 -0.07,-0.1 -0.15,-0.19 -0.26,-0.28 -0.11,-0.08 -0.24,-0.17 -0.4,-0.24 -0.15,-0.08 -0.32,-0.17 -0.51,-0.26 -0.23,-0.11 -0.44,-0.22 -0.63,-0.32 -0.19,-0.11 -0.36,-0.22 -0.5,-0.33 -0.14,-0.12 -0.24,-0.25 -0.32,-0.4 -0.08,-0.15 -0.12,-0.32 -0.12,-0.52 0,-0.3 0.06,-0.58 0.17,-0.84 0.11,-0.26 0.27,-0.49 0.49,-0.68 0.21,-0.19 0.47,-0.34 0.78,-0.45 0.3,-0.11 0.65,-0.17 1.03,-0.17 0.17,0 0.34,0.01 0.52,0.04 0.17,0.02 0.34,0.05 0.5,0.09 0.16,0.04 0.3,0.09 0.44,0.14 0.13,0.06 0.24,0.12 0.33,0.18l-0.28 0.91c-0.3,-0.2 -0.58,-0.34 -0.83,-0.43 -0.25,-0.08 -0.5,-0.12 -0.76,-0.12 -0.18,0 -0.36,0.02 -0.53,0.08 -0.17,0.05 -0.32,0.13 -0.45,0.22 -0.13,0.1 -0.23,0.22 -0.31,0.35 -0.08,0.14 -0.12,0.29 -0.12,0.45 0,0.12 0.03,0.23 0.09,0.32 0.05,0.1 0.13,0.18 0.23,0.25 0.1,0.07 0.21,0.14 0.34,0.2 0.13,0.06 0.26,0.12 0.41,0.18 0.23,0.11 0.46,0.21 0.68,0.31 0.21,0.1 0.41,0.22 0.57,0.36 0.17,0.13 0.3,0.29 0.39,0.47 0.1,0.18 0.15,0.4 0.15,0.65 0,0.32 -0.05,0.61 -0.14,0.87 -0.1,0.27 -0.25,0.5 -0.46,0.69 -0.21,0.19 -0.49,0.33 -0.82,0.43 -0.34,0.11 -0.75,0.16 -1.23,0.16zm4.94 -0.13l1.15 -6.54 0.89 0 -1.15 6.54 -0.89 0zm6.95 0l-0.9 0 1.15 -6.54 2.18 0c0.37,0 0.7,0.06 1,0.18 0.3,0.12 0.55,0.29 0.76,0.51 0.21,0.23 0.37,0.5 0.49,0.83 0.11,0.32 0.17,0.69 0.17,1.1 0,0.6 -0.09,1.14 -0.28,1.62 -0.18,0.49 -0.44,0.9 -0.76,1.24 -0.33,0.34 -0.7,0.6 -1.13,0.78 -0.44,0.19 -0.9,0.28 -1.39,0.28l-1.29 0zm1.01 -5.73l-0.87 4.92 1.29 0c0.39,0 0.74,-0.07 1.04,-0.23 0.3,-0.16 0.55,-0.38 0.76,-0.66 0.21,-0.27 0.37,-0.6 0.48,-0.97 0.11,-0.37 0.16,-0.76 0.16,-1.19 0,-0.56 -0.13,-1.01 -0.39,-1.35 -0.26,-0.35 -0.66,-0.52 -1.18,-0.52l-1.29 0zm9.44 5.73l-0.24 -1.77 -2.15 0 -0.85 1.77 -0.94 0 3.26 -6.54 0.9 0 0.95 6.54 -0.93 0zm-0.7 -5.29l-1.26 2.72 1.57 0 -0.31 -2.72zm7.85 5.29l-2.04 -5.16 -0.91 5.16 -0.9 0 1.15 -6.54 0.94 0 1.91 4.89 0.86 -4.89 0.89 0 -1.15 6.54 -0.75 0zm9.23 0l-1.52 -3.47 2.67 -3.07 0.96 0 -2.67 3.07 1.53 3.47 -0.97 0zm-3.31 0l1.15 -6.54 0.9 0 -1.15 6.54 -0.9 0zm9.03 0.13c-0.36,0 -0.69,-0.07 -0.98,-0.19 -0.29,-0.13 -0.54,-0.31 -0.75,-0.55 -0.2,-0.24 -0.36,-0.52 -0.47,-0.86 -0.11,-0.33 -0.17,-0.71 -0.17,-1.12 0,-0.6 0.1,-1.15 0.29,-1.65 0.19,-0.5 0.44,-0.93 0.77,-1.29 0.32,-0.36 0.7,-0.64 1.13,-0.84 0.44,-0.2 0.9,-0.3 1.39,-0.3 0.36,0 0.68,0.07 0.97,0.2 0.3,0.12 0.55,0.3 0.75,0.54 0.21,0.24 0.37,0.52 0.48,0.86 0.11,0.34 0.17,0.71 0.17,1.12 0,0.6 -0.1,1.16 -0.29,1.66 -0.19,0.5 -0.45,0.93 -0.77,1.28 -0.33,0.36 -0.71,0.64 -1.14,0.84 -0.44,0.2 -0.89,0.3 -1.38,0.3zm1.07 -5.99c-0.39,0 -0.74,0.09 -1.04,0.26 -0.31,0.18 -0.56,0.42 -0.78,0.72 -0.21,0.3 -0.37,0.64 -0.48,1.02 -0.1,0.39 -0.16,0.79 -0.16,1.2 0,0.28 0.03,0.54 0.09,0.78 0.07,0.24 0.16,0.45 0.28,0.63 0.13,0.18 0.29,0.32 0.48,0.42 0.2,0.1 0.43,0.16 0.69,0.16 0.39,0 0.73,-0.09 1.04,-0.27 0.3,-0.18 0.56,-0.42 0.77,-0.71 0.2,-0.3 0.37,-0.65 0.48,-1.03 0.11,-0.39 0.16,-0.79 0.16,-1.2 0,-0.28 -0.03,-0.54 -0.09,-0.78 -0.06,-0.24 -0.16,-0.45 -0.28,-0.63 -0.13,-0.18 -0.29,-0.32 -0.48,-0.42 -0.2,-0.1 -0.42,-0.15 -0.68,-0.15zm9.46 5.86l0.37 -4.78 -2.22 3.39 -1.06 -3.39 -1.31 4.78 -0.94 0 1.9 -6.54 0.74 0 0.97 3.4 2.15 -3.4 0.75 0 -0.41 6.54 -0.94 0zm6 0.13c-0.69,0 -1.2,-0.18 -1.52,-0.54 -0.32,-0.36 -0.49,-0.86 -0.49,-1.5 0,-0.26 0.03,-0.55 0.09,-0.86l0.66 -3.77 0.9 0 -0.59 3.34c-0.03,0.18 -0.06,0.36 -0.08,0.54 -0.02,0.18 -0.03,0.35 -0.03,0.52 0,0.21 0.02,0.4 0.05,0.58 0.04,0.18 0.1,0.33 0.2,0.47 0.09,0.13 0.21,0.23 0.37,0.3 0.15,0.08 0.35,0.12 0.58,0.12 0.33,0 0.61,-0.08 0.83,-0.22 0.23,-0.14 0.42,-0.33 0.57,-0.57 0.16,-0.23 0.28,-0.51 0.37,-0.81 0.09,-0.31 0.16,-0.62 0.22,-0.93l0.59 -3.34 0.89 0 -0.66 3.77c-0.08,0.44 -0.2,0.85 -0.36,1.2 -0.17,0.36 -0.37,0.67 -0.62,0.92 -0.24,0.25 -0.53,0.44 -0.86,0.58 -0.33,0.13 -0.7,0.2 -1.11,0.2zm9.3 -0.13l-2.03 -5.16 -0.92 5.16 -0.89 0 1.14 -6.54 0.95 0 1.9 4.89 0.86 -4.89 0.89 0 -1.15 6.54 -0.75 0zm3.82 0l1.15 -6.54 0.9 0 -1.15 6.54 -0.9 0zm7.27 0l-1.52 -3.47 2.67 -3.07 0.96 0 -2.67 3.07 1.52 3.47 -0.96 0zm-3.31 0l1.14 -6.54 0.9 0 -1.15 6.54 -0.89 0zm10.24 0l-0.23 -1.77 -2.16 0 -0.85 1.77 -0.93 0 3.25 -6.54 0.9 0 0.95 6.54 -0.93 0zm-0.69 -5.29l-1.27 2.72 1.58 0 -0.31 -2.72zm5.65 5.42c-0.39,0 -0.76,-0.04 -1.09,-0.12 -0.33,-0.08 -0.59,-0.18 -0.77,-0.3l0.3 -1.04c0.18,0.21 0.42,0.37 0.72,0.48 0.31,0.12 0.64,0.18 1.02,0.18 0.44,0 0.79,-0.11 1.06,-0.32 0.27,-0.21 0.4,-0.48 0.4,-0.83 0,-0.14 -0.03,-0.26 -0.09,-0.36 -0.06,-0.1 -0.15,-0.19 -0.26,-0.28 -0.11,-0.08 -0.24,-0.17 -0.39,-0.24 -0.16,-0.08 -0.33,-0.17 -0.52,-0.26 -0.23,-0.11 -0.44,-0.22 -0.63,-0.32 -0.19,-0.11 -0.35,-0.22 -0.49,-0.33 -0.14,-0.12 -0.25,-0.25 -0.33,-0.4 -0.08,-0.15 -0.12,-0.32 -0.12,-0.52 0,-0.3 0.06,-0.58 0.17,-0.84 0.11,-0.26 0.28,-0.49 0.49,-0.68 0.22,-0.19 0.48,-0.34 0.78,-0.45 0.31,-0.11 0.65,-0.17 1.04,-0.17 0.17,0 0.34,0.01 0.51,0.04 0.18,0.02 0.34,0.05 0.5,0.09 0.16,0.04 0.3,0.09 0.44,0.14 0.13,0.06 0.24,0.12 0.33,0.18l-0.28 0.91c-0.3,-0.2 -0.57,-0.34 -0.83,-0.43 -0.25,-0.08 -0.5,-0.12 -0.76,-0.12 -0.18,0 -0.35,0.02 -0.52,0.08 -0.18,0.05 -0.33,0.13 -0.46,0.22 -0.13,0.1 -0.23,0.22 -0.31,0.35 -0.08,0.14 -0.12,0.29 -0.12,0.45 0,0.12 0.03,0.23 0.09,0.32 0.05,0.1 0.13,0.18 0.23,0.25 0.1,0.07 0.21,0.14 0.34,0.2 0.13,0.06 0.26,0.12 0.41,0.18 0.23,0.11 0.46,0.21 0.68,0.31 0.22,0.1 0.41,0.22 0.57,0.36 0.17,0.13 0.3,0.29 0.4,0.47 0.09,0.18 0.14,0.4 0.14,0.65 0,0.32 -0.05,0.61 -0.14,0.87 -0.09,0.27 -0.25,0.5 -0.46,0.69 -0.21,0.19 -0.48,0.33 -0.82,0.43 -0.33,0.11 -0.75,0.16 -1.23,0.16zm4.94 -0.13l1.15 -6.54 0.9 0 -1.15 6.54 -0.9 0z"/>
  </g>
 </g>
</svg>
