<?xml version="1.0" encoding="UTF-8"?>
<!DOCTYPE svg PUBLIC "-//W3C//DTD SVG 1.1//EN" "http://www.w3.org/Graphics/SVG/1.1/DTD/svg11.dtd">
<!-- Creator: CorelDRAW 2020 (64-Bit) -->
<svg xmlns="http://www.w3.org/2000/svg" xml:space="preserve" width="512px" height="389px" version="1.1" style="shape-rendering:geometricPrecision; text-rendering:geometricPrecision; image-rendering:optimizeQuality; fill-rule:evenodd; clip-rule:evenodd"
viewBox="0 0 299.48 227.37"
 xmlns:xlink="http://www.w3.org/1999/xlink"
 xmlns:xodm="http://www.corel.com/coreldraw/odm/2003">
 <defs>
  <style type="text/css">
   <![CDATA[
    .fil7 {fill:#2F2E41;fill-rule:nonzero}
    .fil3 {fill:#3F3D56;fill-rule:nonzero}
    .fil5 {fill:#DD9933;fill-rule:nonzero}
    .fil6 {fill:#DD9933;fill-rule:nonzero}
    .fil1 {fill:#E6E6E6;fill-rule:nonzero}
    .fil4 {fill:#F2F2F2;fill-rule:nonzero}
    .fil8 {fill:#FBBEBE;fill-rule:nonzero}
    .fil0 {fill:#DD9933;fill-rule:nonzero;fill-opacity:0.101961}
    .fil2 {fill:black;fill-rule:nonzero;fill-opacity:0.101961}
   ]]>
  </style>
 </defs>
 <g id="Layer_x0020_1">
  <metadata id="CorelCorpID_0Corel-Layer"/>
  <g id="_2039577758832">
   <path class="fil0" d="M144.89 201.02c-64.46,-4.9 -141.33,-54.85 -137.41,-106.28 3.91,-51.42 78.36,-99.3 142.82,-94.39 64.46,4.9 101.56,101.01 97.65,152.44 -3.91,51.43 -38.6,53.14 -103.06,48.23z"/>
   <ellipse class="fil1" cx="150.3" cy="201.04" rx="134.56" ry="8.24"/>
   <path class="fil2" d="M264.91 200.91c0,-3.01 -51.31,-5.46 -114.61,-5.46 -63.3,0 -114.61,2.45 -114.61,5.46 0,3.01 51.31,5.45 114.61,5.45 63.3,0 114.61,-2.44 114.61,-5.45z"/>
   <ellipse class="fil1" cx="56.43" cy="222.45" rx="56.43" ry="4.92"/>
   <path class="fil2" d="M104.49 222.37c0,-1.8 -21.52,-3.26 -48.06,-3.26 -26.55,0 -48.07,1.46 -48.07,3.26 0,1.79 21.52,3.25 48.07,3.25 26.54,0 48.06,-1.46 48.06,-3.25z"/>
   <rect class="fil3" x="52.17" y="43.08" width="199.97" height="156.89"/>
   <path class="fil4" d="M149.88 64.52l-49.33 0c0,0 0,0 0,0 -0.33,0 -0.6,-0.27 -0.6,-0.6 0,-0.33 0.27,-0.6 0.6,-0.6 0,0 0,0 0,0l49.33 0c0.33,0 0.6,0.27 0.6,0.6 0,0.33 -0.27,0.6 -0.6,0.6l0 0z"/>
   <path class="fil4" d="M203.89 71.11l-77.59 0c-0.33,0 -0.6,-0.27 -0.6,-0.6 0,-0.33 0.27,-0.6 0.6,-0.6l77.59 0c0.33,0 0.6,0.27 0.6,0.6 0,0.33 -0.27,0.6 -0.6,0.6l0 0z"/>
   <path class="fil4" d="M150.12 77.69l-49.33 0c-0.33,0 -0.6,-0.27 -0.6,-0.6 0,-0.33 0.27,-0.59 0.6,-0.59l49.33 0c0.33,0 0.6,0.26 0.6,0.59 0,0.33 -0.27,0.6 -0.6,0.6l0 0z"/>
   <path class="fil4" d="M203.89 77.81l-49.34 0c-0.33,0 -0.59,-0.27 -0.59,-0.6 0,-0.33 0.26,-0.59 0.59,-0.59l49.34 0c0.33,0 0.6,0.26 0.6,0.59 0,0.33 -0.27,0.6 -0.6,0.6z"/>
   <path class="fil4" d="M150.24 84.28l-49.33 0c-0.33,0 -0.6,-0.27 -0.6,-0.6 0,-0.33 0.27,-0.6 0.6,-0.6l49.33 0c0.33,0 0.6,0.27 0.6,0.6 0,0.33 -0.27,0.6 -0.6,0.6l0 0z"/>
   <path class="fil4" d="M150.36 90.86l-49.33 0c-0.33,0 -0.6,-0.26 -0.6,-0.59 0,-0.33 0.27,-0.6 0.6,-0.6l49.33 0c0.33,0 0.6,0.27 0.6,0.6 0,0.33 -0.27,0.59 -0.6,0.59l0 0z"/>
   <path class="fil4" d="M172.76 64.64l-14.13 0c-0.33,0 -0.6,-0.27 -0.6,-0.6 0,-0.33 0.27,-0.6 0.6,-0.6l14.13 0c0.33,0 0.59,0.27 0.59,0.6 0,0.33 -0.26,0.6 -0.59,0.6z"/>
   <path class="fil4" d="M172.76 84.28l-14.13 0c-0.33,0 -0.6,-0.27 -0.6,-0.6 0,-0.33 0.27,-0.6 0.6,-0.6l14.13 0c0.33,0 0.59,0.27 0.59,0.6 0,0.33 -0.26,0.6 -0.59,0.6l0 0z"/>
   <path class="fil4" d="M172.76 90.75l-14.13 0c0,0 0,0 -0.01,0 -0.33,0 -0.59,-0.27 -0.59,-0.6 0,-0.33 0.26,-0.6 0.59,-0.6 0.01,0 0.01,0 0.01,0l14.13 0c0,0 0,0 0,0 0.33,0 0.6,0.27 0.6,0.6 0,0.33 -0.27,0.6 -0.6,0.6 0,0 0,0 0,0z"/>
   <path class="fil4" d="M196.46 90.75l-14.13 0c-0.33,-0.01 -0.59,-0.27 -0.59,-0.6 0,-0.33 0.26,-0.6 0.59,-0.6l14.13 0c0,0 0,0 0.01,0 0.33,0 0.59,0.27 0.59,0.6 0,0.33 -0.26,0.6 -0.59,0.6 -0.01,0 -0.01,0 -0.01,0l0 0z"/>
   <path class="fil4" d="M114.56 71.11l-14.13 0c-0.33,0 -0.6,-0.27 -0.6,-0.6 0,-0.33 0.27,-0.6 0.6,-0.6l14.13 0c0.33,0 0.6,0.27 0.6,0.6 0,0.33 -0.27,0.6 -0.6,0.6l0 0z"/>
   <path class="fil4" d="M149.94 161.51l-49.33 0c-0.33,0 -0.6,-0.27 -0.6,-0.6 0,-0.33 0.27,-0.6 0.6,-0.6l49.33 0.01c0.34,-0.01 0.6,0.26 0.6,0.59 0,0.33 -0.26,0.6 -0.6,0.6l0 0z"/>
   <path class="fil4" d="M149.7 174.68l-49.33 0c-0.33,0 -0.6,-0.26 -0.6,-0.6 0,-0.33 0.27,-0.59 0.6,-0.59l49.33 0c0.34,0 0.6,0.26 0.6,0.59 0,0.34 -0.26,0.6 -0.6,0.6l0 0z"/>
   <path class="fil4" d="M149.83 181.27l-49.34 0c0,0 0,0 0,0 -0.33,0 -0.6,-0.27 -0.6,-0.6 0,-0.33 0.27,-0.6 0.6,-0.6 0,0 0,0 0,0l49.34 0c0,0 0,0 0,0 0.33,0 0.59,0.27 0.59,0.6 0,0.33 -0.26,0.6 -0.59,0.6 0,0 0,0 0,0l0 0z"/>
   <path class="fil4" d="M170.9 174.8l-14.13 0c-0.33,0 -0.6,-0.27 -0.6,-0.6 0,-0.33 0.27,-0.59 0.6,-0.59l14.13 0c0.33,0 0.6,0.26 0.6,0.59 0,0.33 -0.27,0.6 -0.6,0.6l0 0z"/>
   <path class="fil4" d="M170.9 181.27l-14.13 0c-0.33,0 -0.6,-0.27 -0.6,-0.6 0,-0.33 0.27,-0.6 0.6,-0.6l14.13 0c0.33,0 0.6,0.27 0.6,0.6 0,0.33 -0.27,0.6 -0.6,0.6l0 0z"/>
   <path class="fil4" d="M194.61 174.8l-14.13 0c-0.33,0 -0.6,-0.27 -0.6,-0.6 0,-0.33 0.27,-0.59 0.6,-0.59l14.13 0c0.33,0 0.6,0.26 0.6,0.59 0,0.33 -0.27,0.6 -0.6,0.6l0 0z"/>
   <path class="fil4" d="M203.95 168.1l-77.59 0c-0.33,0 -0.6,-0.27 -0.6,-0.6 0,-0.33 0.27,-0.6 0.6,-0.6l77.59 0c0.33,0 0.6,0.27 0.6,0.6 0,0.33 -0.27,0.6 -0.6,0.6l0 0z"/>
   <path class="fil4" d="M114.62 168.1l-14.13 0c-0.33,0 -0.6,-0.27 -0.6,-0.6 0,-0.33 0.27,-0.6 0.6,-0.6l14.13 0c0.33,0 0.6,0.27 0.6,0.6 0,0.33 -0.27,0.6 -0.6,0.6l0 0z"/>
   <path class="fil4" d="M203.95 187.97l-77.59 0c0,0 -0.01,0 -0.01,0 -0.33,0 -0.59,-0.26 -0.59,-0.59 0,-0.33 0.26,-0.6 0.59,-0.6 0,0 0.01,0 0.01,0l77.59 0c0.33,0 0.6,0.27 0.6,0.6 0,0.33 -0.27,0.59 -0.6,0.59l0 0z"/>
   <path class="fil4" d="M114.62 187.97l-14.13 0c0,0 0,0 0,0 -0.33,0 -0.6,-0.26 -0.6,-0.59 0,-0.33 0.27,-0.6 0.6,-0.6 0,0 0,0 0,0l14.13 0c0,0 0,0 0,0 0.33,0 0.6,0.27 0.6,0.6 0,0.33 -0.27,0.59 -0.6,0.59 0,0 0,0 0,0l0 0z"/>
   <circle class="fil5" cx="57.49" cy="47.07" r="2.39"/>
   <circle class="fil5" cx="63.87" cy="47.07" r="2.39"/>
   <circle class="fil5" cx="70.26" cy="47.07" r="2.39"/>
   <polygon class="fil2" points="52.17,51.86 252.15,51.86 252.15,51.06 52.17,51.06 "/>
   <path class="fil6" d="M299.48 161.54c0,16.95 -10.08,22.88 -22.52,22.88 -12.43,0 -22.51,-5.93 -22.51,-22.88 0,-16.96 22.51,-38.53 22.51,-38.53 0,0 22.52,21.57 22.52,38.53z"/>
   <polygon class="fil3" points="276.14,181.82 276.37,167.63 285.97,150.07 276.41,165.4 276.51,159.02 283.13,146.32 276.54,157.33 276.54,157.33 276.73,145.86 283.81,135.74 276.76,144.05 276.87,123.01 276.14,150.87 276.2,149.72 269,138.69 276.09,151.92 275.42,164.74 275.4,164.4 267.09,152.8 275.37,165.6 275.29,167.21 275.27,167.23 275.28,167.36 273.58,199.88 275.85,199.88 276.12,183.09 284.38,170.31 "/>
   <path class="fil7" d="M32.61 199.73c-0.69,0.39 -1.42,0.7 -2.18,0.94 -1.35,0.36 -2.79,0.23 -4.15,0.54 -0.56,0.13 -1.17,0.4 -1.35,0.95 -0.13,0.4 0.01,0.83 0.15,1.23 1.51,4.42 2.41,9.11 4.82,13.11 1.01,1.68 2.26,3.21 3.72,4.52 0.54,0.49 1.16,0.97 1.9,1.05 0.06,0.01 0.13,0.01 0.2,0.01 1.06,0 1.93,-0.86 1.93,-1.93 0,-0.27 -0.06,-0.54 -0.17,-0.79 -0.22,-0.48 -0.62,-0.85 -0.88,-1.3 -0.28,-0.59 -0.44,-1.22 -0.48,-1.86 -0.24,-1.89 -0.47,-3.87 0.19,-5.66 0.44,-1.2 1.24,-2.22 1.91,-3.31 0.67,-1.08 1.23,-2.33 1.08,-3.6 -0.1,-0.87 -0.52,-1.66 -0.97,-2.41 -0.44,-0.75 -1.33,-2.76 -2.23,-3.02 -0.93,-0.26 -2.68,1.12 -3.49,1.53z"/>
   <path class="fil7" d="M57.19 215c0,0.04 0,0.08 0,0.12 0,0.39 -0.06,0.77 -0.18,1.14 -0.28,0.74 -0.98,1.25 -1.34,1.96 -0.5,0.98 -0.27,2.17 0.06,3.23 0.21,0.66 0.48,1.34 1.04,1.75 0.48,0.3 1.02,0.47 1.59,0.51 4.79,0.66 9.66,0.28 14.5,0.42 0.89,0.03 1.82,0.06 2.59,-0.37 0.77,-0.43 1.25,-1.52 0.72,-2.23 -0.47,-0.64 -1.4,-0.63 -2.19,-0.67 -2.06,-0.1 -4.03,-0.91 -5.56,-2.29 -0.3,-0.26 -0.57,-0.56 -0.78,-0.9 -0.16,-0.29 -0.3,-0.61 -0.41,-0.93 -0.68,-1.83 -1.49,-3.63 -2.41,-5.35 -0.26,-0.48 -0.56,-0.99 -1.04,-1.25 -0.36,-0.16 -0.74,-0.24 -1.13,-0.24 -1.21,-0.08 -4.33,-0.49 -5.26,0.45 -0.87,0.87 -0.18,3.55 -0.2,4.65z"/>
   <circle class="fil8" cx="64.61" cy="100.18" r="7.71"/>
   <path class="fil8" d="M57.65 106.54c-0.45,1.23 -1.23,2.38 -2.36,3.04l10.65 2.18c-0.22,-0.89 -0.33,-1.81 -0.33,-2.73 0,-0.68 0.06,-1.36 0.18,-2.03 0.07,-0.23 0.1,-0.48 0.1,-0.73 0,-0.15 -0.01,-0.29 -0.03,-0.44 -0.2,-0.77 -1.07,-1.14 -1.85,-1.32 -1.95,-0.45 -3.67,-0.68 -5.47,-1.54 -0.56,0.94 -0.48,2.48 -0.89,3.57z"/>
   <path class="fil7" d="M55.2 106.7c1.08,-0.49 2.25,-0.74 3.43,-0.74 1.34,0 2.65,0.32 3.83,0.93 1.37,0.72 2.5,1.8 3.61,2.88 1.03,0.98 2.12,2.12 2.19,3.54 0.04,0.69 -0.18,1.36 -0.29,2.04 -0.04,0.31 -0.06,0.63 -0.06,0.94 0,2.57 1.44,4.93 3.73,6.1 0.84,1.41 1.02,3.12 1.03,4.76 0.05,6.23 -1.92,12.54 -0.51,18.62 0.33,1.42 0.84,2.8 1.12,4.24 0.37,1.86 0.35,3.77 0.55,5.65 0.2,2.04 0.66,4.06 1.36,5.99 -0.47,0.73 -1.43,1.02 -2.3,0.96 -0.87,-0.06 -1.68,-0.44 -2.46,-0.84 -3.76,-1.92 -7.2,-4.45 -11.09,-6.09 -2.57,-1.08 -5.31,-1.75 -7.81,-3 -2.49,-1.25 -4.82,-3.23 -5.58,-5.91 -0.33,-1.16 -0.35,-2.39 -0.37,-3.59 -0.07,-5.09 -0.14,-10.22 0.96,-15.19 0.98,-4.37 2.86,-8.56 3.27,-13.02 0.13,-1.45 0.13,-3.01 0.95,-4.22 1.15,-1.72 3.62,-2.16 4.44,-4.05z"/>
   <path class="fil7" d="M60.23 100.29c0.45,-0.59 1.33,-0.67 2.05,-0.5 0.73,0.18 1.4,0.55 2.13,0.69 0.11,0.03 0.23,0.05 0.34,0.05 0.23,0 0.46,-0.07 0.66,-0.19 0.25,-0.25 0.41,-0.59 0.43,-0.95 0.16,-0.99 0.25,-2 0.25,-3 0,-0.54 -0.03,-1.08 -0.08,-1.62 -0.01,-0.08 -0.02,-0.16 -0.02,-0.24 0,-0.14 0.03,-0.28 0.07,-0.41 0.18,-0.43 0.73,-0.54 1.18,-0.68 1.44,-0.48 2.41,-1.84 2.41,-3.35 0,-0.09 0,-0.18 -0.01,-0.27 -0.01,-0.38 -0.17,-0.74 -0.44,-1 -0.31,-0.25 -0.75,-0.27 -1.15,-0.27 -2.07,-0.02 -4.15,-0.02 -6.22,0 -0.76,0.01 -1.57,0.02 -2.23,0.41 -0.49,0.28 -0.86,0.73 -1.3,1.09 -1.15,0.93 -2.71,1.12 -4.11,1.59 -0.68,0.2 -1.3,0.57 -1.8,1.08 -0.46,0.53 -0.69,1.32 -0.39,1.96 0.15,0.27 0.32,0.53 0.5,0.77 0.82,1.32 0.27,3.04 0.4,4.59 0.15,1.94 3.02,5.08 4.96,5.54 3.14,0.74 1.33,-4.02 2.37,-5.29z"/>
   <path class="fil7" d="M55.88 185.27c0.2,1.41 0.45,2.83 0.38,4.26 -0.09,1.99 -0.81,3.91 -0.94,5.9 -0.1,1.49 0.13,2.99 -0.08,4.47 -0.13,0.94 -0.44,1.85 -0.63,2.79 -0.15,0.73 -0.22,1.49 -0.22,2.24 0,2.36 0.73,4.67 2.08,6.6 0.13,0.22 0.31,0.4 0.53,0.52 0.17,0.07 0.35,0.1 0.53,0.1 0.05,0 0.09,0 0.14,-0.01 2.23,-0.04 4.48,-0.25 6.69,-0.61 0.17,0 0.32,-0.07 0.43,-0.19 0.05,-0.07 0.09,-0.16 0.1,-0.25 0.41,-2.11 -0.53,-4.23 -0.77,-6.36 -0.25,-2.28 0.3,-4.57 0.84,-6.8 0.24,-1.1 0.56,-2.19 0.92,-3.25 0.26,-0.72 0.58,-1.42 0.81,-2.15 0.32,-1.14 0.52,-2.32 0.58,-3.51 0.16,-1.87 0.25,-3.75 0.26,-5.63 0,-0.24 0.01,-0.48 0.01,-0.72 0,-1.54 -0.16,-3.09 -0.46,-4.61 -0.5,-2.21 -1.52,-4.27 -2.53,-6.31 -0.54,0.13 -1.05,0.38 -1.5,0.71 -1.3,0.85 -2.67,1.61 -4.08,2.26 -0.95,0.44 -2.8,0.75 -3.4,1.67 -0.59,0.91 -0.21,2.75 -0.16,3.75 0.07,1.72 0.23,3.42 0.47,5.13z"/>
   <path class="fil2" d="M55.88 185.27c0.2,1.41 0.45,2.83 0.38,4.26 -0.09,1.99 -0.81,3.91 -0.94,5.9 -0.1,1.49 0.13,2.99 -0.08,4.47 -0.13,0.94 -0.44,1.85 -0.63,2.79 -0.15,0.73 -0.22,1.49 -0.22,2.24 0,2.36 0.73,4.67 2.08,6.6 0.13,0.22 0.31,0.4 0.53,0.52 0.17,0.07 0.35,0.1 0.53,0.1 0.05,0 0.09,0 0.14,-0.01 2.23,-0.04 4.48,-0.25 6.69,-0.61 0.17,0 0.32,-0.07 0.43,-0.19 0.05,-0.07 0.09,-0.16 0.1,-0.25 0.41,-2.11 -0.53,-4.23 -0.77,-6.36 -0.25,-2.28 0.3,-4.57 0.84,-6.8 0.24,-1.1 0.56,-2.19 0.92,-3.25 0.26,-0.72 0.58,-1.42 0.81,-2.15 0.32,-1.14 0.52,-2.32 0.58,-3.51 0.16,-1.87 0.25,-3.75 0.26,-5.63 0,-0.24 0.01,-0.48 0.01,-0.72 0,-1.54 -0.16,-3.09 -0.46,-4.61 -0.5,-2.21 -1.52,-4.27 -2.53,-6.31 -0.54,0.13 -1.05,0.38 -1.5,0.71 -1.3,0.85 -2.67,1.61 -4.08,2.26 -0.95,0.44 -2.8,0.75 -3.4,1.67 -0.59,0.91 -0.21,2.75 -0.16,3.75 0.07,1.72 0.23,3.42 0.47,5.13z"/>
   <path class="fil7" d="M45.46 155.04c-1.02,2.75 0.48,5.73 1.79,8.36 3.22,6.49 5.46,13.41 7.68,20.3 0.17,0.51 0.33,1.08 0.15,1.59 -0.16,0.36 -0.42,0.67 -0.75,0.89 -1.54,1.16 -3.49,1.58 -5.32,2.18 -1.76,0.59 -3.45,1.39 -5.03,2.37 -1.33,0.82 -2.56,1.76 -3.8,2.71l-3.94 3.01c-0.26,0.17 -0.48,0.38 -0.66,0.63 -0.38,0.6 -0.23,1.38 -0.04,2.06 0.5,1.8 1.15,3.57 1.93,5.26 0.13,0.37 0.38,0.7 0.7,0.92 0.62,0.33 1.37,-0.11 1.84,-0.63 0.47,-0.51 0.87,-1.15 1.54,-1.38 0.66,-0.22 1.38,0.05 2.07,-0.05 1.12,-0.15 1.86,-1.18 2.67,-1.97 3.29,-3.23 8.77,-2.99 12.39,-5.85 0.52,-0.46 1.08,-0.9 1.66,-1.29 0.61,-0.36 1.31,-0.56 1.94,-0.88 1.93,-0.97 3.14,-2.98 3.79,-5.04 0.65,-2.06 0.84,-4.24 1.3,-6.35 0.25,-1.09 0.56,-2.17 0.67,-3.28 0.03,-0.39 0.04,-0.78 0.04,-1.17 0,-0.64 -0.04,-1.29 -0.11,-1.93l-1.3 -16.15c-0.11,-1.31 -0.22,-2.63 -0.42,-3.93 -3.88,0.14 -7.75,0.3 -11.63,0.34 -3.09,0.04 -6.23,0.25 -9.16,-0.72z"/>
   <path class="fil7" d="M44.04 158.82c0.52,0.84 1.8,0.82 2.68,0.36 0.89,-0.46 1.57,-1.24 2.45,-1.7 1.19,-0.62 2.6,-0.6 3.93,-0.56 2.12,0.06 4.26,0.13 6.3,0.71 2.11,0.6 4.16,1.75 6.34,1.52 0.38,-0.04 0.79,-0.15 1,-0.47 0.11,-0.21 0.17,-0.44 0.17,-0.68 0,-0.02 0,-0.05 0,-0.07l0.07 -1.91c0.01,-0.07 0.01,-0.15 0.01,-0.22 0,-0.26 -0.06,-0.51 -0.16,-0.74 -0.19,-0.25 -0.44,-0.44 -0.73,-0.55 -3.1,-1.51 -6.64,-1.78 -10.08,-1.9 -1.75,-0.06 -3.5,-0.09 -5.25,-0.08 -1.49,0.01 -3.28,-0.2 -4.72,0.19 -1.94,0.54 -3,4.51 -2.01,6.1z"/>
   <path class="fil5" d="M63.51 108.96c-4.06,-0.04 -7.74,-2.72 -11.81,-2.79 -0.07,0 -0.14,0 -0.21,0 -0.42,0 -0.84,0.08 -1.22,0.25 -0.57,0.29 -0.94,0.84 -1.37,1.3 -1.2,1.3 -2.94,2 -4.18,3.27 -1.15,1.19 -1.8,2.96 -1.34,4.56 0.46,1.6 2.18,2.82 3.8,2.44 0.65,-2.11 1.99,-3.94 3.81,-5.18 0.95,-0.61 1.95,-1.14 2.98,-1.57 1.83,-0.83 3.87,-1.67 5.78,-1.05 0.7,0.27 1.36,0.63 1.97,1.08l3.17 2.13c-0.37,-1.46 -0.7,-3.1 -1.38,-4.44z"/>
   <path class="fil5" d="M46.71 116.57c-0.54,0.68 0.24,1.65 0.12,2.51 -0.08,0.57 -0.55,1 -0.74,1.54 -0.2,0.56 -0.1,1.18 -0.17,1.76 -0.08,0.43 -0.19,0.85 -0.34,1.26 -0.34,1.22 -0.59,2.48 -0.72,3.73l-0.71 5.32c-0.12,0.79 -0.2,1.6 -0.22,2.41 0,0.14 0.01,0.28 0.01,0.43 0,0.46 -0.05,0.92 -0.13,1.37 -0.16,0.58 -0.51,1.09 -0.74,1.64 -0.24,0.56 -0.35,1.23 -0.03,1.74 -1.06,0.88 -1.38,2.62 -0.64,3.79 0.15,0.18 0.26,0.38 0.33,0.6 0.01,0.07 0.02,0.14 0.02,0.2 0,0.24 -0.06,0.47 -0.16,0.69l-0.72 1.91c-0.19,0.49 -0.24,1.24 0.27,1.35 -0.43,0.44 -0.76,0.96 -0.97,1.54 -0.08,0.2 -0.11,0.41 -0.11,0.62 0,0.4 0.13,0.79 0.37,1.1 0.17,0.16 0.33,0.35 0.45,0.55 0.02,0.12 0.04,0.23 0.04,0.35 0,0.18 -0.03,0.35 -0.1,0.51 -0.06,0.26 -0.1,0.53 -0.1,0.79 0,0.6 0.17,1.19 0.5,1.7 0.41,0.62 1.1,0.99 1.85,0.99 0.13,0 0.26,-0.01 0.38,-0.03 1.44,-0.33 2.74,-0.84 4.19,-0.57 3.12,0.57 6.25,1.14 9.28,2.11 3.45,1.1 6.79,2.72 10.4,3.06 0.07,0.01 0.14,0.02 0.21,0.02 0.17,0 0.34,-0.05 0.49,-0.13 0.18,-0.17 0.3,-0.41 0.32,-0.66 0.37,-1.74 0.74,-3.49 1.12,-5.23 0.44,-1.92 0.79,-3.9 1.02,-5.86 0.13,-1.27 0.16,-2.55 0.2,-3.83l0.29 -10.16c0.02,-0.3 0.04,-0.61 0.04,-0.91 0,-1.2 -0.21,-2.39 -0.63,-3.51l-1.65 -5.28c-0.94,-3.01 -3.11,-5.68 -3.88,-8.74 -0.49,-1.94 -0.85,-4.02 -2.16,-5.53 -1.86,-2.15 -5.09,-2.49 -7.91,-2.12 -1.28,0.17 -2.56,0.46 -3.67,1.12 -1.27,0.76 -2.21,1.97 -3.12,3.15 -0.75,0.97 -1.51,1.75 -2.28,2.7z"/>
   <path class="fil8" d="M53.3 146.48c0.24,1 0.72,1.93 1.02,2.91 0.5,1.65 0.46,3.43 0.96,5.08 0.21,0.69 0.52,1.36 0.67,2.07 0.35,1.65 -0.16,3.36 -0.8,4.92 -0.64,1.57 -1.41,3.11 -1.62,4.78 -0.15,1.18 0.06,2.52 0.97,3.28 0.95,0.8 2.32,0.74 3.55,0.64 0.44,-0.01 0.88,-0.1 1.29,-0.27 0.94,-0.44 1.33,-1.56 1.55,-2.58 0.74,-3.4 0.53,-6.94 0.32,-10.42l-0.56 -9.1c-0.11,-1.75 -0.23,-3.54 -0.77,-5.23 -0.19,-0.61 -0.54,-1.85 -1.1,-2.24 -0.55,-0.38 -2.13,-0.4 -2.82,-0.43 -3.21,-0.15 -3.18,4.34 -2.66,6.59z"/>
   <path class="fil7" d="M56.87 112.87c-0.66,-0.35 -1.49,-0.2 -2.12,0.18 -0.62,0.42 -1.15,0.94 -1.59,1.54 -1.42,1.74 -2.92,3.73 -2.71,5.96 0.08,0.83 0.4,1.62 0.61,2.44 0.96,3.55 -0.1,7.32 0.02,11 0.07,2.12 0.54,4.22 1,6.29 0.09,0.43 0.24,0.92 0.65,1.06 0.31,0.11 0.64,-0.03 0.95,-0.15 0.83,-0.3 1.72,-0.46 2.61,-0.46 1.54,0 3.03,0.46 4.29,1.34 0.76,-0.41 0.48,-1.7 0.31,-2.54 -0.51,-2.52 0.18,-5.11 1.02,-7.54 0.83,-2.42 1.83,-4.85 1.97,-7.41 0.16,-2.9 -0.8,-5.73 -1.75,-8.48 -0.21,-0.6 -0.44,-1.23 -0.92,-1.64 -0.41,-0.31 -0.88,-0.53 -1.38,-0.64 -1.01,-0.3 -2.03,-0.47 -2.96,-0.95z"/>
   <path class="fil6" d="M121.2 120.01l-6.77 15.92c-0.14,0.4 -0.37,0.7 -0.67,0.92 -0.3,0.22 -0.63,0.33 -0.99,0.33 -0.56,0 -0.98,-0.15 -1.25,-0.47 -0.27,-0.31 -0.41,-0.7 -0.41,-1.16 0,-0.18 0.03,-0.38 0.1,-0.59l7.8 -18.74c0.17,-0.42 0.42,-0.74 0.77,-0.97 0.34,-0.23 0.71,-0.32 1.11,-0.28 0.37,0 0.72,0.11 1.05,0.33 0.32,0.22 0.56,0.52 0.7,0.92l7.71 18.36c0.1,0.27 0.16,0.52 0.16,0.75 0,0.57 -0.19,1.02 -0.55,1.35 -0.37,0.34 -0.77,0.5 -1.21,0.5 -0.37,0 -0.71,-0.11 -1.02,-0.34 -0.3,-0.23 -0.53,-0.55 -0.7,-0.94l-6.74 -15.7 0.91 -0.19zm-5.8 12.1l1.73 -3.61 8.46 0 0.59 3.61 -10.78 0zm39.85 -12.16c1.46,0 2.77,0.37 3.93,1.11 1.16,0.74 2.08,1.76 2.76,3.06 0.67,1.29 1.01,2.8 1.01,4.51 0,1.71 -0.34,3.22 -1.01,4.53 -0.68,1.3 -1.59,2.33 -2.73,3.07 -1.14,0.74 -2.42,1.11 -3.84,1.11 -0.83,0 -1.62,-0.14 -2.35,-0.41 -0.73,-0.27 -1.37,-0.61 -1.93,-1.03 -0.55,-0.42 -0.98,-0.84 -1.28,-1.27 -0.3,-0.43 -0.45,-0.79 -0.45,-1.08l0.97 -0.41 0 2.29c0,0.54 -0.18,1 -0.54,1.36 -0.35,0.37 -0.8,0.55 -1.34,0.55 -0.55,0 -1,-0.18 -1.35,-0.53 -0.36,-0.36 -0.53,-0.82 -0.53,-1.38l0 -19.68c0,-0.54 0.17,-1 0.53,-1.36 0.35,-0.37 0.8,-0.55 1.35,-0.55 0.54,0 0.99,0.18 1.34,0.55 0.36,0.36 0.54,0.82 0.54,1.36l0 7.96 -0.54 -0.28c0,-0.27 0.15,-0.6 0.44,-0.99 0.3,-0.39 0.69,-0.77 1.19,-1.16 0.5,-0.39 1.08,-0.7 1.74,-0.95 0.66,-0.26 1.35,-0.38 2.09,-0.38zm-0.47 3.45c-0.92,0 -1.73,0.23 -2.42,0.69 -0.69,0.46 -1.22,1.08 -1.61,1.86 -0.39,0.78 -0.58,1.68 -0.58,2.68 0,0.98 0.19,1.87 0.58,2.68 0.39,0.8 0.92,1.43 1.61,1.89 0.69,0.46 1.5,0.69 2.42,0.69 0.92,0 1.71,-0.23 2.39,-0.69 0.68,-0.46 1.21,-1.09 1.6,-1.89 0.39,-0.81 0.58,-1.7 0.58,-2.68 0,-1 -0.19,-1.9 -0.58,-2.68 -0.39,-0.78 -0.92,-1.4 -1.6,-1.86 -0.68,-0.46 -1.47,-0.69 -2.39,-0.69zm32.32 -3.45c1.19,0 2.23,0.12 3.12,0.38 0.88,0.25 1.57,0.6 2.06,1.05 0.49,0.44 0.74,0.98 0.74,1.61 0,0.42 -0.13,0.81 -0.38,1.17 -0.25,0.37 -0.61,0.55 -1.09,0.55 -0.34,0 -0.61,-0.04 -0.83,-0.14 -0.22,-0.09 -0.42,-0.21 -0.58,-0.36 -0.17,-0.15 -0.37,-0.28 -0.6,-0.41 -0.21,-0.12 -0.53,-0.22 -0.95,-0.29 -0.43,-0.08 -0.75,-0.11 -0.96,-0.11 -1.07,0 -1.97,0.23 -2.71,0.69 -0.74,0.46 -1.31,1.08 -1.71,1.86 -0.39,0.78 -0.59,1.69 -0.59,2.71 0,1 0.2,1.9 0.61,2.68 0.41,0.78 0.97,1.4 1.69,1.86 0.72,0.46 1.55,0.69 2.49,0.69 0.52,0 0.97,-0.03 1.35,-0.09 0.37,-0.06 0.69,-0.16 0.94,-0.28 0.29,-0.17 0.55,-0.35 0.78,-0.54 0.23,-0.18 0.58,-0.28 1.04,-0.28 0.54,0 0.96,0.17 1.25,0.52 0.29,0.34 0.44,0.77 0.44,1.27 0,0.52 -0.29,1 -0.88,1.42 -0.58,0.43 -1.35,0.78 -2.3,1.04 -0.95,0.26 -1.98,0.39 -3.09,0.39 -1.65,0 -3.08,-0.38 -4.29,-1.14 -1.21,-0.77 -2.15,-1.81 -2.81,-3.12 -0.65,-1.32 -0.98,-2.79 -0.98,-4.42 0,-1.71 0.35,-3.22 1.05,-4.53 0.7,-1.3 1.67,-2.33 2.91,-3.07 1.24,-0.74 2.67,-1.11 4.28,-1.11z"/>
  </g>
 </g>
</svg>
