<?xml version="1.0" encoding="UTF-8"?>
<!DOCTYPE svg PUBLIC "-//W3C//DTD SVG 1.1//EN" "http://www.w3.org/Graphics/SVG/1.1/DTD/svg11.dtd">
<!-- Creator: CorelDRAW 2020 (64-Bit) -->
<svg xmlns="http://www.w3.org/2000/svg" xml:space="preserve" width="512px" height="424px" version="1.1" style="shape-rendering:geometricPrecision; text-rendering:geometricPrecision; image-rendering:optimizeQuality; fill-rule:evenodd; clip-rule:evenodd"
viewBox="0 0 500.13 414.02"
 xmlns:xlink="http://www.w3.org/1999/xlink"
 xmlns:xodm="http://www.corel.com/coreldraw/odm/2003">
 <defs>
  <style type="text/css">
   <![CDATA[
    .fil12 {fill:#2F2E41;fill-rule:nonzero}
    .fil2 {fill:#38364D;fill-rule:nonzero}
    .fil8 {fill:#3F3D56;fill-rule:nonzero}
    .fil3 {fill:#3F3D56;fill-rule:nonzero}
    .fil5 {fill:#7F77FF;fill-rule:nonzero}
    .fil9 {fill:#CFCCE0;fill-rule:nonzero}
    .fil6 {fill:#DD9933;fill-rule:nonzero}
    .fil4 {fill:#DD9933;fill-rule:nonzero}
    .fil0 {fill:#E6E6E6;fill-rule:nonzero}
    .fil11 {fill:#FFB8B8;fill-rule:nonzero}
    .fil13 {fill:#FFB9B9;fill-rule:nonzero}
    .fil7 {fill:white;fill-rule:nonzero}
    .fil1 {fill:#DD9933;fill-rule:nonzero;fill-opacity:0.101961}
    .fil14 {fill:black;fill-rule:nonzero;fill-opacity:0.101961}
    .fil10 {fill:black;fill-rule:nonzero;fill-opacity:0.200000}
   ]]>
  </style>
 </defs>
 <g id="Layer_x0020_1">
  <metadata id="CorelCorpID_0Corel-Layer"/>
  <g id="_2039576069264">
   <ellipse class="fil0" cx="405.86" cy="406.1" rx="66.1" ry="7.92"/>
   <path class="fil1" d="M241.31 378.21c121.28,-9.23 265.91,-103.2 258.54,-199.96 -7.36,-96.75 -147.43,-186.83 -268.71,-177.6 -121.28,9.23 -191.09,190.06 -183.72,286.81 7.36,96.76 72.62,99.98 193.89,90.75z"/>
   <polygon class="fil2" points="0,288.24 344.41,288.24 344.41,82.09 344.41,67.67 344.41,67.46 0,67.46 0,67.67 0,82.09 "/>
   <rect class="fil3" x="9.85" y="95.33" width="324.71" height="179.86"/>
   <circle class="fil4" cx="10.73" cy="74.95" r="2.71"/>
   <circle class="fil4" cx="21.02" cy="74.95" r="2.71"/>
   <circle class="fil4" cx="31.31" cy="74.95" r="2.71"/>
   <path class="fil5" d="M194.39 140.62c-0.06,0.2 -0.09,0.4 -0.1,0.61l0.1 -0.61z"/>
   <path class="fil5" d="M152.86 159.62c-0.02,-0.45 -0.1,-0.64 -0.17,-0.67 0.05,0.42 0.1,0.77 0.17,0.67z"/>
   <path class="fil5" d="M152.02 169.16c-0.01,0.2 -0.03,0.38 -0.05,0.6 -0.02,-0.07 -0.03,-0.15 -0.03,-0.22 0,-0.13 0.03,-0.26 0.08,-0.38z"/>
   <path class="fil5" d="M194.29 141.23l-0.25 1.59c0.26,0.11 0.2,-0.81 0.25,-1.59z"/>
   <path class="fil5" d="M208.61 126.45l0.49 0c0.14,-0.09 0.28,-0.2 0.4,-0.33l-0.89 0.33z"/>
   <path class="fil5" d="M227.51 127.29c0.04,-0.23 0.21,-0.42 0.44,-0.47 -0.13,-0.18 -0.27,-0.34 -0.44,-0.49 -0.23,-0.03 0.02,0.66 0,0.96z"/>
   <path class="fil5" d="M247.28 113.81c0.07,-0.01 0.13,-0.02 0.18,-0.03l-0.18 0.03z"/>
   <path class="fil5" d="M246.89 113.88l0.39 -0.07c-0.13,0.02 -0.28,0.04 -0.39,0.07z"/>
   <path class="fil5" d="M193.49 128.08c-0.02,0 -0.03,-0.01 -0.05,-0.01 -0.08,0 -0.16,0.05 -0.2,0.12 0.09,0.06 0.17,0 0.25,-0.11z"/>
   <path class="fil5" d="M271.38 114.58l0.03 0.33c0.13,0.04 0.26,0.06 0.39,0.07l-0.42 -0.4z"/>
   <path class="fil5" d="M150.5 180.75c0.01,0 0.01,0 0,0.01 0,0.01 -0.01,0.01 -0.01,0.02 0,0.01 -0.08,0.02 -0.13,0.02 -0.03,0 -0.06,-0.01 -0.08,-0.01 0.07,-0.01 0.14,-0.02 0.2,-0.03 0.01,-0.01 0.02,-0.01 0.02,-0.01z"/>
   <path class="fil5" d="M95.39 256.55c-1.93,-0.61 3.14,-0.79 0.23,-1.47 0.27,0.27 -2.64,1.07 -0.23,1.47z"/>
   <path class="fil5" d="M110.81 189.63c-0.07,0.16 -0.17,0.31 -0.3,0.43 0.14,-0.32 0.23,-0.42 0.3,-0.43z"/>
   <path class="fil5" d="M139.37 182.18c-0.26,-0.01 -0.53,-0.04 -0.78,-0.09l0.78 0.09z"/>
   <path class="fil5" d="M100.59 192.06c-0.14,-0.03 -0.27,-0.04 -0.41,-0.04 -0.13,0 -0.27,0.01 -0.4,0.04 0.05,0.03 0.11,0.06 0.17,0.08 0.15,-0.06 0.31,-0.09 0.48,-0.09 0.05,0 0.11,0 0.16,0.01l0 0z"/>
   <path class="fil5" d="M100.59 192.06c0.1,0.01 0.21,0.03 0.34,0.05 -0.11,-0.02 -0.23,-0.04 -0.34,-0.05l0 0z"/>
   <path class="fil5" d="M83.72 192.12c0.1,0.05 0.22,0.09 0.32,0.13 0.17,-0.01 0.37,-0.02 0.55,-0.03l-0.87 -0.1z"/>
   <path class="fil5" d="M98.01 192.58c0,0.02 -0.02,0.04 -0.04,0.05 0.02,-0.03 0.04,-0.05 0.04,-0.05z"/>
   <path class="fil5" d="M268.57 255.55c-0.11,-0.01 -0.22,-0.02 -0.34,-0.03 0.13,0.02 0.24,0.03 0.34,0.03z"/>
   <path class="fil5" d="M273.21 239.76c0,0 -0.01,0 -0.01,0 0,0.02 0.01,0.01 0.01,0z"/>
   <path class="fil5" d="M137.91 182.63c0.17,-0.04 0.34,-0.09 0.51,-0.16 0.36,0.1 -0.13,0.09 -0.51,0.16z"/>
   <path class="fil5" d="M272.71 179.44c0.03,-0.12 0.05,-0.25 0.09,-0.41 -0.04,0.14 -0.06,0.27 -0.09,0.41z"/>
   <path class="fil6" d="M273.59 231.57c0.06,-0.12 0.13,-0.22 0.22,-0.31l0.07 0.24c0.02,-0.15 0.03,-0.31 0.03,-0.46 0,-0.35 -0.04,-0.7 -0.13,-1.04 0.11,-0.65 0.17,-1.31 0.19,-1.97 0.52,-0.28 0.28,-2.8 0.31,-4.02 -0.69,0.1 -0.58,-1.46 -1.13,-0.03 0.04,-0.09 0.06,0.33 0.09,1.07 0.01,0.18 0.04,0.35 0.07,0.52 -0.01,-0.02 -0.03,-0.05 -0.06,-0.08 0.02,0.8 0.03,1.84 0.05,3.02 -0.29,-0.63 -0.43,-1.33 -0.43,-2.03 0,-0.43 0.05,-0.86 0.17,-1.28 -0.44,-0.62 -0.9,-1.31 -1.11,-1.7 0.96,-1.66 1.48,-4.88 2.07,-5.32 -0.39,-3.72 -0.26,-8.75 -1.55,-11.09 -0.17,-1.06 0.37,-1.22 0.58,-1.61 0.12,0.61 0.1,1.33 0.29,1.67 -0.33,-2.12 -0.13,-6.26 -1.03,-6.77 0.4,-2.66 0.83,1.5 0.68,-2.16l0.28 0.49c1.42,-7.07 -2.18,-11.55 -0.54,-19.28 -0.07,0.29 -0.12,0.46 -0.23,0.54 0.82,-9.09 -0.77,-18.75 0.53,-27.72 0.26,-2.55 -0.32,-2.83 -0.76,-4.39l0.74 -0.55 -0.85 -2.67c-0.63,-3.77 1.81,-6.53 0.63,-11.31l-0.5 0.61c0.1,-1.71 -0.29,-5.44 0.28,-5.15 -0.21,-0.22 -0.32,-0.52 -0.32,-0.82 0,-0.14 0.02,-0.28 0.07,-0.41l0.38 -0.05 -0.66 -4.22c0.28,-3.27 1.53,0.51 1.61,-4.26 -0.15,-1.77 -1.13,-5.05 -1.39,-4.38 -0.01,0.71 -0.24,1.82 -0.62,1.88l-0.2 -1.62c-0.08,-0.02 -0.15,-0.04 -0.22,-0.07l0 -0.26 -0.7 0c-0.15,-0.06 -0.3,-0.09 -0.46,-0.09 -0.16,0 -0.31,0.03 -0.46,0.09l-17.55 0 0.19 -0.19 -0.58 0.19 -2.47 0c0.07,-0.14 0.31,-0.27 0.79,-0.32 -1.8,-0.51 -1.59,0.36 -3.13,-0.21 -0.17,-0.08 -0.1,-0.13 0.06,-0.17l-1.76 0.3c0.35,-0.21 -0.29,-0.72 0.79,-0.57 -3.16,-0.59 -5.09,0.76 -6.28,-0.01l0.27 -0.06c-3.28,0.25 -1.89,0.54 -2.36,1.04l-2.05 0 -0.41 -0.34 -0.55 -0.46c-0.19,-0.17 -0.4,-0.33 -0.62,-0.46 -0.16,0.24 -0.32,0.49 -0.45,0.74 -0.51,-0.02 -1.55,-0.07 -1.5,-0.38 -0.9,0.26 -0.71,0.34 -0.5,0.42 0.24,0.08 0.52,0.15 0.16,0.4 -0.57,-0.14 -1.16,-0.22 -1.75,-0.24 -0.06,1.08 0.02,2.4 -0.01,3.4 -0.02,1.05 -0.15,1.73 -0.63,1.94 0.57,0.77 0.45,-2.08 0.84,0.24 -1.28,0.65 0.22,2.71 -0.37,4.64 -0.66,-0.56 -0.31,-2.48 -0.9,-0.48 0.18,0.2 0.32,0.44 0.4,0.7 0.03,0.15 0.05,0.3 0.05,0.45 0,0.11 -0.01,0.23 -0.03,0.34 -0.09,0.47 -0.22,0.94 -0.4,1.38 -0.19,-0.05 -0.39,-0.07 -0.58,-0.07 -0.1,0 -0.2,0 -0.3,0.02 0.29,0.44 -0.37,0.53 -1.35,0.55 -0.59,0 -1.27,0.01 -1.97,0.01 -0.73,0.01 -1.48,0.03 -2.18,0.1 0.18,-0.3 -5.29,-0.48 -7.91,-0.81l0.08 -0.15c-0.51,0.9 -3.2,0.73 -5.17,0.92 0.08,-0.54 0.43,-0.75 1.5,-0.99l-1.85 0c-0.44,0.29 -1.01,0.45 -2.21,0.55l0.46 -0.68c-1.23,0.02 -2.46,0.22 -3.79,0.36 -0.67,0.07 -1.35,0.12 -2.07,0.13 -0.35,0 -0.72,-0.01 -1.1,-0.03 -0.18,-0.01 -0.37,-0.02 -0.57,-0.04 -0.21,-0.03 -0.43,-0.05 -0.64,-0.08 -0.07,0.16 0.17,0.35 0.32,0.55 0.19,0.19 0.36,0.39 0.51,0.62 0.05,0.07 0.08,0.15 0.08,0.24 0,0.06 -0.01,0.12 -0.04,0.18l-1.71 0c0.01,-0.19 0.12,-0.36 0.48,-0.45 -0.33,0.1 -0.67,0.15 -1.01,0.15 -0.18,0 -0.36,-0.02 -0.54,-0.04 0.39,-0.19 0.85,-0.38 1.36,-0.57 -1.86,-0.25 -0.76,0.47 -2.07,0.42 -0.27,-0.48 -1.25,-0.34 -1.36,-0.72 0.37,-0.05 1.42,0.19 1.89,0.01 -0.97,-0.05 -2.12,-0.17 -3.18,-0.32 -0.06,0.47 -0.2,0.93 -0.42,1.35 0.27,0.02 0.65,0.48 0.71,1.74 0.02,1.61 -0.13,1.87 -0.31,1.98 -0.09,0.04 -0.18,0.05 -0.28,0.18 -0.05,0.08 -0.1,0.18 -0.13,0.27 -0.05,0.14 -0.09,0.27 -0.11,0.41 0.34,0.6 -0.01,2.16 0.71,2.21 0,0.72 -0.34,0.85 -0.54,1.13 0.32,1.27 0.1,5.94 0.87,4.51l0.04 -0.33c0.02,0.06 0.02,0.13 0.04,0.21 0.16,1.03 0.25,2.08 0.25,3.13 0,0.23 -0.01,0.47 -0.02,0.69 -0.03,1.07 -0.13,2.08 -0.23,2.97 -0.72,-0.06 -1.38,-0.11 -2,-0.14 -0.32,-0.01 -0.62,-0.02 -0.92,-0.01l-0.59 0.01c-0.21,0.02 -0.42,0.03 -0.62,0.04l0.01 -0.24c-2.48,0.27 -5.51,0.16 -7.27,0.68 -0.73,0 -1.72,-0.44 -1.41,-0.73 -1.89,0.18 -2.1,0.45 -4.82,0.06 1.89,-0.42 -0.66,-0.38 1.94,-0.31 -2.45,-0.21 -3.01,-0.6 -5.65,0.06 0.9,-0.62 -1.84,-0.78 -3.01,-0.59l1.72 0.44c-0.54,0.03 -1.1,0.04 -1.64,0.04 -0.66,0 -1.32,-0.02 -1.98,-0.06l0.63 -0.81c-2.51,-0.5 -4.77,-0.07 -6.89,0.26 -1.01,0.19 -2.04,0.3 -3.07,0.32l-0.37 0 -0.48 -0.03c-0.36,-0.02 -0.74,-0.05 -1.11,-0.09 -0.82,-0.1 -1.65,-0.25 -2.46,-0.43 -0.88,0.28 0.3,0.38 1.38,0.49 1.11,0.11 2.12,0.24 1.36,0.57 -1.62,-0.1 -3.24,-0.31 -4.82,-0.62 -0.32,1.07 -0.54,2.17 -0.67,3.27 -0.05,0.64 -0.07,1.22 -0.07,1.74 0,0.25 0,0.5 0.02,0.72 0,0.1 0.01,0.26 0.02,0.3 0.01,0.06 0.01,0.13 0.03,0.19 0.08,0.42 0.21,0.83 0.39,1.22 0.36,0.77 0.54,1.6 0.54,2.44 0,0.25 -0.01,0.5 -0.05,0.75 0.29,-0.42 1.07,-0.82 1.34,1.65 -0.06,1.37 -0.48,2.12 -0.86,2.19 -0.21,0.04 -0.4,-0.13 -0.51,-0.51 -0.04,-0.1 -0.06,-0.2 -0.08,-0.3 -0.02,-0.55 0.07,-0.82 0.17,-0.8 -0.11,-0.74 -0.23,-1.72 -0.54,-0.81l0.28 0.3c-0.09,0.42 -0.15,0.85 -0.18,1.28 -0.13,1.31 -0.21,2.85 -0.56,2.3 0.24,1.5 0.42,0.98 0.56,-0.01 -0.3,2.64 0.04,4.29 -0.23,7.15 0.16,-0.49 0.51,-0.94 0.5,-0.45 -0.36,4.47 0.56,1.97 0.68,5 -0.44,1.73 -1.05,-0.62 -0.69,2.43 -0.3,1.87 -0.76,0.4 -1,-0.34 0.12,0.64 0.18,1.3 0.18,1.95 0,0.63 -0.06,1.27 -0.17,1.89 -0.02,0.08 -0.03,0.17 -0.04,0.25 -0.01,0.05 -0.02,0.12 -0.03,0.18l-0.02 0.1c0,0.03 -0.01,0.02 -0.01,0.03l-0.04 0.05c-0.05,0.05 -0.1,0.1 -0.15,0.13 -0.07,0.04 -0.13,0.09 -0.2,0.14 -0.04,-0.08 -0.1,-0.15 -0.17,-0.21 0.05,0.06 0.08,0.14 0.08,0.21 0,0.02 0,0.03 0,0.04 0.06,0.04 0.12,0.08 0.18,0.11 0.13,0.06 0.26,0.11 0.4,0.15 -0.1,0.14 -0.1,0.28 -0.29,0.11 -0.03,-0.02 -0.05,-0.04 -0.06,-0.06 0.17,0.26 0.37,0.49 0.6,0.69 0.26,0.26 0.56,0.54 0.27,0.8 -0.24,-0.06 -0.48,-0.09 -0.73,-0.09 -0.17,0 -0.33,0.02 -0.5,0.04 -0.1,0.01 -0.2,0.01 -0.3,0 -0.15,-0.01 -0.31,-0.03 -0.46,-0.05 -0.25,-0.02 -0.48,-0.15 -0.62,-0.35 0.46,0.03 0.79,0.04 1.03,0.03 0.13,0 0.18,-0.02 0.22,-0.05 0.07,-0.06 0.02,-0.17 -0.02,-0.29 -0.09,-0.2 -0.11,-0.42 0.03,-0.54 -0.02,0.01 -0.04,0.01 -0.07,0.01 -0.04,0 -0.08,-0.01 -0.12,-0.02 -0.19,-0.02 -0.38,-0.04 -0.58,-0.05 -0.13,-0.09 0.12,-0.17 0.36,-0.21 -0.27,-0.05 -0.5,-0.09 -0.71,-0.12 -0.2,-0.04 -0.41,-0.06 -0.61,-0.06 -0.21,0 -0.42,0.02 -0.62,0.06 -0.89,0.21 -0.7,0.99 -3.22,0.97 0.45,-0.43 -0.84,-0.82 -1.42,-0.73 1.45,0.01 0.69,0.73 -0.63,1.06 -2.3,-0.34 -2.49,0.25 -3.7,0.21l1.37 0.16c-0.46,0.44 -1.61,0.38 -3.2,0.52 -0.05,-0.11 0.08,-0.17 0.25,-0.22 -1.65,0.26 -3.62,-0.88 -5.79,-0.45 -0.02,0 -0.05,0 -0.07,0 -1.14,-0.29 -0.11,-0.81 -1.12,-1.01 -2.77,0.56 -3,-0.6 -5.92,-0.13 0.85,0.59 0.99,0.44 -1.06,1.01l4.79 -0.41 -3.07 0.85c1.44,0.01 3.05,-0.37 3.92,-0.27 -1.47,0.48 -1.32,0.33 -0.62,0.82 -1.99,-0.88 -3.93,0.51 -6.22,-0.08l0.07 -1.45c-0.7,-0.11 -1.42,-0.17 -2.13,-0.17 -0.76,0 -1.52,0.06 -2.26,0.19l-0.56 0.07 -0.28 0.04 -0.07 0.01 -0.11 0.01 -0.23 0.02c-0.6,0.04 -1.22,0.09 -1.85,0.14 -1.24,0.08 -2.5,0.14 -3.94,0.13 -0.01,0.65 -0.03,1.32 -0.06,2.02l0.23 -1.85 0.18 0.02c-0.02,0.03 -0.05,0.06 -0.09,0.07 0.16,0.68 0.23,1.37 0.23,2.06 0,0.24 -0.01,0.48 -0.02,0.71 0,0.09 -0.01,0.18 -0.01,0.26l0 0.01c-0.01,0.46 -0.02,0.94 -0.03,1.42 0,0.28 0.01,0.56 0.02,0.84 0,0.13 0.01,0.26 0.02,0.4l0.01 0.19 0.02 0.13c-0.48,-0.14 -0.66,0.77 -0.96,1.39 0.09,-0.02 0.13,0.17 0.16,0.48 0.03,0.13 0.05,0.28 0.08,0.47 0.09,0.51 0.33,0.98 0.69,1.35 -0.07,0.07 -0.16,0.14 -0.25,0.19 -0.3,-0.11 -0.6,-0.24 -0.88,-0.38 -0.1,-0.02 -0.19,-0.04 -0.29,-0.04 -0.21,0 -0.41,0.05 -0.6,0.14 -0.06,0.03 -0.13,0.06 -0.19,0.1 -0.05,0.02 -0.11,0.04 -0.16,0.05 -0.07,0.02 -0.14,0.04 -0.2,0.06 -0.27,0.08 -0.53,0.17 -0.78,0.26 -1.04,0.43 -2.16,0.65 -3.29,0.65 -0.15,0 -0.3,0 -0.45,-0.01 1.05,-0.52 -0.53,-0.87 1.8,-1.24 -1.16,-0.01 -2.2,-0.1 -2.22,0.24 -0.11,-0.04 -0.23,-0.06 -0.34,-0.06 -0.02,0 -0.04,0 -0.06,0 -0.58,0 -1.52,0.23 -2.37,0.33 -0.21,0.03 -0.42,0.05 -0.62,0.05 -0.21,0 -0.42,-0.02 -0.62,-0.05 -0.09,-0.01 -0.18,-0.04 -0.27,-0.08 -0.05,0.03 -0.1,0.05 -0.15,0.08 -0.43,0.39 -0.99,0.61 -1.57,0.61 -0.08,0 -0.15,-0.01 -0.22,-0.01 -0.04,-0.02 -0.07,-0.07 -0.07,-0.11 0,-0.03 0.01,-0.06 0.03,-0.08 -0.26,0.2 -1.91,0.31 -0.86,0.81 -1.54,-0.65 -3.61,-0.72 -5.72,-0.69 -2.76,0.03 -5.59,0.24 -7.35,-0.5 -1.26,0.08 -2.65,0.17 -4.02,0.23 -0.68,0.02 -1.36,0.05 -2,0.08 -0.32,0.01 -0.64,0.02 -0.95,0.03 -0.34,0 -0.67,0.01 -0.98,0.02 0.1,-0.08 0.1,-0.14 0.15,-0.17 0.07,-0.03 0.15,-0.04 0.23,-0.04 0.05,0 0.1,0 0.15,0.02 -0.09,-0.01 -0.15,-0.03 -0.26,-0.03 -0.1,-0.01 -0.21,-0.02 -0.31,-0.03 -0.21,-0.01 -0.4,-0.01 -0.58,-0.02 -0.01,0 -0.02,0 -0.03,0 -0.29,0 -0.58,0.02 -0.87,0.05 -0.36,0.04 -0.72,0.15 -1.04,0.32 -0.5,0.42 -1.12,0.65 -1.77,0.67 0,0.12 0.01,0.24 0.01,0.37 0,0.4 -0.03,0.81 -0.09,1.21 -0.2,0.42 -0.32,0.52 -0.4,0.38 -0.1,-0.29 -0.14,-0.59 -0.14,-0.9 0,0 0,0 0,0 -0.05,-0.78 -0.03,-1.66 -0.18,-1.01 -0.79,-0.35 -0.74,1.52 -0.6,3.57 0.07,1.19 0.15,1.71 0.17,2.46 0,0.09 0.01,0.18 0.01,0.27 0,0.59 -0.1,1.18 -0.29,1.74l-0.09 -0.59c-0.55,1.85 0.6,4.52 0.49,7.54 0,0 -0.15,-0.14 -0.24,-0.02 0.8,2.07 1.07,5.99 1.3,8.9 -0.62,-0.91 -0.33,-1.32 -0.96,-0.77 0.09,1.31 1.01,-0.38 1.19,2.22 -0.34,0.85 -0.64,2.73 -1.31,2.98l-0.04 -2.46c-0.87,1.26 0.03,3.18 -0.12,4.47l-0.38 -0.16c0.12,3.76 1.08,3.82 1.01,7.86l0.29 -0.42c0.96,2.22 -0.53,1.86 0.18,4.06l-0.97 0.67c0.23,1.46 0.93,5.11 1.11,7.73 -0.71,-1.49 -1.08,-4.55 -1.5,-6.44 -0.01,1.44 0.07,4.91 0.54,5.67 -0.09,-0.58 -0.32,-1.32 -0.18,-1.9 0.76,1.78 1.13,4.11 1.12,6.99 -0.61,-0.16 -0.88,0.58 -1,1.74 -0.01,0.07 -0.02,0.14 -0.02,0.22 -0.01,0.11 -0.02,0.22 -0.02,0.34 -0.01,0.23 -0.02,0.46 -0.04,0.7 -0.01,0.5 -0.02,1.01 -0.04,1.54 -0.02,1.08 -0.05,2.22 -0.07,3.32 2.24,0.07 4.29,0.24 5.49,0.74l0.4 -0.03 0.25 -0.03 0.48 -0.05c0.32,-0.03 0.63,-0.06 0.95,-0.08 0.64,-0.04 1.28,-0.05 1.92,-0.06 1.27,0 2.57,0.05 3.88,0.12 2.64,0.15 5.37,0.37 8.34,0.31 -2.1,-1.45 1.74,-0.04 1.38,-1.54 1.37,-0.09 1.89,-0.06 2.02,0.03l-0.2 -0.04c0.07,0.01 0.13,0.03 0.21,0.05l0 -0.01 4.19 0.89c1,0.44 -1.32,0.33 -1.19,0.67 3.03,0.12 1.28,0.64 3.28,1.03 -0.41,-0.53 1.05,-0.76 2.78,-0.56l-2.44 -0.69c4.24,-0.8 3.67,1.26 7.93,0.47l-1.35 0.47c2.19,-0.28 8.08,0.01 10.22,-1.19 0.39,0.17 0.91,0.58 -0.06,0.69 5.23,0.18 11.65,-1.28 15.71,-0.54l-0.39 0.36c0.97,-0.1 1.7,-0.68 2.92,-0.32 -0.06,0.15 -0.4,0.37 0.06,0.39 0.51,-0.12 2.59,-0.64 3.89,-0.43l-1.11 0.41c3.21,0.31 5.48,-0.17 7.79,-0.63 1.42,-0.31 2.87,-0.52 4.32,-0.62 -0.01,1.08 4,1.43 6.01,1.6l-0.07 0.15c0.32,0.01 0.66,0.01 0.98,0.01 2.05,0 4.12,-0.12 6.15,-0.36 1.82,-0.2 3.58,-0.45 5.44,-0.66l0.01 0c0.12,-0.02 0.23,-0.03 0.36,-0.05 0.43,-0.04 0.87,-0.09 1.31,-0.13 0.14,-0.02 0.28,-0.03 0.42,-0.05 0.31,-0.02 0.62,-0.04 0.93,-0.07 1.55,0.43 3.16,0.66 4.78,0.68 3.82,0.18 8.64,0.03 12.28,0.47 -0.84,-0.2 0.14,-0.85 1.11,-0.95 1.21,0.2 3.29,-0.64 3.37,0.07 0,0.02 0,0.04 0,0.06 0,0.03 0,0.07 -0.01,0.11l-0.43 -0.02 -0.03 0 0.01 0c0.97,0.97 3.61,0.71 5.68,0.74l0.34 -1.3c5.41,1.88 14.17,-0.69 17.12,1 1.31,-0.33 2.92,-0.32 4.22,-0.64l-0.07 0.69c1.94,0.11 3.9,0.18 5.86,0.18 1.33,0 2.71,-0.03 4.03,-0.09l-0.91 0.5c2.52,0.04 3.18,-2 5.51,-2.04l0.69 1.03c4.41,-0.01 8.86,0.9 13.2,-0.04 -0.07,0.15 -0.2,0.45 -0.91,0.49 2,0.03 7.62,0.66 7.31,-0.58 0.48,0.7 4.61,-0.07 6.86,-0.45l-0.37 0.67c1.01,-0.43 1.52,-0.71 2.14,-0.91 0.34,-0.1 0.7,-0.19 1.06,-0.24 0.23,-0.04 0.44,-0.07 0.75,-0.1 0.38,-0.03 0.8,-0.06 1.27,-0.09 0.84,0.08 0.98,0.46 0,0.4 0.27,0.04 0.55,0.06 0.82,0.06 0.47,0 0.93,-0.05 1.38,-0.15 0.61,-0.2 1.25,-0.3 1.88,-0.3 0,-0.03 0,-0.05 0,-0.07 0,-0.47 0.03,-0.94 0.08,-1.41 0.15,0.57 0.3,1.17 0.44,1.81 0.01,-0.29 0.02,-0.58 0.02,-0.87 0,-0.76 -0.05,-1.52 -0.16,-2.27 -0.11,-0.62 -0.3,-1.09 -0.55,-1.96 -0.02,-0.11 -0.03,-0.24 -0.04,-0.37 -0.01,-0.13 -0.02,-0.25 -0.03,-0.38 -0.01,-0.21 -0.02,-0.45 -0.01,-0.68 0.01,-0.49 0.06,-0.98 0.14,-1.46 0.15,-0.94 0.42,-1.75 0.73,-1.91 -0.38,-0.31 -0.88,-1.56 -0.7,-2.9 0.23,-0.18 0.38,0.31 0.45,0.56 0.46,-3.81 -0.8,-5.66 -0.13,-8.28 0.21,-0.06 0.37,-0.22 0.41,-0.44 -0.02,2.77 -0.05,5.05 -0.09,5.23 0.62,-0.04 0.73,-2.43 1.59,-0.5 -0.47,-1.96 -1.5,-5.31 -1.21,-7.69zm-0.14 -1.66c0.1,0.81 -0.04,1.08 -0.18,1.19 -0.01,-0.38 -0.04,-0.83 -0.09,-1.42 -0.02,-0.02 -0.05,-0.07 -0.08,-0.09 -0.66,-0.22 -1.1,-0.85 -1.1,-1.54 0,-0.9 0.72,-1.63 1.62,-1.63 0.18,0 0.36,0.03 0.53,0.09l-0.7 3.4zm-28.37 -112.35c0.08,0.03 0.16,0.06 0.24,0.11l-1.04 0c1.29,-3.13 1.56,-3.16 1.85,-3.19l-1.05 3.08z"/>
   <path class="fil5" d="M150.81 181.01c-0.03,0.03 -0.07,0.05 -0.12,0.05 0.04,-0.02 0.08,-0.04 0.12,-0.05z"/>
   <path class="fil5" d="M137.79 182.65c0.04,-0.01 0.08,-0.02 0.12,-0.02 -0.04,0 -0.08,0.01 -0.12,0.02z"/>
   <path class="fil5" d="M273.24 225.05c-0.02,-0.11 -0.04,-0.22 -0.05,-0.33 -0.06,0.16 -0.11,0.32 -0.15,0.48l0.21 0.29 -0.01 -0.44z"/>
   <path class="fil5" d="M194.39 140.62c0.02,-0.09 0.05,-0.16 0.1,-0.23 -0.04,0.07 -0.06,0.07 -0.09,0.12l-0.01 0.11z"/>
   <path class="fil5" d="M228.6 113.76c0.22,0 0.47,0.32 0.42,2.66l0.15 -2.87 1.08 0.05c-0.87,-0.27 -2.31,-0.62 -0.32,-0.69 -0.68,-0.08 -1.21,-0.14 -1.58,-0.18 -0.16,1.38 0.03,1.03 0.25,1.03z"/>
   <path class="fil5" d="M228.64 125.74c-0.06,-0.55 -0.16,-0.57 -0.26,-0.5 -0.1,0.07 -0.2,0.21 -0.28,0.14 0.24,0.65 0.31,0.96 0.54,0.36z"/>
   <path class="fil5" d="M180.98 146.55l0.17 -0.63c-1.31,0.09 -0.01,0.24 -0.17,0.63z"/>
   <polygon class="fil5" points="158.38,145.42 158.49,145.41 158.69,145.39 159.49,145.32 160.06,145.23 158.98,145.35 158.43,145.4 157.54,145.46 158.21,145.43 "/>
   <path class="fil5" d="M86.79 191.51l0.39 0.77c0.88,-0.14 1.07,-1.01 -0.39,-0.77z"/>
   <path class="fil5" d="M70.67 230.98c-0.29,0.54 -0.44,1.13 -0.44,1.74 0,0.39 0.06,0.78 0.19,1.15 0.05,-1.15 0.35,-2.3 0.25,-2.89z"/>
   <polygon class="fil5" points="202.35,257 204.29,256.79 203.38,256.75 "/>
   <path class="fil7" d="M211.87 193.82c-0.12,5.92 -0.95,11.84 -2.47,17.58 -5.93,21.93 -22.17,37.89 -30.91,45.18 -1.62,-0.01 -3.23,-0.24 -4.78,-0.67 -0.31,0.03 -0.62,0.05 -0.93,0.08 -0.14,0.01 -0.28,0.02 -0.42,0.04 -0.44,0.04 -0.88,0.09 -1.31,0.14 -0.13,0.01 -0.24,0.02 -0.36,0.04l-0.01 0c-2.82,-7.4 -4.86,-15.09 -6.05,-22.92l0 0 0 -0.01c-1.52,-10.04 -1.76,-21.83 1.42,-33.61 1.36,-4.97 3.27,-9.81 5.64,-14.39 11.37,-22.08 31.05,-35.23 31.05,-35.23 0,0 9.72,19.97 9.13,43.77z"/>
   <path class="fil7" d="M152.02 169.16c-0.01,0.2 -0.03,0.38 -0.05,0.6 -0.02,-0.07 -0.03,-0.15 -0.03,-0.22 0,-0.13 0.03,-0.26 0.08,-0.38z"/>
   <path class="fil7" d="M137.91 182.63c0.17,-0.04 0.34,-0.09 0.51,-0.16 0.36,0.1 -0.13,0.09 -0.51,0.16z"/>
   <path class="fil7" d="M138.59 182.09l0.78 0.09c-0.26,-0.01 -0.53,-0.04 -0.78,-0.09l0 0z"/>
   <path class="fil7" d="M150.36 180.8c-0.03,0 -0.06,-0.01 -0.08,-0.01 0.07,-0.01 0.14,-0.02 0.2,-0.03 0.01,-0.01 0.02,-0.01 0.02,-0.01 0,0 0.01,0 0,0.01 0,0.01 -0.01,0.01 -0.01,0.02 0,0.01 -0.08,0.02 -0.13,0.02z"/>
   <path class="fil7" d="M150.81 181.01c-0.03,0.03 -0.07,0.05 -0.12,0.05 0.04,-0.02 0.08,-0.04 0.12,-0.05z"/>
   <path class="fil7" d="M178.76 233.26c0,0.01 0,0.02 0,0.03 -1.18,7.74 -3.2,15.37 -5.98,22.7 -0.14,0.01 -0.28,0.03 -0.42,0.04 -0.44,0.04 -0.88,0.09 -1.31,0.14 -0.13,0.01 -0.24,0.03 -0.36,0.04l-0.01 0c-1.86,0.21 -3.62,0.46 -5.44,0.67 -8.66,-7.17 -25.24,-23.26 -31.25,-45.48 -1.52,-5.73 -2.37,-11.66 -2.47,-17.59 -0.02,-0.67 -0.03,-1.39 -0.03,-2.07 0,-3.19 0.17,-6.39 0.5,-9.56 2.17,-0.42 4.15,0.72 5.8,0.46 -0.18,0.05 -0.3,0.11 -0.25,0.21 1.59,-0.13 2.74,-0.07 3.2,-0.51l-1.37 -0.16c1.21,0.04 1.4,-0.55 3.7,-0.21 1.32,-0.33 2.07,-1.05 0.63,-1.06 0.58,-0.09 1.86,0.3 1.41,0.73 2.53,0.01 2.34,-0.76 3.23,-0.97l1.23 0c0.21,0.03 0.44,0.07 0.71,0.12 -0.24,0.04 -0.49,0.12 -0.36,0.21 0.2,0.01 0.39,0.03 0.58,0.05 0.04,0.01 0.08,0.02 0.12,0.02 0.03,0 0.05,0 0.07,-0.01 -0.14,0.12 -0.12,0.34 -0.03,0.54 0.04,0.12 0.09,0.23 0.02,0.29 -0.04,0.04 -0.09,0.06 -0.22,0.06 -0.24,0 -0.57,-0.01 -1.03,-0.04 0.14,0.2 0.37,0.33 0.62,0.35 0.15,0.02 0.31,0.04 0.46,0.05 0.1,0.01 0.2,0.01 0.3,0 0.17,-0.02 0.33,-0.04 0.5,-0.04 0.25,0 0.49,0.03 0.73,0.09 0.29,-0.26 -0.01,-0.54 -0.27,-0.8 -0.23,-0.2 -0.43,-0.43 -0.6,-0.69 0.01,0.02 0.03,0.04 0.05,0.06 0.2,0.17 0.2,0.03 0.3,-0.11 -0.14,-0.04 -0.27,-0.09 -0.4,-0.15l0.36 0 0 -0.79c0.01,-0.07 0.02,-0.16 0.04,-0.24 0.11,-0.62 0.17,-1.26 0.17,-1.89 0,-0.65 -0.06,-1.31 -0.18,-1.95 0.23,0.74 0.7,2.21 1,0.34 -0.37,-3.05 0.25,-0.71 0.69,-2.43 -0.12,-3.03 -1.04,-0.53 -0.68,-5 0.01,-0.49 -0.34,-0.04 -0.5,0.45 0.27,-2.86 -0.08,-4.51 0.23,-7.15 -0.14,0.99 -0.32,1.51 -0.56,0.01 0.35,0.55 0.43,-0.99 0.56,-2.3 0.11,0.1 0.23,0.22 0.35,0.33 0.17,0.17 0.34,0.34 0.51,0.51 6.1,5.98 13.25,14.37 18.58,24.72 0,0 0,0 0,0 0,0 0,0 0,0 0,0 0,0 0,0 2.38,4.58 4.29,9.42 5.64,14.39 3.18,11.77 2.94,23.54 1.43,33.59z"/>
   <path class="fil8" d="M110.81 189.63c-0.07,0.16 -0.17,0.31 -0.3,0.43 0.14,-0.32 0.23,-0.42 0.3,-0.43z"/>
   <path class="fil8" d="M98.01 192.58c0,0.02 -0.02,0.04 -0.04,0.05 0.02,-0.03 0.04,-0.05 0.04,-0.05z"/>
   <path class="fil2" d="M171.05 256.17c-0.13,0.01 -0.24,0.02 -0.36,0.04l-0.01 0c-1.86,0.21 -3.62,0.46 -5.44,0.67 -2.03,0.23 -4.1,0.35 -6.15,0.35 -0.32,0 -0.66,0 -0.98,0l0.07 -0.16c-2,-0.17 -6.02,-0.52 -6.01,-1.6 -1.45,0.1 -2.9,0.31 -4.32,0.62 -10.59,-3.44 -22.92,-9.28 -33.01,-19.1 -14.21,-13.84 -20.63,-32.33 -23.45,-44.24 2.11,-0.03 4.18,0.04 5.72,0.69 -1.05,-0.5 0.6,-0.61 0.86,-0.81 -0.02,0.02 -0.03,0.05 -0.03,0.08 0,0.04 0.03,0.09 0.07,0.11 0.07,0 0.14,0.01 0.22,0.01 0.58,0 1.14,-0.22 1.57,-0.61l4.03 0 0 -0.33c0.02,0 0.04,0 0.06,0 0.11,0 0.23,0.02 0.34,0.06 0.02,-0.34 1.06,-0.25 2.21,-0.24 -2.32,0.37 -0.74,0.72 -1.79,1.24 0.15,0.01 0.3,0.01 0.45,0.01 1.13,0 2.25,-0.22 3.29,-0.65 0.25,-0.09 0.51,-0.18 0.78,-0.26 0.06,-0.02 0.13,-0.04 0.2,-0.06 0.05,-0.01 0.11,-0.03 0.16,-0.05 0.06,-0.04 0.13,-0.07 0.19,-0.1 0.19,-0.09 0.39,-0.14 0.6,-0.14 0.1,0 0.19,0.02 0.29,0.04 0.28,0.14 0.58,0.27 0.88,0.38 0.09,-0.05 0.18,-0.12 0.25,-0.19 -0.36,-0.37 -0.6,-0.84 -0.69,-1.35 -0.03,-0.19 -0.05,-0.34 -0.08,-0.47 -0.03,-0.31 -0.07,-0.5 -0.16,-0.48 0.3,-0.62 0.48,-1.53 0.96,-1.39l-0.02 -0.13 -0.01 -0.19c-0.01,-0.14 -0.02,-0.27 -0.02,-0.4 -0.01,-0.28 -0.02,-0.56 -0.02,-0.84 0.01,-0.48 0.02,-0.96 0.03,-1.42 6.88,2.1 13.54,4.99 19.78,8.56 5.32,3.04 10.25,6.74 14.65,10.99 8.83,8.6 14.65,18.98 18.46,28.47l0 0.01 0.01 0.01c2.94,7.36 5.1,15.05 6.42,22.86l0 0.01z"/>
   <path class="fil8" d="M194.78 256.33l0.03 0c-0.01,0 -0.02,0 -0.02,0 0,0 0,0 0,0l-0.01 0z"/>
   <path class="fil2" d="M254.07 180.81c0,0 -2.78,34.04 -25.53,56.18 -10.18,9.91 -22.64,15.76 -33.29,19.19 -0.08,-0.7 -2.16,0.13 -3.37,-0.07 -0.97,0.1 -1.95,0.75 -1.11,0.95 -3.64,-0.44 -8.46,-0.29 -12.28,-0.47 -1.62,-0.02 -3.23,-0.25 -4.78,-0.68 -0.31,0.03 -0.62,0.05 -0.93,0.08 -0.14,0.01 -0.28,0.02 -0.42,0.04 1.32,-7.78 3.47,-15.44 6.4,-22.78 3.82,-9.48 9.64,-19.86 18.46,-28.44 4.4,-4.24 9.35,-7.96 14.66,-10.99 20.37,-11.82 42.19,-13.01 42.19,-13.01z"/>
   <path class="fil9" d="M366.04 265.75l0.98 -0.87 -4.76 -5.33c-1.02,-1.13 -1.44,-2.67 -1.14,-4.16 0.04,-0.19 0.09,-0.38 0.15,-0.57l7.27 -21.86c0.12,-0.37 0.22,-0.74 0.29,-1.12 0.59,-2.93 -0.24,-5.98 -2.23,-8.21l-5.19 -5.8c-0.81,-0.89 -1.88,-1.5 -3.06,-1.74 -1.72,-0.34 -3.5,0.14 -4.8,1.31l-1.79 1.61 0.87 0.97 1.79 -1.6c1,-0.89 2.36,-1.26 3.68,-1 0.9,0.18 1.72,0.65 2.33,1.33l5.19 5.8c1.72,1.92 2.43,4.54 1.92,7.07 -0.06,0.33 -0.15,0.65 -0.25,0.97l-7.26 21.86c-0.08,0.23 -0.15,0.48 -0.19,0.72 -0.38,1.9 0.15,3.86 1.44,5.3l4.76 5.32z"/>
   <polygon class="fil9" points="363.66,267.25 360.3,260.32 362.25,258.57 368.51,262.91 394.28,289.56 387.57,295.56 "/>
   <path class="fil0" d="M356.5 221.07l-4.9 -5.47c-1.34,-1.5 -3.64,-1.63 -5.14,-0.29l-33.91 30.37c-1.5,1.33 -1.63,3.64 -0.29,5.13l4.91 5.48c1.34,1.5 3.64,1.62 5.13,0.28l33.92 -30.36c1.5,-1.34 1.62,-3.64 0.28,-5.14z"/>
   <path class="fil10" d="M312.55 245.68l1.05 -0.94 0.2 -0.19c-0.58,0.52 -0.98,1.22 -1.14,2 -0.22,1.12 0.1,2.28 0.86,3.14l4.91 5.47c0.52,0.59 1.22,0.99 1.99,1.15 1.12,0.22 2.29,-0.1 3.14,-0.86l-0.21 0.19 -1.05 0.93c-0.85,0.77 -2.01,1.09 -3.14,0.86 -0.77,-0.15 -1.47,-0.55 -1.99,-1.14l-4.91 -5.48c-0.76,-0.85 -1.08,-2.01 -0.85,-3.14 0.15,-0.77 0.55,-1.47 1.14,-1.99l0 0z"/>
   <path class="fil5" d="M334.38 225.52c0.06,-0.04 0.11,-0.07 0.11,-0.05 -0.06,0.05 -0.1,0.06 -0.11,0.05z"/>
   <path class="fil5" d="M335.58 224.27c0.01,-0.04 0.03,-0.06 0.06,-0.08l-0.06 0.08z"/>
   <path class="fil5" d="M327.24 232.02c0.05,0.02 -0.08,0.12 -0.17,0.21l0.17 -0.21z"/>
   <path class="fil5" d="M323.69 235.08l-0.06 0.06c-0.04,0 -0.07,0 -0.1,-0.01l0.16 -0.05z"/>
   <path class="fil5" d="M321.37 237.39c-0.06,-0.02 -0.13,0 -0.19,0.04 -0.02,-0.03 -0.03,-0.07 -0.04,-0.1 0.05,-0.06 0.17,0.03 0.23,0.06z"/>
   <path class="fil5" d="M314.3 243.97l0.02 0.05c-0.02,0.02 -0.05,0.03 -0.07,0.04l0.05 -0.09z"/>
   <path class="fil5" d="M337.86 221.97l-0.01 0.01c-0.07,0.04 -0.03,0.01 0.01,-0.01z"/>
   <path class="fil5" d="M353.01 230.5c0.16,-0.31 -0.51,0.23 -0.23,-0.2 0,0.07 0.48,-0.13 0.23,0.2z"/>
   <path class="fil5" d="M343.3 217.21c0,0.02 0,0.04 0,0.06 -0.01,0.01 -0.01,0.02 -0.02,0.04 0,-0.02 0,-0.04 0.02,-0.1z"/>
   <path class="fil5" d="M345.89 216.04c0.06,0.06 0.12,0.14 0.16,0.22 -0.01,0 -0.02,-0.01 -0.03,-0.02 -0.03,-0.08 -0.07,-0.15 -0.13,-0.2l0 0z"/>
   <path class="fil5" d="M347.71 218.6c-0.02,0 -0.04,-0.01 -0.05,-0.02l-0.05 -0.08 0.1 0.1z"/>
   <path class="fil6" d="M314.14 244.05c0.06,0.11 0.19,0.26 0.26,0.23l-0.08 -0.26c0.01,-0.01 0.02,-0.02 0.03,-0.03 -0.01,-0.01 -0.01,-0.03 -0.02,-0.04l2.42 -2.16 -0.05 -0.01 0.09 -0.03 0.31 -0.28c-0.03,-0.01 -0.07,-0.01 -0.14,0.04 0.16,-0.28 0.25,-0.13 0.37,-0.39 0.01,-0.03 -0.01,-0.03 -0.03,-0.02l0.26 -0.15c-0.07,0.01 -0.06,-0.14 -0.18,0 0.32,-0.44 0.75,-0.45 0.79,-0.71l-0.04 0.02c0.45,-0.33 0.31,-0.13 0.44,-0.1l0.26 -0.23 0.01 -0.37 0.16 0.07c0.05,-0.06 0.16,-0.16 0.1,-0.19 0.28,-0.11 0.01,0.08 0.19,0.04 0.19,-0.35 0.8,-0.62 0.7,-0.86 0.18,0 -0.2,0.3 0.15,0.1 -0.09,-0.27 0.37,-0.27 0.53,-0.58 -0.16,-0.04 -0.35,0.23 -0.18,-0.08 0.3,0.03 0.45,-0.48 0.69,-0.63 0.13,0.12 0.51,-0.36 0.91,-0.63 0.27,-0.36 0.57,-0.7 0.88,-1.02l-0.03 -0.01c0.19,0.08 0.5,-0.25 0.78,-0.44 -0.09,-0.08 -0.16,-0.07 -0.33,0.01l0.24 -0.2c0.13,-0.02 0.25,-0.08 0.35,-0.17l-0.15 -0.05c0.39,-0.24 0.75,-0.53 1.07,-0.86 0.07,0.05 0.01,0.28 0.11,0.33l0.21 -0.19c-0.01,-0.01 -0.03,-0.02 -0.04,-0.02 -0.04,-0.01 -0.08,0 -0.11,0.02 0.05,-0.02 0.17,-0.07 0.22,-0.16l-0.24 0.07c0.14,-0.2 0.16,-0.01 0.3,-0.15 -0.07,-0.07 0.06,-0.15 -0.02,-0.19 -0.04,0.03 -0.1,0.14 -0.18,0.16 0.15,-0.13 0.26,-0.3 0.33,-0.49 0.02,0.05 0.09,0.1 0.21,0 0.32,-0.27 0.03,-0.18 0.18,-0.38 0.12,-0.02 0.27,-0.25 0.37,-0.14 0.09,-0.08 0.06,-0.15 0.07,-0.21 0.21,-0.1 0.76,-0.66 0.69,-0.38l-0.04 0.05 0.03 -0.02c0.63,-0.36 1.04,-1.04 1.6,-1.46l-0.03 -0.04c0.31,-0.26 0.65,-0.5 1.01,-0.71 0.09,-0.08 0.15,-0.26 0.07,-0.27 0.25,-0.13 0.46,-0.32 0.62,-0.54 -0.3,0.15 0.03,-0.13 -0.29,0.17 0.28,-0.3 0.3,-0.43 0.72,-0.62 -0.2,0 0.13,-0.33 0.3,-0.43l-0.16 0.26c0.16,-0.13 0.32,-0.26 0.46,-0.41l-0.19 -0.06c0.49,-0.71 1.37,-0.76 1.62,-1.44 0.25,-0.07 -0.29,0.37 -0.05,0.33 0.2,-0.25 0.37,-0.52 0.51,-0.81 0.34,-0.42 0.54,-0.15 0.91,-0.57 -0.01,0.09 0.04,0.26 0.39,0.02 0.28,-0.28 0.19,-0.5 -0.02,-0.38 -0.07,0.06 -0.1,0.11 -0.08,0.12 -0.11,0.07 -0.25,0.16 -0.17,0.01l0.07 0.01c0.11,-0.18 0.51,-0.53 0.35,-0.52 0.26,-0.15 0.16,-0.01 0.02,0.16 0.31,-0.4 0.58,-0.53 0.93,-0.91 -0.04,0.08 -0.05,0.18 0.01,0.12 0.51,-0.56 0.32,-0.13 0.72,-0.46 0.16,-0.26 -0.22,-0.09 0.21,-0.38 0.2,-0.25 -0.05,-0.16 -0.18,-0.11 0.32,-0.22 0.59,-0.51 0.79,-0.84l-0.21 0.13c0.11,-0.07 0.21,-0.15 0.31,-0.24l-0.03 0.19c0.09,-0.12 0.19,-0.2 0.15,-0.23 0.16,-0.05 0.05,0.22 0.34,0.1 0.1,-0.17 0.48,-0.35 0.43,-0.51 -0.42,0.45 -0.06,-0.16 -0.46,0.16 0.1,-0.06 0.2,-0.15 0.27,-0.24 0.01,-0.03 -0.04,-0.01 -0.07,0.01 0.34,-0.5 0.32,-0.05 0.77,-0.46 -0.12,-0.01 -0.01,-0.21 0.07,-0.27 -0.18,0.17 0.02,0.19 0.23,0.09 0.24,-0.31 0.35,-0.24 0.49,-0.38l-0.15 0.18c0.12,0.01 0.26,-0.13 0.48,-0.28 -0.03,-0.07 -0.22,0.12 -0.17,0.04 0.33,-0.09 0.4,-0.58 0.78,-0.78 0.11,-0.17 -0.1,-0.13 0,-0.28 0.43,-0.22 0.3,-0.43 0.73,-0.68 -0.02,0.18 -0.06,0.17 0.27,0.03l-0.66 0.48 0.51 -0.22c-0.19,0.16 -0.44,0.29 -0.53,0.4 0.25,-0.09 0.21,-0.1 0.19,0.05 0.13,-0.35 0.56,-0.36 0.77,-0.71l-0.21 -0.21c0.35,-0.49 0.87,-0.58 1.38,-1.14l-0.14 0.2c0.15,0.02 0.36,-0.29 0.57,-0.42 -0.08,-0.06 0.01,-0.19 0.04,-0.3 0.04,0.06 0.41,-0.38 0.59,-0.28l0.17 -0.32c0.39,-0.42 0.78,-0.32 1.28,-0.81 -0.09,0 -0.07,-0.07 -0.07,-0.12 -0.01,-0.05 -0.04,-0.07 -0.29,0.1 0.23,-0.21 0.45,-0.43 0.45,-0.33 0.02,-0.03 0.04,-0.06 0.06,-0.08l0.05 -0.04c0.01,-0.01 0.02,0.03 0.03,0.05l0.16 0.29c0.07,0.18 0.17,0.34 0.31,0.47 0.04,0.14 -0.01,0.26 0.16,0.48 0.03,0.01 0.03,-0.03 0.03,-0.03 -0.02,0.06 0.16,0.34 -0.04,0.24 0.6,0.32 0.96,1.39 1.49,1.65 0.22,0.36 0.51,0.78 0.74,1.09 0.01,-0.04 0.04,-0.03 -0.01,-0.08 0.39,0.36 -0.03,0.43 0.43,0.84 0.32,0.14 -0.13,-0.3 0.04,-0.19 0.3,-0.14 0.42,0.6 0.83,0.78l-0.05 -0.08c0.28,0.16 0.4,0.66 0.75,1.02 0,0 0,-0.04 0.03,-0.03 0.2,0.46 0.48,0.9 0.81,1.28 -0.01,-0.19 -0.1,-0.2 0.06,-0.23 0.13,0.18 -0.2,0.1 0.07,0.44 0.15,0.06 0.41,0.25 0.54,0.18l-0.28 -0.3c0.28,0.03 0.37,0.38 0.54,0.52l0.04 -0.08c0.42,0.47 0.3,0.61 0.79,1.08l-0.09 -0.01c0.13,0.4 0.3,0.13 0.47,0.49l0.22 -0.07c0.25,0.36 0.52,0.71 0.82,1.04 -0.18,-0.34 -0.38,-0.66 -0.61,-0.95 0.25,0.2 0.47,0.44 0.64,0.71 -0.06,-0.08 -0.12,-0.19 -0.22,-0.24 0.17,0.38 0.43,0.7 0.75,0.95 0.08,-0.19 0.45,0.08 0.9,0.42l0.17 0.13 0.09 0.07c0.03,0.02 0.08,0.04 0.03,0.07 -0.1,0.09 -0.2,0.19 -0.28,0.28 -0.15,0.14 -0.27,0.3 -0.35,0.49 -0.13,0.1 -0.26,0.2 -0.39,0.29 -0.08,0.07 -0.17,0.14 -0.25,0.21 -0.16,0.14 -0.32,0.3 -0.47,0.46 -0.31,0.32 -0.63,0.66 -1.01,0.98 0.07,-0.45 -0.22,0.19 -0.38,-0.08 -0.19,0.14 -0.25,0.21 -0.25,0.24l0.02 -0.05 -0.02 0.05 0 0 -0.41 0.61c-0.07,0.18 0.21,-0.1 0.24,-0.04 -0.37,0.36 -0.07,0.24 -0.27,0.53 -0.02,-0.13 -0.24,0 -0.43,0.23l0.21 -0.38c-0.64,0.35 -0.29,0.6 -0.93,0.96l0.23 -0.08c-0.31,0.21 -1.01,0.92 -1.45,0.97 -0.02,0.07 -0.03,0.19 0.11,0.1 -0.64,0.62 -1.64,1.12 -2.06,1.69l0.1 0.01c-0.13,0.1 -0.3,0.09 -0.41,0.28 0.03,0.02 0.1,0.02 0.05,0.07 -0.21,0.08 -0.39,0.21 -0.55,0.37l0.2 -0.06c-0.58,0.65 -1.13,0.73 -1.7,1.17 0.15,0.17 -0.31,0.67 -0.54,0.93l0.03 0.01c-0.68,0.57 -1.39,1.09 -2.14,1.56 -0.27,0.56 -1.39,1.38 -1.99,2.1 0.07,-0.13 -0.14,-0.11 -0.27,-0.02 -0.14,0.18 -0.55,0.29 -0.39,0.41l0.05 -0.05c0.01,0.26 -0.36,0.52 -0.61,0.75l-0.22 -0.15c-0.43,0.89 -1.88,1.49 -2.02,2.08 -0.21,0.09 -0.41,0.28 -0.62,0.37l0.1 0.1c-0.38,0.4 -0.8,0.78 -1.23,1.13l0.18 -0.03c-0.31,0.29 -0.67,0.06 -0.97,0.31l0.05 0.24c-0.55,0.49 -0.99,1.13 -1.67,1.48 0.03,0.02 0.09,0.05 0.19,-0.03 -0.26,0.24 -0.92,1.01 -1.02,0.71 0.12,0.15 -0.55,0.53 -0.91,0.73l0.14 0.07c-0.29,0.03 -0.57,0.15 -0.8,0.34 -0.07,0.09 0,0.15 0.09,0.02 -0.23,0.3 -0.3,0.1 -0.59,0.45l0.18 -0.04c-0.12,0.15 -0.31,0.25 -0.51,0.27 -0.22,0.12 -0.52,0.51 -0.48,0.64 -0.18,0 -0.35,0.08 -0.46,0.22 0.01,0.06 0.09,0.03 0.13,0.01 -0.41,0.5 -0.82,0.52 -1.06,0.91 0.02,0.03 0.02,0.05 0.02,0.08 -0.01,0.01 -0.01,0.02 -0.02,0.03 0.38,-0.34 0.68,-0.62 0.65,-0.6 0.08,0.1 -0.21,0.39 0.15,0.3 -0.41,0.15 -0.8,0.39 -1.13,0.68 0,0.01 0,0.02 -0.01,0.03 0,0.01 0,0.03 0,0.04l0.04 -0.02c-0.06,0.07 -0.12,0.12 -0.2,0.16 -0.07,0.09 -0.14,0.17 -0.22,0.25 0.03,0.11 -0.32,0.36 -0.47,0.5 -0.08,-0.12 -0.27,0.08 -0.15,-0.17 -0.02,0.02 0.04,-0.02 0.14,-0.11 0.02,-0.01 0.05,-0.03 0.08,-0.04l-0.02 0 0.38 -0.34c-0.19,0.05 -0.35,0.17 -0.45,0.34 -0.14,0 -0.28,0.01 -0.36,0.02 -0.08,0.33 -0.42,0.77 -0.39,0.91 -0.26,0.18 -0.55,0.42 -0.82,0.62 -0.14,0.1 -0.28,0.19 -0.42,0.27 -0.14,0.1 -0.3,0.17 -0.46,0.21 -0.08,0.05 -0.14,0.12 -0.17,0.2 -0.04,0.06 -0.07,0.05 -0.11,0.06 0.03,0.03 0.07,0.06 0.11,0.08l0.08 -0.07c0.05,-0.04 0.1,-0.07 0.15,-0.09 -0.11,0.05 -0.22,0.27 -0.38,0.09l-0.45 -0.3c-0.1,-0.07 -0.2,-0.14 -0.29,-0.23 -0.06,-0.06 -0.1,-0.12 -0.09,-0.17 -0.43,-0.18 0.13,0.28 -0.38,-0.08l0.04 0.09c-1.22,-0.44 -1.39,-1.51 -2.65,-2.1 0.08,0.05 0.13,0.07 0.16,0.06 -1.31,-0.89 -2.2,-2.32 -3.35,-3.36 -0.31,-0.3 -0.24,-0.42 -0.33,-0.69l-0.18 0.02 -0.12 -0.47c-0.26,-0.6 -0.94,-0.72 -1.17,-1.54l0.14 0.03c-0.17,-0.24 -0.41,-0.83 -0.49,-0.73 0,0 0,-0.01 0,-0.02 0.02,-0.07 -0.01,-0.14 -0.06,-0.18l-0.08 0.03c-0.08,-0.23 -0.15,-0.47 -0.22,-0.7 -0.31,-0.46 -0.25,0.23 -0.63,-0.49 -0.11,-0.29 -0.18,-0.88 -0.08,-0.8zm4.4 -0.78c-0.01,0.01 -0.01,0.02 -0.01,0.03 0,0.01 0,0.01 0,0.01l0.12 -0.11c-1.1,-2.14 -1.14,-2.12 -1.18,-2.09l1.07 2.16zm9.92 12.28l-0.03 -0.01c0.02,0.01 0.03,0.01 0.04,0.02 0.02,0 0.04,0 0.05,0 0.12,-0.08 0.13,-0.13 0.13,-0.16 -1.12,-2.12 -1.18,-2.07 -1.26,-2.02l1.07 2.17z"/>
   <path class="fil5" d="M327.15 253.42c-0.02,0.01 -0.03,0.02 -0.05,0.03 0.01,-0.02 0.03,-0.05 0.04,-0.07l0.07 0 -0.06 0.04z"/>
   <path class="fil5" d="M327.01 232.32c-0.01,0.01 -0.01,0.02 -0.02,0.03 0,0 0,0.01 0,0.01 0,-0.01 0,-0.01 0,-0.01 0.01,-0.01 0.01,-0.01 0.01,-0.02l0.01 -0.01z"/>
   <path class="fil5" d="M319.14 239.19c0.39,-0.57 -0.02,0.18 0.48,-0.3l-0.37 0.38c0.04,-0.1 0.08,-0.24 -0.11,-0.08z"/>
   <path class="fil5" d="M320.72 237.65c0.17,-0.08 0.21,-0.1 0.08,0.08 -0.23,0.17 -0.05,-0.06 -0.08,-0.08z"/>
   <path class="fil5" d="M329.7 229.76l-0.11 -0.07c0.18,-0.14 0.04,0.03 0.11,0.07z"/>
   <polygon class="fil5" points="332.16,227.2 332.46,226.99 332.24,227.15 "/>
   <path class="fil5" d="M347.5 218.12l-0.16 0.04c-0.07,-0.14 0.06,-0.27 0.16,-0.04z"/>
   <path class="fil5" d="M353.38 224.99c-0.13,-0.09 -0.26,-0.18 -0.38,-0.29 0,0 0.01,0 0.01,0 0.16,0.03 0.3,0.14 0.37,0.29l0 0z"/>
   <polygon class="fil5" points="339.6,242.63 339.33,242.81 339.44,242.7 "/>
   <path class="fil11" d="M437.74 286.27l-1.34 6.51c-0.07,0.36 -0.11,0.72 -0.11,1.08 0,2.98 2.42,5.39 5.39,5.39 0.61,0 1.22,-0.1 1.79,-0.3l0 0c2.16,-0.76 3.6,-2.8 3.6,-5.09 0,-0.51 -0.08,-1.03 -0.22,-1.53l-1.8 -6.06 16.25 -47.54 -13.81 0 -9.75 47.54z"/>
   <circle class="fil11" cx="423.11" cy="179.01" r="12.6"/>
   <path class="fil11" d="M421.08 201.35l16.66 -2.03c-3.82,-4.79 -5.27,-9.79 -4.07,-15.03l-15.03 1.62 2.44 15.44z"/>
   <path class="fil6" d="M400.36 271.65l39.41 -8.94c8.42,-6.56 13.9,-19.55 18.12,-35.27 3.08,-11.45 -2.45,-23.64 -13.33,-28.36 -0.26,-0.11 -0.52,-0.22 -0.79,-0.33l-8.88 -3.49 -14.62 1.22 -5.22 1.42c-2.26,0.62 -3.95,2.51 -4.3,4.83 -7.01,25.74 -11.64,49.62 -10.39,68.92z"/>
   <polygon class="fil6" points="445.46,246.45 462.93,246.45 457.24,212.33 445.46,213.54 "/>
   <path class="fil3" d="M386.54 394.35l10.57 0 22.14 -77.81 8.55 77.81 12.38 0 4.87 -124.74c-1.86,-9.57 -1.82,-20.97 -0.81,-33.31 8.71,-6.1 5.52,-20.58 6.49,-35.13 0,-0.01 0,-0.02 0,-0.04 0,-0.13 -0.05,-0.25 -0.13,-0.35l-5.62 -2.92c-0.1,-0.12 -0.25,-0.19 -0.41,-0.19 -0.3,0 -0.55,0.25 -0.55,0.55 0,0.01 0,0.03 0,0.04 -0.14,10.17 2.6,22.27 -1.81,30.32 -4.8,-16.4 -11.05,-30.16 -23.22,-33.24 -0.1,-0.02 -0.21,-0.03 -0.32,-0.03 -0.13,0 -0.25,0.01 -0.38,0.05l-2.26 0.65c-0.58,0.16 -0.97,0.69 -0.97,1.29 0,0.47 0.24,0.91 0.64,1.15 11.14,6.88 18.33,18.39 18.79,37.85 -8.66,12.26 -17.1,19.51 -32.28,28.43 -1.55,0.92 -2.58,2.52 -2.76,4.31l-12.91 125.31z"/>
   <path class="fil12" d="M424.74 190.45l8.94 -1.69 5.31 -9.08c1.08,-1.85 1.65,-3.95 1.65,-6.1 0,-2.96 -1.09,-5.82 -3.06,-8.03l0 0c-2.29,-2.57 -5.57,-4.03 -9.01,-4.03 -0.57,0 -1.14,0.04 -1.7,0.12l-11.58 1.65c-3.76,0.54 -6.56,3.76 -6.56,7.57 0,0.38 0.03,0.76 0.08,1.13l7.8 1.33 8.13 17.13z"/>
   <path class="fil3" d="M374.18 407.96l18.6 0c3.38,0 6.12,-2.74 6.12,-6.12 0,-0.3 -0.02,-0.59 -0.06,-0.88l-1.17 -8.01 -8.44 -0.63 -16.79 7.85c-1.43,0.67 -2.35,2.12 -2.35,3.7 0,0.13 0,0.26 0.02,0.39l0 0c0.2,2.1 1.96,3.7 4.07,3.7l0 0z"/>
   <path class="fil3" d="M416.43 407.96l18.61 0c0,0 0,0 0,0 3.38,0 6.12,-2.74 6.12,-6.12 0,-0.3 -0.02,-0.59 -0.06,-0.88l-1.17 -8.01 -8.45 -0.63 -16.78 7.85c-1.44,0.67 -2.36,2.12 -2.36,3.7 0,0.13 0.01,0.26 0.02,0.39l0 0c0.2,2.1 1.96,3.7 4.07,3.7l0 0z"/>
   <path class="fil13" d="M381.07 271.32l-8.05 2.8c-2.29,0.79 -3.83,2.95 -3.83,5.37 0,1.75 0.81,3.4 2.18,4.48l0 0c1,0.79 2.24,1.22 3.52,1.22 1.09,0 2.16,-0.32 3.08,-0.91l7.33 -4.72 25.06 -25.47 3.88 -29.93c0.13,-0.97 0.19,-1.95 0.19,-2.93 0,-6.78 -3.02,-13.21 -8.23,-17.53l0 0 -8.17 45.59 -16.96 22.03z"/>
   <path class="fil6" d="M398.33 240.36l17.87 0 -0.4 -42.66 0 0c-8.71,2.17 -15.01,9.74 -15.57,18.7l-1.9 23.96z"/>
   <ellipse class="fil11" cx="419.44" cy="180.72" rx="2.21" ry="2.65"/>
   <polygon class="fil14" points="0,83.29 344.41,83.29 344.41,81.79 0,81.79 "/>
  </g>
 </g>
</svg>
