<?xml version="1.0" encoding="UTF-8"?>
<!DOCTYPE svg PUBLIC "-//W3C//DTD SVG 1.1//EN" "http://www.w3.org/Graphics/SVG/1.1/DTD/svg11.dtd">
<!-- Creator: CorelDRAW 2020 (64-Bit) -->
<svg xmlns="http://www.w3.org/2000/svg" xml:space="preserve" width="512px" height="287px" version="1.1" style="shape-rendering:geometricPrecision; text-rendering:geometricPrecision; image-rendering:optimizeQuality; fill-rule:evenodd; clip-rule:evenodd"
viewBox="0 0 136.28 76.29"
 xmlns:xlink="http://www.w3.org/1999/xlink"
 xmlns:xodm="http://www.corel.com/coreldraw/odm/2003">
 <defs>
  <style type="text/css">
   <![CDATA[
    .fil2 {fill:#3F3D56;fill-rule:nonzero}
    .fil3 {fill:#65617D;fill-rule:nonzero}
    .fil7 {fill:#D4DFEC;fill-rule:nonzero}
    .fil6 {fill:#DD9933;fill-rule:nonzero}
    .fil8 {fill:#FBBEBE;fill-rule:nonzero}
    .fil10 {fill:black;fill-rule:nonzero;fill-opacity:0.011765}
    .fil1 {fill:#DD9933;fill-rule:nonzero;fill-opacity:0.101961}
    .fil5 {fill:black;fill-rule:nonzero;fill-opacity:0.101961}
    .fil0 {fill:#DD9933;fill-rule:nonzero;fill-opacity:0.101961}
    .fil4 {fill:black;fill-rule:nonzero;fill-opacity:0.200000}
    .fil9 {fill:url(#id0);fill-rule:nonzero}
   ]]>
  </style>
  <linearGradient id="id0" gradientUnits="userSpaceOnUse" x1="70.93" y1="75.97" x2="70.93" y2="24.35">
   <stop offset="0" style="stop-opacity:0.25098; stop-color:gray"/>
   <stop offset="0.541176" style="stop-opacity:0.121569; stop-color:gray"/>
   <stop offset="1" style="stop-opacity:0.101961; stop-color:gray"/>
  </linearGradient>
 </defs>
 <g id="Layer_x0020_1">
  <metadata id="CorelCorpID_0Corel-Layer"/>
  <g id="_2039558112400">
   <path class="fil0" d="M118.25 75.33l-103.71 0.95c-0.72,0.01 -1.61,-0.28 -2.54,-0.71 -1.75,-0.82 -3.6,-2.17 -4.49,-3.14 -2.49,-2.75 -4.3,-5.95 -5.52,-9.42 -0.18,-0.51 -0.34,-1.01 -0.5,-1.53 -4.22,-14.27 0.93,-32.68 10.19,-45 0.39,-0.51 0.78,-1.02 1.18,-1.51l0.01 -0.01c2.85,-3.49 6.05,-6.41 9.45,-8.49 6.03,-3.69 12.71,-4.73 19.28,-1.63 5.55,2.62 10.74,3.85 15.78,4.18 0.5,0.04 1.01,0.06 1.52,0.08 11.54,0.36 22.35,-3.8 35.05,-6.48 0.51,-0.11 1.02,-0.21 1.53,-0.32 9.06,-1.8 12.33,-3.37 24.28,-1.37 1.24,0.21 2.47,0.5 3.67,0.88 0.52,0.17 1.03,0.35 1.52,0.55 5.71,2.32 8.82,6.61 10.14,11.98 2.9,11.56 0.17,25.38 -4.82,38.05 -1.07,2.72 -7.39,18.76 -10.8,22.35 -0.44,0.46 -0.9,0.58 -1.22,0.59z"/>
   <path class="fil1" d="M126.52 61.48l-0.67 1.53 -30.37 0 0 12.49 -1.53 0.02 0 -12.51 -35.05 0 0 12.89 -1.52 0.01 0 -12.9 -35.06 0 0 13.28 -7.78 -0.01c-0.48,0 -1.1,-0.13 -1.68,-0.35l0 -12.92 -10.87 0c-0.18,-0.51 -0.34,-1.01 -0.5,-1.53l11.37 0 0 -45 -1.18 0c0.12,-0.15 1.17,-1.52 1.19,-1.52 2.85,-3.5 6.05,-6.42 9.45,-8.49l0 8.49 35.06 0 0 -5.94c0.5,0.03 1.01,0.05 1.52,0.07l0 5.87 35.05 0 0 -12.35c0.51,-0.1 1.02,-0.21 1.53,-0.31l0 12.66 34.73 0 0 -9.31c0.36,0.35 0.6,0.6 0.83,0.84 0.22,0.24 0.43,0.48 0.69,0.8l0 7.67 3.51 0c0.12,0.5 0.23,1.01 0.32,1.52l-3.83 0 0 31.97c-0.22,0.62 -0.44,1.25 -0.67,1.86 -0.2,0.53 -0.4,1.06 -0.6,1.59 -0.08,0.22 -0.17,0.43 -0.25,0.64l0 -36.06 -34.73 0 0 45 31.04 0zm-32.57 0l0 -45 -35.05 0 0 45 35.05 0zm-71.63 0l35.06 0 0 -45 -35.06 0 0 45z"/>
   <rect class="fil2" x="28.99" y="36.85" width="2.6" height="7.9"/>
   <rect class="fil2" x="99.05" y="36.44" width="2.6" height="8.36"/>
   <polygon class="fil3" points="118.25,73.54 118.25,75.33 97.44,75.52 97.22,75.52 89.31,75.59 89.12,75.6 86.71,75.62 86.64,75.62 71.98,75.75 47.92,75.98 47.9,75.98 41.78,76.03 41.72,76.04 14.54,76.28 14.54,74.23 20.93,70.39 33.75,70.29 34.03,70.28 34.12,70.28 34.39,70.28 40.55,70.23 40.82,70.23 40.91,70.23 41.18,70.22 43.16,70.21 43.21,70.21 48.08,70.17 48.12,70.17 86.13,69.84 87.06,69.84 87.15,69.84 87.86,69.83 93.02,69.79 93.29,69.78 93.55,69.78 93.68,69.78 95.28,69.77 95.6,69.77 96.03,69.76 97.36,69.75 99.48,69.73 99.76,69.73 100.23,69.73 100.32,69.73 110.56,69.64 "/>
   <polygon class="fil4" points="118.25,73.54 118.25,75.33 97.44,75.52 97.22,75.52 89.31,75.59 86.71,75.62 86.64,75.62 71.98,75.75 47.92,75.98 47.9,75.98 41.78,76.03 41.72,76.04 14.54,76.28 14.54,74.23 20.93,70.39 33.75,70.29 34.03,70.28 34.12,70.28 34.39,70.28 40.55,70.23 40.82,70.23 40.91,70.23 41.18,70.22 43.16,70.21 43.21,70.21 48.08,70.17 48.12,70.17 86.13,69.84 87.06,69.84 87.15,69.84 87.86,69.83 93.02,69.79 93.29,69.78 93.55,69.78 93.68,69.78 95.28,69.77 95.6,69.77 96.03,69.76 97.36,69.75 99.48,69.73 99.76,69.73 100.23,69.73 100.32,69.73 110.56,69.64 "/>
   <path class="fil2" d="M40.57 66.69l0 3.36c0,0 0,0 0,0 0,0.32 -0.19,0.62 -0.48,0.76 -0.11,0.05 -0.23,0.08 -0.34,0.08l-4.79 0.1c0,0 -0.01,0 -0.02,0 -0.12,0 -0.24,-0.02 -0.35,-0.08 -0.29,-0.13 -0.48,-0.43 -0.48,-0.76 0,0 0,0 0,0l0 -3.46 6.46 0z"/>
   <path class="fil5" d="M40.57 66.69l0 3.36c0,0 0,0 0,0 0,0.32 -0.19,0.62 -0.48,0.76 -0.11,0.05 -0.23,0.08 -0.34,0.08l-4.79 0.1c0,0 -0.01,0 -0.02,0 -0.12,0 -0.24,-0.02 -0.35,-0.08 -0.29,-0.13 -0.48,-0.43 -0.48,-0.76 0,0 0,0 0,0l0 -3.46 6.46 0z"/>
   <path class="fil2" d="M40.84 66.69l0 3.36c0,0 0,0 0,0 0,0.32 -0.18,0.62 -0.48,0.76 -0.1,0.05 -0.22,0.08 -0.34,0.08l-4.78 0.1c-0.01,0 -0.02,0 -0.02,0 -0.12,0 -0.24,-0.02 -0.35,-0.08 -0.3,-0.13 -0.49,-0.43 -0.49,-0.76 0,0 0,0 0,0l0 -3.46 6.46 0z"/>
   <rect class="fil2" x="93.29" y="66.69" width="6.46" height="4.32"/>
   <polygon class="fil5" points="93.29,71.01 99.76,71.01 99.76,66.69 93.29,66.69 "/>
   <rect class="fil2" x="93.02" y="66.69" width="6.46" height="4.32"/>
   <polygon class="fil5" points="31.59,36.85 31.59,37.63 28.99,37.57 28.99,36.85 "/>
   <path class="fil3" d="M48.73 14.73l-3.13 22.47c-0.04,0.29 -0.29,0.51 -0.58,0.51 -0.01,0 -0.01,0 -0.02,0l-25.04 -0.65 -0.48 -0.01c-0.32,-0.01 -0.57,-0.27 -0.57,-0.59 0,-0.03 0,-0.05 0,-0.08l3.51 -23.52c0.05,-0.29 0.29,-0.5 0.58,-0.5 0.02,0 0.03,0 0.04,0l25.14 1.7c0.31,0.02 0.55,0.28 0.55,0.59 0,0.03 0,0.05 0,0.08l0 0z"/>
   <polygon class="fil6" points="24.1,14.01 21.45,34.75 44.47,35.48 47.3,15.47 "/>
   <path class="fil3" d="M53.42 13.69l26.58 0c0.41,0 0.74,0.33 0.74,0.73l0 22.29c0,0.4 -0.33,0.73 -0.74,0.73l-26.58 0c-0.4,0 -0.73,-0.33 -0.73,-0.73l0 -22.29c0,-0.4 0.33,-0.73 0.73,-0.73z"/>
   <rect class="fil6" x="54.02" y="15.29" width="25.48" height="19.77"/>
   <polygon class="fil5" points="101.65,36.44 101.65,36.96 99.05,37.01 99.05,36.44 "/>
   <path class="fil3" d="M113.4 36c0,0.01 0,0.02 0,0.03 0,0.23 -0.18,0.41 -0.41,0.42l-25.65 0.53c-0.01,0 -0.01,0 -0.01,0 -0.22,0 -0.4,-0.17 -0.42,-0.38l-2.21 -22.92c0,-0.02 0,-0.03 0,-0.04 0,-0.23 0.18,-0.41 0.4,-0.42l25.46 -1.27 0.27 -0.01c0.01,0 0.02,-0.01 0.02,-0.01 0.22,0 0.4,0.17 0.42,0.39l2.13 23.68z"/>
   <polygon class="fil6" points="86.17,14.56 109.42,13.42 111.38,34.24 88.32,34.79 "/>
   <path class="fil5" d="M113.4 36c0,0.01 0,0.02 0,0.03 0,0.23 -0.18,0.41 -0.41,0.42l-2.43 -24.5 0.27 -0.01c0.01,0 0.02,-0.01 0.02,-0.01 0.22,0 0.4,0.17 0.42,0.39l2.13 23.68z"/>
   <path class="fil5" d="M23.05 12.36l-3.09 24.7 -0.48 -0.01c-0.32,-0.01 -0.57,-0.27 -0.57,-0.59 0,-0.03 0,-0.05 0,-0.08l3.51 -23.52c0.05,-0.29 0.29,-0.5 0.58,-0.5 0.02,0 0.03,0 0.05,0l0 0z"/>
   <polygon class="fil5" points="28.99,44.75 31.59,44.75 31.59,42.41 28.99,42.41 "/>
   <polygon class="fil5" points="40.84,66.69 40.84,67.37 34.38,67.55 34.38,66.69 "/>
   <path class="fil3" d="M52.25 43.22l0 23.05c-0.01,0.29 -0.24,0.53 -0.53,0.54l-26.26 0.7 0 0c-0.3,0 -0.54,-0.24 -0.55,-0.54l0 -23.75c0.01,-0.29 0.25,-0.53 0.55,-0.54l26.25 0c0.29,0.01 0.53,0.25 0.54,0.54l0 0z"/>
   <path class="fil5" d="M25.46 42.68l0 24.83 0 0c-0.3,0 -0.54,-0.24 -0.55,-0.54l0 -23.75c0.01,-0.29 0.25,-0.53 0.55,-0.54l0 0z"/>
   <polygon class="fil7" points="26.66,44.16 50.98,44.16 50.98,64.47 26.66,65.02 "/>
   <polygon class="fil5" points="99.05,44.8 101.65,44.8 101.65,42.41 99.05,42.41 "/>
   <polygon class="fil5" points="99.48,66.69 99.48,67.57 93.02,67.4 93.02,66.69 "/>
   <path class="fil3" d="M108.01 43.22l0 23.75c0,0.3 -0.25,0.54 -0.55,0.54 0,0 0,0 0,0l0 0 -26.26 -0.7c-0.29,-0.01 -0.52,-0.25 -0.53,-0.54l0 -23.05c0.01,-0.29 0.25,-0.53 0.54,-0.54l26.25 0c0.3,0 0.55,0.25 0.55,0.54l0 0z"/>
   <path class="fil5" d="M108.01 43.22l0 23.75c0,0.3 -0.25,0.54 -0.55,0.54 0,0 0,0 0,0l0 0 0 -24.83 0 0c0,0 0,0 0,0 0.3,0 0.55,0.24 0.55,0.54l0 0z"/>
   <polygon class="fil7" points="106.26,44.16 81.95,44.16 81.95,64.47 106.26,65.02 "/>
   <path class="fil3" d="M79.99 43.22l0 23.05c0,0.29 -0.23,0.53 -0.52,0.54l-26.26 0.7 0 0c0,0 0,0 0,0 -0.3,0 -0.55,-0.24 -0.55,-0.54l0 -23.75c0,-0.29 0.24,-0.53 0.54,-0.54l26.25 0c0.3,0.01 0.54,0.25 0.54,0.54l0 0z"/>
   <polygon class="fil7" points="54.41,44.16 78.73,44.16 78.73,64.47 54.41,65.02 "/>
   <polygon class="fil5" points="118.25,73.54 118.25,75.33 97.44,75.52 97.22,75.52 89.31,75.59 86.71,75.62 86.64,75.62 71.98,75.75 47.92,75.98 47.9,75.98 41.78,76.03 41.72,76.04 14.54,76.28 14.54,74.23 42.28,74.05 42.35,74.05 47.96,74.01 47.99,74.01 87.56,73.75 87.76,73.75 97.96,73.68 98.57,73.68 98.7,73.67 "/>
   <circle class="fil8" cx="66.76" cy="37.72" r="7.03"/>
   <path class="fil9" d="M41.72 76.02c0.14,-0.49 0.38,-1.31 0.56,-1.97 0.02,-0.09 0.05,-0.17 0.07,-0.24 0.2,-0.75 0.59,-2.51 0.81,-3.6 0.08,-0.39 0.14,-0.69 0.15,-0.84 0.03,-0.23 0.44,-1.22 0.91,-2.36 0.32,-0.8 0.68,-1.67 0.94,-2.41 0.17,-0.44 0.31,-0.89 0.4,-1.35 0.01,-0.05 0.02,-0.1 0.02,-0.15 0,-0.04 -0.01,-0.09 -0.02,-0.14 -0.04,-0.16 -0.06,-0.32 -0.06,-0.48l0 0c-0.03,-0.85 0.22,-2.19 0.61,-2.76 0.48,-0.68 0.82,-3.24 0.82,-3.24 0,0 0.71,0.1 0.83,-0.48 0,-0.05 0.01,-0.11 0.01,-0.16 0,-0.01 0,-0.02 0,-0.03 0,-0.05 -0.01,-0.11 -0.01,-0.16 -0.13,-0.85 2.01,-1.76 3.22,-1.96 0.13,-0.02 0.27,-0.03 0.41,-0.03 0.29,-0.04 0.58,-0.1 0.85,-0.2 0.13,-0.04 0.27,-0.09 0.41,-0.14 0.51,-0.17 1.11,-0.39 1.75,-0.64 2.41,-0.93 5.32,-2.19 5.32,-2.19 0.02,-0.1 0.04,-0.19 0.07,-0.28 0.29,-1.18 1.12,-2.14 2.24,-2.6l0 0c0,-0.09 0,-0.18 0,-0.27 0,-0.47 -0.02,-0.96 -0.04,-1.45 0,-0.09 -0.01,-0.19 -0.01,-0.28 0,-0.03 0,-0.06 0,-0.08 0,-0.03 0,-0.05 0,-0.07 0,-0.1 -0.01,-0.2 -0.02,-0.29l-0.02 -0.02c-0.21,-0.16 -0.4,-0.35 -0.54,-0.58 -0.08,-0.13 -0.14,-0.26 -0.19,-0.41 -0.17,-0.46 -0.21,-0.98 -0.33,-1.47l-0.02 -0.1c-0.15,-0.5 -0.34,-0.98 -0.55,-1.45 -0.3,-0.74 -0.54,-1.51 -0.77,-2.28 -0.14,-0.47 -0.28,-0.94 -0.42,-1.41l-0.22 -0.72c-0.04,-0.14 -0.08,-0.27 -0.12,-0.41l0 0c-0.01,-0.06 -0.02,-0.13 -0.03,-0.19l0 0c0,-0.02 0.01,-0.03 0.01,-0.04 0.01,-0.05 0.01,-0.1 0.02,-0.15 -0.01,-0.18 -0.03,-0.36 -0.08,-0.54 0,0 0,0 0,0 0,0 0,0 0,0 0,-0.02 0,-0.03 0,-0.04 -0.03,-0.14 -0.04,-0.27 -0.05,-0.41 -0.01,-0.08 -0.01,-0.17 -0.01,-0.25 0,-0.66 0.17,-1.31 0.48,-1.88l0.03 -0.05c0.07,-0.14 0.16,-0.26 0.25,-0.38l0 0c0.04,-0.06 0.09,-0.12 0.14,-0.17 -0.19,0.18 -0.51,0.1 -0.69,-0.1 -0.03,-0.03 -0.05,-0.06 -0.07,-0.1 -0.01,-0.02 -0.02,-0.04 -0.03,-0.06 -0.01,-0.02 -0.02,-0.03 -0.02,-0.05 -0.1,-0.34 0.07,-0.7 0.29,-0.97 0.21,-0.26 0.48,-0.48 0.79,-0.64l0 0c0.01,-0.01 0.03,-0.02 0.05,-0.03 0.12,-0.06 0.24,-0.11 0.36,-0.15l0 0c0.07,-0.02 0.15,-0.04 0.23,-0.06l-0.51 -0.04 -0.21 -0.02c0.21,-0.83 0.93,-1.43 1.78,-1.5l0.15 0c0.07,0 0.14,0.01 0.22,0.02 -0.23,-0.1 -0.37,-0.31 -0.37,-0.56 0,-0.01 0,-0.02 0,-0.03 0.35,0.27 0.78,0.42 1.22,0.42 0.01,0 0.03,0 0.04,0l0.05 0c-0.02,-0.15 -0.04,-0.3 -0.04,-0.45l0 0 -0.29 -0.4c0.23,0.19 0.52,0.29 0.81,0.29 0.03,0 0.06,-0.01 0.09,-0.01l0.07 0c0.05,-0.01 0.11,-0.02 0.16,-0.04l0.01 0c-0.02,-0.03 -0.05,-0.06 -0.07,-0.1l-0.01 -0.02c-0.06,-0.08 -0.1,-0.18 -0.14,-0.28 -0.01,-0.04 -0.02,-0.08 -0.03,-0.12l0 0c-0.02,-0.09 -0.03,-0.19 -0.03,-0.28 0,-0.16 0.03,-0.32 0.09,-0.47 0.45,0.37 0.93,0.88 1.51,0.5 0.58,-0.39 0.6,-1.09 1.51,-1.02 0.51,0.05 0.95,0.37 1.15,0.84 0.18,-0.2 0.43,-0.31 0.69,-0.31 0.13,0 0.25,0.02 0.36,0.07 0.33,0.16 0.54,0.49 0.54,0.85 0,0.03 0,0.06 -0.01,0.1 0.38,-0.1 0.78,-0.19 1.15,-0.05 0.36,0.14 0.59,0.6 0.39,0.91 -0.01,0.01 -0.02,0.02 -0.02,0.03 -0.17,0.22 -0.55,0.34 -0.51,0.61l0.06 0.04 0.18 0.13c0.7,0.51 1.38,1.04 2.04,1.59 0.34,0.29 0.7,0.63 0.73,1.07 0,0.02 0,0.03 0,0.05 0,0.09 -0.01,0.19 -0.04,0.28l0 0c-0.02,0.11 -0.05,0.21 -0.07,0.32 -0.04,0.18 -0.06,0.37 -0.06,0.56 0,0.09 0,0.18 0.01,0.27l0 0c0.01,0.08 0.02,0.16 0.04,0.24 0.21,1.06 1.06,1.93 1.14,3.01l0 0.08c0,0.03 0,0.07 0,0.11 0,0.08 0,0.16 -0.01,0.24 -0.06,0.65 -0.37,1.29 -0.61,1.91 -0.02,0.04 -0.03,0.08 -0.05,0.12 -0.47,1.23 -0.75,2.55 -0.96,3.86 -0.06,0.46 -0.16,0.93 -0.27,1.38 0.17,-0.05 0.34,-0.08 0.51,-0.1 -0.13,0.15 -0.29,0.29 -0.46,0.41 -0.11,0.07 -0.24,0.14 -0.36,0.19 -0.13,0.05 0,0 0,0.01 0.01,0.08 0.03,0.17 0.04,0.25 0.01,0.04 0.02,0.09 0.02,0.14l0 0c0,0 0,0 0,0 0,0 0,0 0,0 0.12,0.65 0.25,1.29 0.39,1.89l0.07 0.3c1.73,0.62 1.93,1.9 1.94,2.39 0,0.03 0.01,0.07 0.01,0.1 0,0.03 -0.01,0.06 -0.01,0.1 0,0.03 2.61,0.06 3.63,0.82 0.19,0.13 0.4,0.23 0.62,0.31 0.41,0.16 0.84,0.29 1.27,0.4 0.22,0.06 0.45,0.11 0.68,0.17 0.41,0.09 0.85,0.18 1.27,0.27 1.12,0.23 2.18,0.41 2.71,0.55 1.28,0.32 4.21,3.13 4.21,3.13 0,0 0.34,2.82 0.68,3.24 0.34,0.41 0.96,1.86 0.96,1.86l2.27 4.03 0.96 1.69 0.61 0c0.09,0 0.25,0.12 0.44,0.29 0.17,0.15 0.35,0.33 0.51,0.49l0.26 0.28 0.16 0.18c0,0 1,0.03 1.27,0.82 0.81,-0.03 1.81,0.03 2.5,0.34 0.1,0.04 0.19,0.09 0.28,0.15 0.29,0.16 0.49,0.45 0.56,0.77 0.02,0.07 0.03,0.13 0.03,0.2 0,0.08 0,0.16 0,0.23 -0.05,1.04 -0.73,1.9 -1.35,2.48l0.05 0.08c0,0 -0.02,0.05 -0.06,0.14 -0.02,0.02 -0.03,0.05 -0.04,0.09l0 0c-0.08,0.17 -0.21,0.43 -0.38,0.73 -0.36,0.66 -0.8,1.27 -1.31,1.81l-0.04 0.03 -7.92 0.07 -0.02 -0.02 -1.53 -1.83 -0.76 -0.91 -0.11 -0.11 -0.01 0.22 -0.06 0.81 -0.14 1.84 0 0.03 -14.7 0.13 -24.06 0.27 -0.02 0 -6.12 0.01c-0.07,0 -0.06,0.01 -0.06,-0.01z"/>
   <path class="fil8" d="M73.79 52.1c0,0 -13.63,1.65 -12.33,0 0.47,-0.59 0.6,-2.35 0.58,-4.36 -0.01,-0.61 -0.03,-1.24 -0.06,-1.87 -0.15,-3.02 -0.52,-5.96 -0.52,-5.96 0,0 11.92,-5.62 10.55,-1.17 -0.55,1.8 -0.37,4.33 0.05,6.7 0.12,0.69 0.26,1.37 0.41,2.02 0.36,1.56 0.81,3.12 1.33,4.64l-0.01 0z"/>
   <path class="fil5" d="M73.79 52.1c0,0 -13.63,1.65 -12.33,0 0.47,-0.59 0.6,-2.35 0.58,-4.36 2.08,-0.89 4.72,-0.23 4.72,-0.23 2.78,-0.55 4.57,-0.44 5.71,-0.05 0.36,1.56 0.81,3.12 1.33,4.64l-0.01 0z"/>
   <path class="fil6" d="M47.92 76.02l24.06 -0.27 14.7 -0.13 0 -0.03 0.13 -1.78 0.07 -0.87 0.11 -0.1 0.02 -0.19 0.85 -2.82 0.85 -2.82 0.71 -2.37 1.09 -3.63c0,0 -0.62,-1.44 -0.96,-1.85 -0.35,-0.41 -0.69,-3.22 -0.69,-3.22 0,0 -2.92,-2.79 -4.2,-3.11 -0.54,-0.13 -1.59,-0.32 -2.72,-0.55 -0.42,-0.08 -0.85,-0.17 -1.27,-0.27 -0.23,-0.05 -0.46,-0.11 -0.68,-0.17 -0.43,-0.1 -0.85,-0.24 -1.27,-0.39 -0.21,-0.08 -0.42,-0.18 -0.61,-0.31 -1.01,-0.74 -3.53,-0.82 -3.63,-0.82l0 0c0,0 0,-0.01 0,-0.01 0,0 0,0 0,0l0 -0.02c0,-0.02 0,-0.05 0,-0.08 0,-0.03 0,-0.06 0,-0.09 0,-0.05 0,-0.12 -0.01,-0.19 0,-0.02 0,-0.05 -0.01,-0.07 -0.01,-0.05 -0.02,-0.1 -0.03,-0.15 -0.01,-0.03 -0.01,-0.05 -0.02,-0.08 -0.04,-0.16 -0.1,-0.32 -0.17,-0.48 -0.01,-0.02 -0.02,-0.04 -0.03,-0.06 -0.07,-0.13 -0.15,-0.25 -0.23,-0.36 -0.02,-0.03 -0.04,-0.05 -0.06,-0.07 -0.11,-0.14 -0.24,-0.26 -0.38,-0.37 -0.03,-0.02 -0.07,-0.05 -0.11,-0.08 -0.02,-0.02 -0.05,-0.04 -0.07,-0.05l-0.12 -0.08 -0.12 -0.07c-0.1,-0.05 -0.2,-0.1 -0.32,-0.16 -0.03,-0.01 -0.07,-0.03 -0.11,-0.04 -0.04,-0.02 -0.1,-0.04 -0.15,-0.06l-0.01 0 -0.1 -0.04c-0.08,-0.03 -0.16,-0.05 -0.24,-0.07l-0.13 -0.04 -0.13 -0.03 -0.14 -0.03c-0.14,-0.02 -0.29,-0.05 -0.44,-0.07l-0.15 -0.02 -0.17 -0.01 -0.16 -0.02 -0.24 -0.01 -0.27 -0.01c0,0 0,0 0,0 -1.21,0 -2.42,0.13 -3.6,0.38 -0.7,-0.15 -1.42,-0.23 -2.15,-0.23 -0.11,0 -0.23,0 -0.35,0l-0.12 0 -0.13 0.01 -0.09 0 -0.18 0.02c-0.06,0 -0.12,0.01 -0.18,0.02 -0.05,0 -0.12,0.01 -0.18,0.02l-0.09 0.02c-0.08,0.01 -0.18,0.03 -0.27,0.05 -0.03,0 -0.06,0.01 -0.09,0.02 -0.12,0.02 -0.24,0.06 -0.36,0.09 -0.06,0.02 -0.11,0.04 -0.17,0.06 -0.03,0.01 -0.06,0.02 -0.09,0.03l-0.09 0.03 -0.09 0.03 -0.1 0.04c-0.05,0.03 -0.1,0.05 -0.15,0.07 -0.03,0.02 -0.06,0.03 -0.09,0.05 -0.02,0.01 -0.05,0.02 -0.08,0.04 -0.31,0.16 -0.6,0.36 -0.85,0.6l-0.07 0.06 -0.07 0.07c-0.02,0.03 -0.04,0.05 -0.06,0.08 -0.09,0.09 -0.18,0.2 -0.25,0.31 -0.03,0.02 -0.05,0.05 -0.07,0.08 -0.08,0.13 -0.16,0.27 -0.23,0.4 -0.02,0.04 -0.04,0.07 -0.05,0.1 -0.12,0.23 -0.21,0.48 -0.28,0.72 -0.02,0.09 -0.05,0.19 -0.07,0.28 -0.02,0.09 -2.9,1.28 -5.3,2.2 -0.64,0.25 -1.25,0.47 -1.75,0.64 -0.15,0.05 -0.28,0.1 -0.41,0.14 -0.28,0.1 -0.57,0.16 -0.86,0.2 -0.14,0 -0.27,0.01 -0.41,0.03 -1.11,0.18 -3,0.96 -3.21,1.75 -0.01,0.04 -0.01,0.08 -0.01,0.13 0,0.02 0,0.04 0,0.06 0,0.02 0,0.01 0,0.01 0.14,0.96 -0.82,0.82 -0.82,0.82 0,0 -0.35,2.54 -0.82,3.22 -0.35,0.5 -0.59,1.6 -0.62,2.43l0 0c0,0.06 0,0.12 0,0.18 0,0.2 0.02,0.39 0.06,0.59 0,0.01 0,0.01 0,0.02 0.06,0.18 -0.07,0.68 -0.3,1.33 -0.24,0.7 -0.59,1.58 -0.93,2.41 -0.52,1.25 -1,2.38 -1.03,2.63 -0.01,0.11 -0.05,0.31 -0.1,0.56 -0.2,1.05 -0.64,3.04 -0.86,3.84 -0.18,0.66 -0.39,1.35 -0.56,1.99l6.13 -0.01 0.01 0z"/>
   <path class="fil5" d="M50.16 59.98c0,0 7.81,4.04 10.62,3.56l-10.62 -3.56z"/>
   <path class="fil5" d="M66.05 58.34c0,0 7.61,2.46 10.14,2.81 2.54,0.34 -10.14,-2.81 -10.14,-2.81z"/>
   <path class="fil5" d="M74.49 50.4c-3.98,0.73 -11.46,0.58 -14.69,0.46 1.18,-4.24 6.96,-2.8 6.96,-2.8 7.16,-1.43 7.7,1.54 7.73,2.34z"/>
   <path class="fil6" d="M74.49 50.13c-3.98,0.73 -11.46,0.57 -14.69,0.46 1.18,-4.25 6.96,-2.8 6.96,-2.8 7.16,-1.43 7.7,1.53 7.73,2.34z"/>
   <path class="fil8" d="M95.58 68.85c0,0 4.68,-0.72 4.77,1.34 0.09,2.05 -2.39,3.49 -2.39,3.49l-2.38 -4.83z"/>
   <path class="fil5" d="M72.06 45.44c-0.2,0.09 -0.41,0.17 -0.62,0.24 -1.47,0.51 -2.96,1.02 -4.52,1.21 -1.55,0.19 -3.19,0.02 -4.54,-0.75 -0.14,-0.08 -0.28,-0.17 -0.41,-0.27 -0.15,-3.02 -0.52,-5.96 -0.52,-5.96 0,0 11.92,-5.62 10.55,-1.17 -0.54,1.8 -0.36,4.33 0.06,6.7z"/>
   <path class="fil2" d="M64.83 26.72c-0.11,0.03 -0.22,0.05 -0.33,0.05 -0.3,0 -0.58,-0.1 -0.81,-0.29l0.28 0.4c-0.04,0.01 -0.08,0.01 -0.13,0.01 -0.29,0 -0.58,-0.11 -0.79,-0.32 -0.01,0.11 -0.02,0.23 -0.02,0.34 0,0.24 0.02,0.49 0.06,0.72 -0.03,0.01 -0.06,0.01 -0.1,0.01 -0.44,0 -0.86,-0.15 -1.21,-0.42 0,0.01 0,0.03 0,0.04 0,0.24 0.14,0.46 0.36,0.55 -0.08,-0.01 -0.15,-0.01 -0.23,-0.01 -0.9,0 -1.68,0.61 -1.91,1.48l0.72 0.07c-0.56,0.12 -1.07,0.43 -1.43,0.87 -0.22,0.27 -0.39,0.62 -0.29,0.96 0.09,0.33 0.56,0.55 0.81,0.31 -0.58,0.69 -0.89,1.56 -0.89,2.46 0,0.22 0.02,0.44 0.05,0.66 0.05,0.17 0.08,0.35 0.08,0.53 0,0.06 -0.01,0.13 -0.01,0.19 -0.05,0.23 -0.19,0.42 -0.26,0.64 -0.14,0.4 -0.01,0.84 0.11,1.24l0.65 2.11c0.23,0.76 0.46,1.53 0.76,2.27 0.22,0.46 0.4,0.95 0.55,1.44 0.18,0.66 0.18,1.39 0.55,1.97 0.25,0.36 0.59,0.66 0.98,0.86 1.36,0.78 3,0.94 4.55,0.76 1.55,-0.19 3.04,-0.7 4.51,-1.21 0.33,-0.1 0.64,-0.24 0.94,-0.42 1.02,-0.66 1.25,-2.03 1.44,-3.24 0.21,-1.34 0.49,-2.68 1,-3.94 0.3,-0.75 0.68,-1.52 0.62,-2.32 -0.09,-1.07 -0.93,-1.94 -1.14,-2.99 -0.04,-0.17 -0.05,-0.34 -0.05,-0.51 0,-0.19 0.02,-0.37 0.06,-0.56 0.06,-0.21 0.1,-0.42 0.1,-0.64 -0.02,-0.44 -0.38,-0.78 -0.72,-1.06 -0.74,-0.62 -1.5,-1.2 -2.28,-1.75 -0.04,-0.27 0.33,-0.39 0.5,-0.61 0.24,-0.3 -0.01,-0.79 -0.37,-0.93 -0.36,-0.14 -0.77,-0.05 -1.15,0.04 0.01,-0.03 0.01,-0.07 0.01,-0.11 0,-0.5 -0.4,-0.9 -0.9,-0.9 -0.27,0 -0.52,0.11 -0.69,0.31 -0.2,-0.46 -0.64,-0.78 -1.15,-0.83 -0.91,-0.07 -0.93,0.62 -1.51,1.01 -0.58,0.38 -1.06,-0.13 -1.51,-0.49 -0.06,0.15 -0.09,0.3 -0.09,0.46 0,0.29 0.1,0.57 0.28,0.79z"/>
   <path class="fil6" d="M99.05 72.96c0,0 -0.12,0.29 -0.35,0.71 -0.34,0.65 -0.75,1.26 -1.23,1.81l-0.04 0.04 -0.22 0 -8.1 0.08 -0.02 -0.04 -1.54 -1.82 -0.58 -0.68 -1.26 -1.5 0.41 -1.71 0.7 -2.89 0.02 -0.07 0.14 -0.55 0.1 -0.41 0.32 -1.34 1.12 -4.61 1.99 1.03 2.09 3.7 1.13 1.99 0.61 0c0.12,0 0.39,0.22 0.66,0.48 0.09,0.09 0.19,0.19 0.27,0.27 0.24,0.26 0.44,0.47 0.44,0.47 0,0 1,0.02 1.26,0.81 0.02,0.04 0.03,0.08 0.04,0.12 0.09,0.31 0.2,0.61 0.34,0.9 0.18,0.38 0.4,0.82 0.63,1.26 0.42,0.8 0.84,1.56 1,1.84l0.02 0.03 0.05 0.08z"/>
   <path class="fil5" d="M87.28 66.78l-0.01 0.19 0 0.02 -0.03 0.31 -0.18 2.54 -0.22 3.05 -0.06 0.86 -0.14 1.85 0 0.02 -14.66 0.14 -24.06 0.26 -0.02 0 0 -0.04 0.06 -1.97 0.12 -3.84 0.1 -3.26 0.01 -0.33c0.03,-0.78 0.66,-1.4 1.44,-1.4 0.05,0 0.09,0 0.13,0.01 0.64,0.05 1.48,0.12 2.49,0.19l0.41 0.03c5.8,0.4 16.52,0.92 27.33,0.27 0.23,-0.01 0.46,-0.02 0.69,-0.04 1.67,-0.1 3.35,-0.24 5.01,-0.41 0.05,0 0.1,-0.01 0.15,-0.01 0.8,0 1.44,0.65 1.44,1.45 0,0.03 0,0.07 0,0.1l0 0.01z"/>
   <path class="fil2" d="M47.92 76.02l24.06 -0.27 14.66 -0.13 0.04 0 0 -0.03 0.14 -1.84 0.06 -0.82 0.22 -3.1 0.18 -2.45 0 -0.06c0,-0.04 0,-0.07 0,-0.11 0,-0.07 -0.01,-0.15 -0.02,-0.23 0,0 0,0 0,-0.01 0,0 0,0 0,0 -0.04,-0.23 -0.13,-0.45 -0.27,-0.64 -0.28,-0.35 -0.7,-0.55 -1.14,-0.55 -0.05,0 -0.1,0 -0.15,0 -1.66,0.17 -3.34,0.31 -5.01,0.41 -0.23,0.02 -0.46,0.03 -0.69,0.05 -10.81,0.64 -21.53,0.12 -27.33,-0.28l-0.41 -0.03c-1.01,-0.07 -1.85,-0.13 -2.49,-0.19 -0.04,0 -0.09,-0.01 -0.13,-0.01 -0.69,0 -1.29,0.5 -1.41,1.18 -0.02,0.07 -0.03,0.15 -0.03,0.22l-0.09 3.04 -0.13 3.85 -0.06 1.96 0 0.04z"/>
   <path class="fil5" d="M87.32 67.74l-0.17 2.1 -0.27 3.1 -0.06 0.81 -0.14 1.84 0 0.03 -14.69 0.14 -24.07 0.26 0 -0.04 0.07 -1.97 0.14 -3.84 0.08 -2.56c0.01,-0.3 0.17,-0.57 0.42,-0.72 0.14,-0.08 0.29,-0.13 0.45,-0.13 0.02,0 0.05,0.01 0.07,0.01 0.29,0.02 0.64,0.05 1.05,0.08 0.67,0.05 1.5,0.11 2.46,0.17 1.78,0.11 4.02,0.23 6.58,0.33 7.12,0.27 16.74,0.36 25.88,-0.44 0.41,-0.03 0.83,-0.07 1.25,-0.11 0.03,-0.01 0.05,-0.01 0.08,-0.01 0.14,0 0.27,0.04 0.39,0.1 0.05,0.02 0.09,0.04 0.12,0.07 0.12,0.09 0.22,0.2 0.28,0.34 0.01,0.03 0.02,0.05 0.03,0.08 0.03,0.1 0.05,0.2 0.05,0.3 0,0.02 0,0.04 0,0.06l0 0z"/>
   <path class="fil5" d="M40.84 69.61l0 0.44c0,0 0,0 0,0 0,0.32 -0.18,0.62 -0.48,0.76l-5.49 0.1c-0.3,-0.13 -0.49,-0.43 -0.49,-0.76 0,0 0,0 0,0l0 -0.41 6.46 -0.13z"/>
   <polygon class="fil2" points="40.91,71.07 33.75,71.2 33.75,70.02 40.91,69.88 "/>
   <polygon class="fil5" points="40.91,71.07 33.75,71.2 33.75,70.02 40.91,69.88 "/>
   <polygon class="fil2" points="41.18,71.07 34.03,71.2 34.03,70.02 41.18,69.88 "/>
   <path class="fil10" d="M64.89 26.28c-0.14,-0.18 -0.23,-0.38 -0.26,-0.6 -0.01,0.07 -0.02,0.13 -0.02,0.2 0,0.15 0.03,0.29 0.07,0.43 0.07,-0.01 0.14,-0.02 0.21,-0.03l0 0z"/>
   <path class="fil10" d="M63.15 27.18c-0.03,-0.16 -0.05,-0.33 -0.05,-0.5 0,0.17 0,0.34 0,0.51l0.05 -0.01z"/>
   <path class="fil10" d="M74.31 31.76c0.01,-0.12 0.03,-0.25 0.05,-0.37 0.07,-0.2 0.1,-0.42 0.11,-0.64 0,-0.05 -0.01,-0.1 -0.02,-0.14 -0.02,0.12 -0.06,0.25 -0.09,0.37 -0.04,0.18 -0.06,0.37 -0.06,0.55 0,0.08 0.01,0.15 0.01,0.23l0 0z"/>
   <path class="fil10" d="M71.46 27.52l0.15 0.11c0.13,-0.09 0.25,-0.19 0.35,-0.3 0.07,-0.09 0.1,-0.19 0.1,-0.3 0,-0.07 -0.02,-0.14 -0.04,-0.2 -0.02,0.03 -0.04,0.06 -0.06,0.09 -0.16,0.21 -0.54,0.33 -0.5,0.6z"/>
   <path class="fil10" d="M60.2 28.84c-0.05,0.1 -0.09,0.21 -0.11,0.31 0.21,-0.12 0.44,-0.2 0.68,-0.26l-0.57 -0.05z"/>
   <path class="fil10" d="M62.09 27.35c-0.09,-0.05 -0.17,-0.11 -0.25,-0.17 0,0.01 -0.01,0.03 -0.01,0.04 0,0.04 0.01,0.08 0.02,0.12 0.02,0 0.05,0 0.08,0 0.05,0 0.11,0.01 0.16,0.01l0 0z"/>
   <path class="fil10" d="M75.49 35.42c-0.06,0.67 -0.37,1.31 -0.62,1.94 -0.5,1.26 -0.78,2.6 -1,3.95 -0.19,1.2 -0.41,2.57 -1.43,3.23 -0.3,0.18 -0.61,0.32 -0.94,0.42 -1.48,0.51 -2.97,1.02 -4.52,1.21 -1.56,0.18 -3.19,0.02 -4.55,-0.76 -0.39,-0.2 -0.73,-0.5 -0.98,-0.86 -0.36,-0.58 -0.37,-1.31 -0.55,-1.97 -0.14,-0.49 -0.33,-0.98 -0.55,-1.44 -0.3,-0.74 -0.53,-1.51 -0.76,-2.27 -0.22,-0.7 -0.43,-1.41 -0.65,-2.11 -0.06,-0.22 -0.12,-0.43 -0.15,-0.65 -0.05,0.35 0.05,0.71 0.16,1.06 0.21,0.7 0.42,1.41 0.64,2.11 0.23,0.76 0.46,1.53 0.76,2.27 0.22,0.46 0.41,0.95 0.55,1.44 0.18,0.66 0.18,1.39 0.55,1.97 0.25,0.36 0.59,0.66 0.98,0.86 1.36,0.78 3,0.94 4.55,0.76 1.55,-0.19 3.04,-0.7 4.52,-1.21 0.33,-0.1 0.64,-0.24 0.94,-0.41 1.02,-0.67 1.24,-2.04 1.43,-3.24 0.22,-1.35 0.5,-2.69 1,-3.95 0.3,-0.75 0.69,-1.51 0.62,-2.32 0,-0.01 0,-0.02 0,-0.03z"/>
   <path class="fil10" d="M59.09 34.89c0,0 0,-0.01 0,-0.01 0.01,-0.07 0.01,-0.13 0.01,-0.2 0,-0.17 -0.02,-0.35 -0.07,-0.52 -0.03,-0.15 -0.05,-0.3 -0.06,-0.46 0,0.07 0,0.14 0,0.21 0,0.22 0.02,0.44 0.06,0.66 0.02,0.11 0.04,0.21 0.06,0.32z"/>
   <path class="fil10" d="M59.51 31.54c0.1,-0.17 0.22,-0.34 0.36,-0.5 -0.26,0.24 -0.72,0.03 -0.82,-0.31 -0.01,0.07 -0.02,0.14 -0.02,0.21 0,0.07 0.01,0.14 0.02,0.2 0.07,0.21 0.25,0.36 0.46,0.4l0 0z"/>
   <path class="fil5" d="M93.73 66.69c0,0 0.43,1.58 0,2.95 -0.44,1.37 0,-2.95 0,-2.95z"/>
   <path class="fil5" d="M95.58 68.3c0,0 0.18,2 -0.23,2.36 -0.41,0.35 0.23,-2.36 0.23,-2.36z"/>
   <polygon class="fil6" points="27.26,46.85 41.18,46.71 41.19,47.82 27.27,47.96 "/>
   <polygon class="fil6" points="27.26,48.56 41.18,48.42 41.19,49.53 27.27,49.66 "/>
   <polygon class="fil6" points="27.26,50.27 41.18,50.13 41.19,51.24 27.27,51.37 "/>
  </g>
 </g>
</svg>
