<svg xmlns="http://www.w3.org/2000/svg" xml:space="preserve" width="512" height="389" style="shape-rendering:geometricPrecision;text-rendering:geometricPrecision;image-rendering:optimizeQuality;fill-rule:evenodd;clip-rule:evenodd" viewBox="0 0 299.48 227.37"><defs><style>.fil3,.fil7{fill-rule:nonzero}.fil7{fill:#2f2e41}.fil3{fill:#3f3d56}.fil1,.fil5,.fil6{fill-rule:nonzero}.fil5,.fil6{fill:#d93}.fil1{fill:#e6e6e6}.fil2,.fil8{fill-rule:nonzero}.fil8{fill:#fbbebe}.fil2{fill:#000;fill-opacity:.101961}</style></defs><g id="Layer_x0020_1"><g id="_2039577758832"><path d="M144.89 201.02C80.43 196.12 3.56 146.17 7.48 94.74 11.39 43.32 85.84-4.56 150.3.35c64.46 4.9 101.56 101.01 97.65 152.44-3.91 51.43-38.6 53.14-103.06 48.23z" style="fill:#d93;fill-rule:nonzero;fill-opacity:.101961"/><ellipse class="fil1" cx="150.3" cy="201.04" rx="134.56" ry="8.24"/><path class="fil2" d="M264.91 200.91c0-3.01-51.31-5.46-114.61-5.46s-114.61 2.45-114.61 5.46 51.31 5.45 114.61 5.45 114.61-2.44 114.61-5.45z"/><ellipse class="fil1" cx="56.43" cy="222.45" rx="56.43" ry="4.92"/><path class="fil2" d="M104.49 222.37c0-1.8-21.52-3.26-48.06-3.26-26.55 0-48.07 1.46-48.07 3.26 0 1.79 21.52 3.25 48.07 3.25 26.54 0 48.06-1.46 48.06-3.25z"/><path class="fil3" d="M52.17 43.08h199.97v156.89H52.17z"/><path d="M149.88 64.52h-49.33c-.33 0-.6-.27-.6-.6 0-.33.27-.6.6-.6h49.33c.33 0 .6.27.6.6 0 .33-.27.6-.6.6zm54.01 6.59H126.3c-.33 0-.6-.27-.6-.6 0-.33.27-.6.6-.6h77.59c.33 0 .6.27.6.6 0 .33-.27.6-.6.6zm-53.77 6.58h-49.33c-.33 0-.6-.27-.6-.6 0-.33.27-.59.6-.59h49.33c.33 0 .6.26.6.59 0 .33-.27.6-.6.6zm53.77.12h-49.34c-.33 0-.59-.27-.59-.6 0-.33.26-.59.59-.59h49.34c.33 0 .6.26.6.59 0 .33-.27.6-.6.6zm-53.65 6.47h-49.33c-.33 0-.6-.27-.6-.6 0-.33.27-.6.6-.6h49.33c.33 0 .6.27.6.6 0 .33-.27.6-.6.6zm.12 6.58h-49.33c-.33 0-.6-.26-.6-.59 0-.33.27-.6.6-.6h49.33c.33 0 .6.27.6.6 0 .33-.27.59-.6.59zm22.4-26.22h-14.13c-.33 0-.6-.27-.6-.6 0-.33.27-.6.6-.6h14.13c.33 0 .59.27.59.6 0 .33-.26.6-.59.6zm0 19.64h-14.13c-.33 0-.6-.27-.6-.6 0-.33.27-.6.6-.6h14.13c.33 0 .59.27.59.6 0 .33-.26.6-.59.6zm0 6.47h-14.14c-.33 0-.59-.27-.59-.6 0-.33.26-.6.59-.6h14.14c.33 0 .6.27.6.6 0 .33-.27.6-.6.6zm23.7 0h-14.13a.6.6 0 0 1-.59-.6c0-.33.26-.6.59-.6h14.14c.33 0 .59.27.59.6 0 .33-.26.6-.59.6h-.01zm-81.9-19.64h-14.13c-.33 0-.6-.27-.6-.6 0-.33.27-.6.6-.6h14.13c.33 0 .6.27.6.6 0 .33-.27.6-.6.6zm35.38 90.4h-49.33c-.33 0-.6-.27-.6-.6 0-.33.27-.6.6-.6l49.33.01c.34-.01.6.26.6.59 0 .33-.26.6-.6.6zm-.24 13.17h-49.33a.595.595 0 1 1 0-1.19h49.33c.34 0 .6.26.6.59 0 .34-.26.6-.6.6zm.13 6.59h-49.34c-.33 0-.6-.27-.6-.6 0-.33.27-.6.6-.6h49.34c.33 0 .59.27.59.6 0 .33-.26.6-.59.6zm21.07-6.47h-14.13c-.33 0-.6-.27-.6-.6 0-.33.27-.59.6-.59h14.13c.33 0 .6.26.6.59 0 .33-.27.6-.6.6zm0 6.47h-14.13c-.33 0-.6-.27-.6-.6 0-.33.27-.6.6-.6h14.13c.33 0 .6.27.6.6 0 .33-.27.6-.6.6zm23.71-6.47h-14.13c-.33 0-.6-.27-.6-.6 0-.33.27-.59.6-.59h14.13c.33 0 .6.26.6.59 0 .33-.27.6-.6.6zm9.34-6.7h-77.59c-.33 0-.6-.27-.6-.6 0-.33.27-.6.6-.6h77.59c.33 0 .6.27.6.6 0 .33-.27.6-.6.6zm-89.33 0h-14.13c-.33 0-.6-.27-.6-.6 0-.33.27-.6.6-.6h14.13c.33 0 .6.27.6.6 0 .33-.27.6-.6.6zm89.33 19.87h-77.6c-.33 0-.59-.26-.59-.59 0-.33.26-.6.59-.6h77.6c.33 0 .6.27.6.6 0 .33-.27.59-.6.59zm-89.33 0h-14.13c-.33 0-.6-.26-.6-.59 0-.33.27-.6.6-.6h14.13c.33 0 .6.27.6.6 0 .33-.27.59-.6.59z" style="fill:#f2f2f2;fill-rule:nonzero"/><circle class="fil5" cx="57.49" cy="47.07" r="2.39"/><circle class="fil5" cx="63.87" cy="47.07" r="2.39"/><circle class="fil5" cx="70.26" cy="47.07" r="2.39"/><path class="fil2" d="M52.17 51.86h199.98v-.8H52.17z"/><path class="fil6" d="M299.48 161.54c0 16.95-10.08 22.88-22.52 22.88-12.43 0-22.51-5.93-22.51-22.88 0-16.96 22.51-38.53 22.51-38.53s22.52 21.57 22.52 38.53z"/><path class="fil3" d="m276.14 181.82.23-14.19 9.6-17.56-9.56 15.33.1-6.38 6.62-12.7-6.59 11.01.19-11.47 7.08-10.12-7.05 8.31.11-21.04-.73 27.86.06-1.15-7.2-11.03 7.09 13.23-.67 12.82-.02-.34-8.31-11.6 8.28 12.8-.08 1.61-.02.02.01.13-1.7 32.52h2.27l.27-16.79 8.26-12.78z"/><path class="fil7" d="M32.61 199.73c-.69.39-1.42.7-2.18.94-1.35.36-2.79.23-4.15.54-.56.13-1.17.4-1.35.95-.13.4.01.83.15 1.23 1.51 4.42 2.41 9.11 4.82 13.11 1.01 1.68 2.26 3.21 3.72 4.52.54.49 1.16.97 1.9 1.05a1.931 1.931 0 0 0 1.96-2.71c-.22-.48-.62-.85-.88-1.3-.28-.59-.44-1.22-.48-1.86-.24-1.89-.47-3.87.19-5.66.44-1.2 1.24-2.22 1.91-3.31.67-1.08 1.23-2.33 1.08-3.6-.1-.87-.52-1.66-.97-2.41-.44-.75-1.33-2.76-2.23-3.02-.93-.26-2.68 1.12-3.49 1.53zM57.19 215v.12c0 .39-.06.77-.18 1.14-.28.74-.98 1.25-1.34 1.96-.5.98-.27 2.17.06 3.23.21.66.48 1.34 1.04 1.75.48.3 1.02.47 1.59.51 4.79.66 9.66.28 14.5.42.89.03 1.82.06 2.59-.37.77-.43 1.25-1.52.72-2.23-.47-.64-1.4-.63-2.19-.67a8.96 8.96 0 0 1-5.56-2.29c-.3-.26-.57-.56-.78-.9-.16-.29-.3-.61-.41-.93-.68-1.83-1.49-3.63-2.41-5.35-.26-.48-.56-.99-1.04-1.25-.36-.16-.74-.24-1.13-.24-1.21-.08-4.33-.49-5.26.45-.87.87-.18 3.55-.2 4.65z"/><circle class="fil8" cx="64.61" cy="100.18" r="7.71"/><path class="fil8" d="M57.65 106.54c-.45 1.23-1.23 2.38-2.36 3.04l10.65 2.18a11.52 11.52 0 0 1-.15-4.76c.07-.23.1-.48.1-.73 0-.15-.01-.29-.03-.44-.2-.77-1.07-1.14-1.85-1.32-1.95-.45-3.67-.68-5.47-1.54-.56.94-.48 2.48-.89 3.57z"/><path class="fil7" d="M55.2 106.7a8.33 8.33 0 0 1 7.26.19c1.37.72 2.5 1.8 3.61 2.88 1.03.98 2.12 2.12 2.19 3.54.04.69-.18 1.36-.29 2.04-.04.31-.06.63-.06.94 0 2.57 1.44 4.93 3.73 6.1.84 1.41 1.02 3.12 1.03 4.76.05 6.23-1.92 12.54-.51 18.62.33 1.42.84 2.8 1.12 4.24.37 1.86.35 3.77.55 5.65.2 2.04.66 4.06 1.36 5.99-.47.73-1.43 1.02-2.3.96-.87-.06-1.68-.44-2.46-.84-3.76-1.92-7.2-4.45-11.09-6.09-2.57-1.08-5.31-1.75-7.81-3-2.49-1.25-4.82-3.23-5.58-5.91-.33-1.16-.35-2.39-.37-3.59-.07-5.09-.14-10.22.96-15.19.98-4.37 2.86-8.56 3.27-13.02.13-1.45.13-3.01.95-4.22 1.15-1.72 3.62-2.16 4.44-4.05z"/><path class="fil7" d="M60.23 100.29c.45-.59 1.33-.67 2.05-.5.73.18 1.4.55 2.13.69.11.03.23.05.34.05.23 0 .46-.07.66-.19.25-.25.41-.59.43-.95.16-.99.25-2 .25-3 0-.54-.03-1.08-.08-1.62-.01-.08-.02-.16-.02-.24 0-.14.03-.28.07-.41.18-.43.73-.54 1.18-.68a3.538 3.538 0 0 0 2.41-3.35c0-.09 0-.18-.01-.27-.01-.38-.17-.74-.44-1-.31-.25-.75-.27-1.15-.27-2.07-.02-4.15-.02-6.22 0-.76.01-1.57.02-2.23.41-.49.28-.86.73-1.3 1.09-1.15.93-2.71 1.12-4.11 1.59-.68.2-1.3.57-1.8 1.08-.46.53-.69 1.32-.39 1.96.15.27.32.53.5.77.82 1.32.27 3.04.4 4.59.15 1.94 3.02 5.08 4.96 5.54 3.14.74 1.33-4.02 2.37-5.29zm-4.35 84.98c.2 1.41.45 2.83.38 4.26-.09 1.99-.81 3.91-.94 5.9-.1 1.49.13 2.99-.08 4.47-.13.94-.44 1.85-.63 2.79a11.532 11.532 0 0 0 1.86 8.84c.13.22.31.4.53.52.17.07.35.1.53.1.05 0 .09 0 .14-.01 2.23-.04 4.48-.25 6.69-.61.17 0 .32-.07.43-.19a.55.55 0 0 0 .1-.25c.41-2.11-.53-4.23-.77-6.36-.25-2.28.3-4.57.84-6.8.24-1.1.56-2.19.92-3.25.26-.72.58-1.42.81-2.15.32-1.14.52-2.32.58-3.51.16-1.87.25-3.75.26-5.63 0-.24.01-.48.01-.72 0-1.54-.16-3.09-.46-4.61-.5-2.21-1.52-4.27-2.53-6.31-.54.13-1.05.38-1.5.71-1.3.85-2.67 1.61-4.08 2.26-.95.44-2.8.75-3.4 1.67-.59.91-.21 2.75-.16 3.75.07 1.72.23 3.42.47 5.13z"/><path class="fil2" d="M55.88 185.27c.2 1.41.45 2.83.38 4.26-.09 1.99-.81 3.91-.94 5.9-.1 1.49.13 2.99-.08 4.47-.13.94-.44 1.85-.63 2.79a11.532 11.532 0 0 0 1.86 8.84c.13.22.31.4.53.52.17.07.35.1.53.1.05 0 .09 0 .14-.01 2.23-.04 4.48-.25 6.69-.61.17 0 .32-.07.43-.19a.55.55 0 0 0 .1-.25c.41-2.11-.53-4.23-.77-6.36-.25-2.28.3-4.57.84-6.8.24-1.1.56-2.19.92-3.25.26-.72.58-1.42.81-2.15.32-1.14.52-2.32.58-3.51.16-1.87.25-3.75.26-5.63 0-.24.01-.48.01-.72 0-1.54-.16-3.09-.46-4.61-.5-2.21-1.52-4.27-2.53-6.31-.54.13-1.05.38-1.5.71-1.3.85-2.67 1.61-4.08 2.26-.95.44-2.8.75-3.4 1.67-.59.91-.21 2.75-.16 3.75.07 1.72.23 3.42.47 5.13z"/><path class="fil7" d="M45.46 155.04c-1.02 2.75.48 5.73 1.79 8.36 3.22 6.49 5.46 13.41 7.68 20.3.17.51.33 1.08.15 1.59-.16.36-.42.67-.75.89-1.54 1.16-3.49 1.58-5.32 2.18-1.76.59-3.45 1.39-5.03 2.37-1.33.82-2.56 1.76-3.8 2.71l-3.94 3.01c-.26.17-.48.38-.66.63-.38.6-.23 1.38-.04 2.06.5 1.8 1.15 3.57 1.93 5.26.13.37.38.7.7.92.62.33 1.37-.11 1.84-.63.47-.51.87-1.15 1.54-1.38.66-.22 1.38.05 2.07-.05 1.12-.15 1.86-1.18 2.67-1.97 3.29-3.23 8.77-2.99 12.39-5.85.52-.46 1.08-.9 1.66-1.29.61-.36 1.31-.56 1.94-.88 1.93-.97 3.14-2.98 3.79-5.04.65-2.06.84-4.24 1.3-6.35.25-1.09.56-2.17.67-3.28.03-.39.04-.78.04-1.17 0-.64-.04-1.29-.11-1.93l-1.3-16.15c-.11-1.31-.22-2.63-.42-3.93-3.88.14-7.75.3-11.63.34-3.09.04-6.23.25-9.16-.72z"/><path class="fil7" d="M44.04 158.82c.52.84 1.8.82 2.68.36.89-.46 1.57-1.24 2.45-1.7 1.19-.62 2.6-.6 3.93-.56 2.12.06 4.26.13 6.3.71 2.11.6 4.16 1.75 6.34 1.52.38-.04.79-.15 1-.47.11-.21.17-.44.17-.68v-.07l.07-1.91c.01-.07.01-.15.01-.22 0-.26-.06-.51-.16-.74-.19-.25-.44-.44-.73-.55-3.1-1.51-6.64-1.78-10.08-1.9-1.75-.06-3.5-.09-5.25-.08-1.49.01-3.28-.2-4.72.19-1.94.54-3 4.51-2.01 6.1z"/><path class="fil5" d="M63.51 108.96c-4.06-.04-7.74-2.72-11.81-2.79h-.21c-.42 0-.84.08-1.22.25-.57.29-.94.84-1.37 1.3-1.2 1.3-2.94 2-4.18 3.27-1.15 1.19-1.8 2.96-1.34 4.56.46 1.6 2.18 2.82 3.8 2.44a9.727 9.727 0 0 1 3.81-5.18c.95-.61 1.95-1.14 2.98-1.57 1.83-.83 3.87-1.67 5.78-1.05.7.27 1.36.63 1.97 1.08l3.17 2.13c-.37-1.46-.7-3.1-1.38-4.44z"/><path class="fil5" d="M46.71 116.57c-.54.68.24 1.65.12 2.51-.08.57-.55 1-.74 1.54-.2.56-.1 1.18-.17 1.76-.08.43-.19.85-.34 1.26-.34 1.22-.59 2.48-.72 3.73l-.71 5.32c-.12.79-.2 1.6-.22 2.41 0 .14.01.28.01.43 0 .46-.05.92-.13 1.37-.16.58-.51 1.09-.74 1.64-.24.56-.35 1.23-.03 1.74-1.06.88-1.38 2.62-.64 3.79.15.18.26.38.33.6.01.07.02.14.02.2 0 .24-.06.47-.16.69l-.72 1.91c-.19.49-.24 1.24.27 1.35-.43.44-.76.96-.97 1.54-.08.2-.11.41-.11.62 0 .4.13.79.37 1.1.17.16.33.35.45.55.02.12.04.23.04.35 0 .18-.03.35-.1.51-.06.26-.1.53-.1.79 0 .6.17 1.19.5 1.7.41.62 1.1.99 1.85.99.13 0 .26-.01.38-.03 1.44-.33 2.74-.84 4.19-.57 3.12.57 6.25 1.14 9.28 2.11 3.45 1.1 6.79 2.72 10.4 3.06.07.01.14.02.21.02.17 0 .34-.05.49-.13.18-.17.3-.41.32-.66.37-1.74.74-3.49 1.12-5.23.44-1.92.79-3.9 1.02-5.86.13-1.27.16-2.55.2-3.83l.29-10.16c.02-.3.04-.61.04-.91 0-1.2-.21-2.39-.63-3.51l-1.65-5.28c-.94-3.01-3.11-5.68-3.88-8.74-.49-1.94-.85-4.02-2.16-5.53-1.86-2.15-5.09-2.49-7.91-2.12-1.28.17-2.56.46-3.67 1.12-1.27.76-2.21 1.97-3.12 3.15-.75.97-1.51 1.75-2.28 2.7z"/><path class="fil8" d="M53.3 146.48c.24 1 .72 1.93 1.02 2.91.5 1.65.46 3.43.96 5.08.21.69.52 1.36.67 2.07.35 1.65-.16 3.36-.8 4.92-.64 1.57-1.41 3.11-1.62 4.78-.15 1.18.06 2.52.97 3.28.95.8 2.32.74 3.55.64.44-.01.88-.1 1.29-.27.94-.44 1.33-1.56 1.55-2.58.74-3.4.53-6.94.32-10.42l-.56-9.1c-.11-1.75-.23-3.54-.77-5.23-.19-.61-.54-1.85-1.1-2.24-.55-.38-2.13-.4-2.82-.43-3.21-.15-3.18 4.34-2.66 6.59z"/><path class="fil7" d="M56.87 112.87c-.66-.35-1.49-.2-2.12.18-.62.42-1.15.94-1.59 1.54-1.42 1.74-2.92 3.73-2.71 5.96.08.83.4 1.62.61 2.44.96 3.55-.1 7.32.02 11 .07 2.12.54 4.22 1 6.29.09.43.24.92.65 1.06.31.11.64-.03.95-.15.83-.3 1.72-.46 2.61-.46 1.54 0 3.03.46 4.29 1.34.76-.41.48-1.7.31-2.54-.51-2.52.18-5.11 1.02-7.54.83-2.42 1.83-4.85 1.97-7.41.16-2.9-.8-5.73-1.75-8.48-.21-.6-.44-1.23-.92-1.64-.41-.31-.88-.53-1.38-.64-1.01-.3-2.03-.47-2.96-.95z"/><path class="fil6" d="m121.2 120.01-6.77 15.92c-.14.4-.37.7-.67.92-.3.22-.63.33-.99.33-.56 0-.98-.15-1.25-.47-.27-.31-.41-.7-.41-1.16 0-.18.03-.38.1-.59l7.8-18.74c.17-.42.42-.74.77-.97.34-.23.71-.32 1.11-.28.37 0 .72.11 1.05.33.32.22.56.52.7.92l7.71 18.36c.1.27.16.52.16.75 0 .57-.19 1.02-.55 1.35-.37.34-.77.5-1.21.5-.37 0-.71-.11-1.02-.34-.3-.23-.53-.55-.7-.94l-6.74-15.7.91-.19zm-5.8 12.1 1.73-3.61h8.46l.59 3.61H115.4zm39.85-12.16c1.46 0 2.77.37 3.93 1.11 1.16.74 2.08 1.76 2.76 3.06.67 1.29 1.01 2.8 1.01 4.51s-.34 3.22-1.01 4.53c-.68 1.3-1.59 2.33-2.73 3.07-1.14.74-2.42 1.11-3.84 1.11-.83 0-1.62-.14-2.35-.41-.73-.27-1.37-.61-1.93-1.03-.55-.42-.98-.84-1.28-1.27-.3-.43-.45-.79-.45-1.08l.97-.41v2.29c0 .54-.18 1-.54 1.36-.35.37-.8.55-1.34.55-.55 0-1-.18-1.35-.53-.36-.36-.53-.82-.53-1.38v-19.68c0-.54.17-1 .53-1.36.35-.37.8-.55 1.35-.55.54 0 .99.18 1.34.55.36.36.54.82.54 1.36v7.96l-.54-.28c0-.27.15-.6.44-.99.3-.39.69-.77 1.19-1.16.5-.39 1.08-.7 1.74-.95.66-.26 1.35-.38 2.09-.38zm-.47 3.45c-.92 0-1.73.23-2.42.69-.69.46-1.22 1.08-1.61 1.86-.39.78-.58 1.68-.58 2.68 0 .98.19 1.87.58 2.68.39.8.92 1.43 1.61 1.89.69.46 1.5.69 2.42.69.92 0 1.71-.23 2.39-.69.68-.46 1.21-1.09 1.6-1.89.39-.81.58-1.7.58-2.68 0-1-.19-1.9-.58-2.68-.39-.78-.92-1.4-1.6-1.86-.68-.46-1.47-.69-2.39-.69zm32.32-3.45c1.19 0 2.23.12 3.12.38.88.25 1.57.6 2.06 1.05.49.44.74.98.74 1.61 0 .42-.13.81-.38 1.17-.25.37-.61.55-1.09.55-.34 0-.61-.04-.83-.14-.22-.09-.42-.21-.58-.36a3.5 3.5 0 0 0-.6-.41c-.21-.12-.53-.22-.95-.29a5.55 5.55 0 0 0-.96-.11c-1.07 0-1.97.23-2.71.69-.74.46-1.31 1.08-1.71 1.86-.39.78-.59 1.69-.59 2.71 0 1 .2 1.9.61 2.68.41.78.97 1.4 1.69 1.86.72.46 1.55.69 2.49.69.52 0 .97-.03 1.35-.09.37-.06.69-.16.94-.28.29-.17.55-.35.78-.54.23-.18.58-.28 1.04-.28.54 0 .96.17 1.25.52.29.34.44.77.44 1.27 0 .52-.29 1-.88 1.42-.58.43-1.35.78-2.3 1.04-.95.26-1.98.39-3.09.39-1.65 0-3.08-.38-4.29-1.14a7.776 7.776 0 0 1-2.81-3.12c-.65-1.32-.98-2.79-.98-4.42 0-1.71.35-3.22 1.05-4.53.7-1.3 1.67-2.33 2.91-3.07 1.24-.74 2.67-1.11 4.28-1.11z"/></g></g></svg>