<svg xmlns="http://www.w3.org/2000/svg" xml:space="preserve" width="512" height="424" style="shape-rendering:geometricPrecision;text-rendering:geometricPrecision;image-rendering:optimizeQuality;fill-rule:evenodd;clip-rule:evenodd" viewBox="0 0 500.13 414.02"><defs><style>.fil2{fill:#38364d;fill-rule:nonzero}.fil3{fill:#3f3d56}.fil3,.fil5,.fil8{fill-rule:nonzero}.fil8{fill:#3f3d56}.fil5{fill:#7f77ff}.fil4,.fil6,.fil9{fill-rule:nonzero}.fil9{fill:#cfcce0}.fil4,.fil6{fill:#d93}.fil0{fill:#e6e6e6}.fil0,.fil11,.fil7{fill-rule:nonzero}.fil11{fill:#ffb8b8}.fil7{fill:#fff}</style></defs><g id="Layer_x0020_1"><g id="_2039576069264"><ellipse class="fil0" cx="405.86" cy="406.1" rx="66.1" ry="7.92"/><path d="M241.31 378.21c121.28-9.23 265.91-103.2 258.54-199.96C492.49 81.5 352.42-8.58 231.14.65 109.86 9.88 40.05 190.71 47.42 287.46c7.36 96.76 72.62 99.98 193.89 90.75z" style="fill:#d93;fill-rule:nonzero;fill-opacity:.101961"/><path class="fil2" d="M0 288.24h344.41V67.46H0v14.63z"/><path class="fil3" d="M9.85 95.33h324.71v179.86H9.85z"/><circle class="fil4" cx="10.73" cy="74.95" r="2.71"/><circle class="fil4" cx="21.02" cy="74.95" r="2.71"/><circle class="fil4" cx="31.31" cy="74.95" r="2.71"/><path class="fil5" d="M194.39 140.62c-.06.2-.09.4-.1.61l.1-.61zm-41.53 19c-.02-.45-.1-.64-.17-.67.05.42.1.77.17.67zm-.84 9.54c-.01.2-.03.38-.05.6a.833.833 0 0 1-.03-.22c0-.13.03-.26.08-.38zm42.27-27.93-.25 1.59c.26.11.2-.81.25-1.59zm14.32-14.78h.49c.14-.09.28-.2.4-.33l-.89.33zm18.9.84c.04-.23.21-.42.44-.47-.13-.18-.27-.34-.44-.49-.23-.03.02.66 0 .96zm19.77-13.48c.07-.01.13-.02.18-.03l-.18.03zm-.39.07.39-.07c-.13.02-.28.04-.39.07zm-53.4 14.2c-.02 0-.03-.01-.05-.01a.24.24 0 0 0-.2.12c.09.06.17 0 .25-.11zm77.89-13.5.03.33c.13.04.26.06.39.07l-.42-.4zM150.5 180.75c.01 0 .01 0 0 .01 0 .01-.01.01-.01.02s-.08.02-.13.02c-.03 0-.06-.01-.08-.01l.2-.03c.01-.01.02-.01.02-.01zm-55.11 75.8c-1.93-.61 3.14-.79.23-1.47.27.27-2.64 1.07-.23 1.47zm15.42-66.92c-.07.16-.17.31-.3.43.14-.32.23-.42.3-.43zm28.56-7.45c-.26-.01-.53-.04-.78-.09l.78.09zm-38.78 9.88a1.9 1.9 0 0 0-.41-.04c-.13 0-.27.01-.4.04.05.03.11.06.17.08.15-.06.31-.09.48-.09.05 0 .11 0 .16.01zm0 0c.1.01.21.03.34.05a3.98 3.98 0 0 0-.34-.05zm-16.87.06c.1.05.22.09.32.13l.55-.03-.87-.1zm14.29.46c0 .02-.02.04-.04.05.02-.03.04-.05.04-.05zm170.56 62.97-.34-.03c.13.02.24.03.34.03zm4.64-15.79h-.01c0 .02.01.01.01 0zm-135.3-57.13c.17-.04.34-.09.51-.16.36.1-.13.09-.51.16zm134.8-3.19c.03-.12.05-.25.09-.41-.04.14-.06.27-.09.41z"/><path class="fil6" d="M273.59 231.57c.06-.12.13-.22.22-.31l.07.24a4.061 4.061 0 0 0-.1-1.5c.11-.65.17-1.31.19-1.97.52-.28.28-2.8.31-4.02-.69.1-.58-1.46-1.13-.03.04-.09.06.33.09 1.07.01.18.04.35.07.52a.328.328 0 0 0-.06-.08c.02.8.03 1.84.05 3.02-.29-.63-.43-1.33-.43-2.03 0-.43.05-.86.17-1.28-.44-.62-.9-1.31-1.11-1.7.96-1.66 1.48-4.88 2.07-5.32-.39-3.72-.26-8.75-1.55-11.09-.17-1.06.37-1.22.58-1.61.12.61.1 1.33.29 1.67-.33-2.12-.13-6.26-1.03-6.77.4-2.66.83 1.5.68-2.16l.28.49c1.42-7.07-2.18-11.55-.54-19.28-.07.29-.12.46-.23.54.82-9.09-.77-18.75.53-27.72.26-2.55-.32-2.83-.76-4.39l.74-.55-.85-2.67c-.63-3.77 1.81-6.53.63-11.31l-.5.61c.1-1.71-.29-5.44.28-5.15-.21-.22-.32-.52-.32-.82 0-.14.02-.28.07-.41l.38-.05-.66-4.22c.28-3.27 1.53.51 1.61-4.26-.15-1.77-1.13-5.05-1.39-4.38-.01.71-.24 1.82-.62 1.88l-.2-1.62c-.08-.02-.15-.04-.22-.07v-.26h-.7a1.216 1.216 0 0 0-.92 0h-17.55l.19-.19-.58.19h-2.47c.07-.14.31-.27.79-.32-1.8-.51-1.59.36-3.13-.21-.17-.08-.1-.13.06-.17l-1.76.3c.35-.21-.29-.72.79-.57-3.16-.59-5.09.76-6.28-.01l.27-.06c-3.28.25-1.89.54-2.36 1.04h-2.05l-.41-.34-.55-.46c-.19-.17-.4-.33-.62-.46-.16.24-.32.49-.45.74-.51-.02-1.55-.07-1.5-.38-.9.26-.71.34-.5.42.24.08.52.15.16.4-.57-.14-1.16-.22-1.75-.24-.06 1.08.02 2.4-.01 3.4-.02 1.05-.15 1.73-.63 1.94.57.77.45-2.08.84.24-1.28.65.22 2.71-.37 4.64-.66-.56-.31-2.48-.9-.48.18.2.32.44.4.7a1.953 1.953 0 0 1 .02.79c-.09.47-.22.94-.4 1.38-.19-.05-.39-.07-.58-.07-.1 0-.2 0-.3.02.29.44-.37.53-1.35.55-.59 0-1.27.01-1.97.01-.73.01-1.48.03-2.18.1.18-.3-5.29-.48-7.91-.81l.08-.15c-.51.9-3.2.73-5.17.92.08-.54.43-.75 1.5-.99h-1.85c-.44.29-1.01.45-2.21.55l.46-.68c-1.23.02-2.46.22-3.79.36-.67.07-1.35.12-2.07.13-.35 0-.72-.01-1.1-.03-.18-.01-.37-.02-.57-.04-.21-.03-.43-.05-.64-.08-.07.16.17.35.32.55.19.19.36.39.51.62a.407.407 0 0 1 .04.42h-1.71c.01-.19.12-.36.48-.45-.33.1-.67.15-1.01.15-.18 0-.36-.02-.54-.04.39-.19.85-.38 1.36-.57-1.86-.25-.76.47-2.07.42-.27-.48-1.25-.34-1.36-.72.37-.05 1.42.19 1.89.01-.97-.05-2.12-.17-3.18-.32-.06.47-.2.93-.42 1.35.27.02.65.48.71 1.74.02 1.61-.13 1.87-.31 1.98-.09.04-.18.05-.28.18-.05.08-.1.18-.13.27-.05.14-.09.27-.11.41.34.6-.01 2.16.71 2.21 0 .72-.34.85-.54 1.13.32 1.27.1 5.94.87 4.51l.04-.33c.02.06.02.13.04.21.16 1.03.25 2.08.25 3.13 0 .23-.01.47-.02.69-.03 1.07-.13 2.08-.23 2.97-.72-.06-1.38-.11-2-.14-.32-.01-.62-.02-.92-.01l-.59.01c-.21.02-.42.03-.62.04l.01-.24c-2.48.27-5.51.16-7.27.68-.73 0-1.72-.44-1.41-.73-1.89.18-2.1.45-4.82.06 1.89-.42-.66-.38 1.94-.31-2.45-.21-3.01-.6-5.65.06.9-.62-1.84-.78-3.01-.59l1.72.44a32.723 32.723 0 0 1-3.62-.02l.63-.81c-2.51-.5-4.77-.07-6.89.26-1.01.19-2.04.3-3.07.32h-.37l-.48-.03c-.36-.02-.74-.05-1.11-.09-.82-.1-1.65-.25-2.46-.43-.88.28.3.38 1.38.49 1.11.11 2.12.24 1.36.57-1.62-.1-3.24-.31-4.82-.62-.32 1.07-.54 2.17-.67 3.27-.05.64-.07 1.22-.07 1.74 0 .25 0 .5.02.72 0 .1.01.26.02.3.01.06.01.13.03.19.08.42.21.83.39 1.22.36.77.54 1.6.54 2.44 0 .25-.01.5-.05.75.29-.42 1.07-.82 1.34 1.65-.06 1.37-.48 2.12-.86 2.19-.21.04-.4-.13-.51-.51-.04-.1-.06-.2-.08-.3-.02-.55.07-.82.17-.8-.11-.74-.23-1.72-.54-.81l.28.3c-.09.42-.15.85-.18 1.28-.13 1.31-.21 2.85-.56 2.3.24 1.5.42.98.56-.01-.3 2.64.04 4.29-.23 7.15.16-.49.51-.94.5-.45-.36 4.47.56 1.97.68 5-.44 1.73-1.05-.62-.69 2.43-.3 1.87-.76.4-1-.34a10.639 10.639 0 0 1 .01 3.84c-.02.08-.03.17-.04.25-.01.05-.02.12-.03.18l-.02.1c0 .03-.01.02-.01.03l-.04.05c-.05.05-.1.1-.15.13-.07.04-.13.09-.2.14a.684.684 0 0 0-.17-.21c.05.06.08.14.08.21v.04c.06.04.12.08.18.11.13.06.26.11.4.15-.1.14-.1.28-.29.11a.17.17 0 0 1-.06-.06c.17.26.37.49.6.69.26.26.56.54.27.8-.24-.06-.48-.09-.73-.09-.17 0-.33.02-.5.04-.1.01-.2.01-.3 0a7.18 7.18 0 0 1-.46-.05.84.84 0 0 1-.62-.35c.46.03.79.04 1.03.03.13 0 .18-.02.22-.05.07-.06.02-.17-.02-.29-.09-.2-.11-.42.03-.54-.02.01-.04.01-.07.01-.04 0-.08-.01-.12-.02-.19-.02-.38-.04-.58-.05-.13-.09.12-.17.36-.21-.27-.05-.5-.09-.71-.12a3.153 3.153 0 0 0-1.23 0c-.89.21-.7.99-3.22.97.45-.43-.84-.82-1.42-.73 1.45.01.69.73-.63 1.06-2.3-.34-2.49.25-3.7.21l1.37.16c-.46.44-1.61.38-3.2.52-.05-.11.08-.17.25-.22-1.65.26-3.62-.88-5.79-.45h-.07c-1.14-.29-.11-.81-1.12-1.01-2.77.56-3-.6-5.92-.13.85.59.99.44-1.06 1.01l4.79-.41-3.07.85c1.44.01 3.05-.37 3.92-.27-1.47.48-1.32.33-.62.82-1.99-.88-3.93.51-6.22-.08l.07-1.45a13.8 13.8 0 0 0-2.13-.17c-.76 0-1.52.06-2.26.19l-.56.07-.28.04-.07.01-.11.01-.23.02c-.6.04-1.22.09-1.85.14-1.24.08-2.5.14-3.94.13-.01.65-.03 1.32-.06 2.02l.23-1.85.18.02a.16.16 0 0 1-.09.07c.16.68.23 1.37.23 2.06 0 .24-.01.48-.02.71 0 .09-.01.18-.01.26v.01l-.03 1.42c0 .28.01.56.02.84 0 .13.01.26.02.4l.01.19.02.13c-.48-.14-.66.77-.96 1.39.09-.02.13.17.16.48.03.13.05.28.08.47.09.51.33.98.69 1.35-.07.07-.16.14-.25.19-.3-.11-.6-.24-.88-.38-.1-.02-.19-.04-.29-.04-.21 0-.41.05-.6.14-.06.03-.13.06-.19.1-.05.02-.11.04-.16.05a14.251 14.251 0 0 0-.98.32c-1.04.43-2.16.65-3.29.65-.15 0-.3 0-.45-.01 1.05-.52-.53-.87 1.8-1.24-1.16-.01-2.2-.1-2.22.24-.11-.04-.23-.06-.34-.06h-.06c-.58 0-1.52.23-2.37.33-.21.03-.42.05-.62.05-.21 0-.42-.02-.62-.05a.924.924 0 0 1-.27-.08c-.05.03-.1.05-.15.08-.43.39-.99.61-1.57.61-.08 0-.15-.01-.22-.01a.136.136 0 0 1-.07-.11c0-.03.01-.06.03-.08-.26.2-1.91.31-.86.81-1.54-.65-3.61-.72-5.72-.69-2.76.03-5.59.24-7.35-.5-1.26.08-2.65.17-4.02.23-.68.02-1.36.05-2 .08l-.95.03c-.34 0-.67.01-.98.02.1-.08.1-.14.15-.17.07-.03.15-.04.23-.04.05 0 .1 0 .15.02-.09-.01-.15-.03-.26-.03l-.31-.03c-.21-.01-.4-.01-.58-.02h-.03c-.29 0-.58.02-.87.05-.36.04-.72.15-1.04.32-.5.42-1.12.65-1.77.67 0 .12.01.24.01.37 0 .4-.03.81-.09 1.21-.2.42-.32.52-.4.38-.1-.29-.14-.59-.14-.9-.05-.78-.03-1.66-.18-1.01-.79-.35-.74 1.52-.6 3.57.07 1.19.15 1.71.17 2.46 0 .09.01.18.01.27 0 .59-.1 1.18-.29 1.74l-.09-.59c-.55 1.85.6 4.52.49 7.54 0 0-.15-.14-.24-.02.8 2.07 1.07 5.99 1.3 8.9-.62-.91-.33-1.32-.96-.77.09 1.31 1.01-.38 1.19 2.22-.34.85-.64 2.73-1.31 2.98l-.04-2.46c-.87 1.26.03 3.18-.12 4.47l-.38-.16c.12 3.76 1.08 3.82 1.01 7.86l.29-.42c.96 2.22-.53 1.86.18 4.06l-.97.67c.23 1.46.93 5.11 1.11 7.73-.71-1.49-1.08-4.55-1.5-6.44-.01 1.44.07 4.91.54 5.67-.09-.58-.32-1.32-.18-1.9.76 1.78 1.13 4.11 1.12 6.99-.61-.16-.88.58-1 1.74-.01.07-.02.14-.02.22-.01.11-.02.22-.02.34-.01.23-.02.46-.04.7-.01.5-.02 1.01-.04 1.54-.02 1.08-.05 2.22-.07 3.32 2.24.07 4.29.24 5.49.74l.4-.03.25-.03.48-.05c.32-.03.63-.06.95-.08.64-.04 1.28-.05 1.92-.06 1.27 0 2.57.05 3.88.12 2.64.15 5.37.37 8.34.31-2.1-1.45 1.74-.04 1.38-1.54 1.37-.09 1.89-.06 2.02.03l-.2-.04c.07.01.13.03.21.05v-.01l4.19.89c1 .44-1.32.33-1.19.67 3.03.12 1.28.64 3.28 1.03-.41-.53 1.05-.76 2.78-.56l-2.44-.69c4.24-.8 3.67 1.26 7.93.47l-1.35.47c2.19-.28 8.08.01 10.22-1.19.39.17.91.58-.06.69 5.23.18 11.65-1.28 15.71-.54l-.39.36c.97-.1 1.7-.68 2.92-.32-.06.15-.4.37.06.39.51-.12 2.59-.64 3.89-.43l-1.11.41c3.21.31 5.48-.17 7.79-.63 1.42-.31 2.87-.52 4.32-.62-.01 1.08 4 1.43 6.01 1.6l-.07.15c.32.01.66.01.98.01 2.05 0 4.12-.12 6.15-.36 1.82-.2 3.58-.45 5.44-.66h.01c.12-.02.23-.03.36-.05.43-.04.87-.09 1.31-.13.14-.02.28-.03.42-.05.31-.02.62-.04.93-.07 1.55.43 3.16.66 4.78.68 3.82.18 8.64.03 12.28.47-.84-.2.14-.85 1.11-.95 1.21.2 3.29-.64 3.37.07v.06c0 .03 0 .07-.01.11l-.43-.02h-.03.01c.97.97 3.61.71 5.68.74l.34-1.3c5.41 1.88 14.17-.69 17.12 1 1.31-.33 2.92-.32 4.22-.64l-.07.69c1.94.11 3.9.18 5.86.18 1.33 0 2.71-.03 4.03-.09l-.91.5c2.52.04 3.18-2 5.51-2.04l.69 1.03c4.41-.01 8.86.9 13.2-.04-.07.15-.2.45-.91.49 2 .03 7.62.66 7.31-.58.48.7 4.61-.07 6.86-.45l-.37.67c1.01-.43 1.52-.71 2.14-.91.34-.1.7-.19 1.06-.24.23-.04.44-.07.75-.1.38-.03.8-.06 1.27-.09.84.08.98.46 0 .4.27.04.55.06.82.06.47 0 .93-.05 1.38-.15.61-.2 1.25-.3 1.88-.3v-.07c0-.47.03-.94.08-1.41.15.57.3 1.17.44 1.81.01-.29.02-.58.02-.87 0-.76-.05-1.52-.16-2.27-.11-.62-.3-1.09-.55-1.96-.02-.11-.03-.24-.04-.37l-.03-.38c-.01-.21-.02-.45-.01-.68.01-.49.06-.98.14-1.46.15-.94.42-1.75.73-1.91-.38-.31-.88-1.56-.7-2.9.23-.18.38.31.45.56.46-3.81-.8-5.66-.13-8.28a.56.56 0 0 0 .41-.44c-.02 2.77-.05 5.05-.09 5.23.62-.04.73-2.43 1.59-.5-.47-1.96-1.5-5.31-1.21-7.69zm-.14-1.66c.1.81-.04 1.08-.18 1.19-.01-.38-.04-.83-.09-1.42-.02-.02-.05-.07-.08-.09-.66-.22-1.1-.85-1.1-1.54a1.622 1.622 0 0 1 2.15-1.54l-.7 3.4zm-28.37-112.35c.08.03.16.06.24.11h-1.04c1.29-3.13 1.56-3.16 1.85-3.19l-1.05 3.08z"/><path class="fil5" d="M150.81 181.01c-.03.03-.07.05-.12.05.04-.02.08-.04.12-.05zm-13.02 1.64c.04-.01.08-.02.12-.02-.04 0-.08.01-.12.02zm135.45 42.4c-.02-.11-.04-.22-.05-.33-.06.16-.11.32-.15.48l.21.29-.01-.44zm-78.85-84.43c.02-.09.05-.16.1-.23-.04.07-.06.07-.09.12l-.01.11zm34.21-26.86c.22 0 .47.32.42 2.66l.15-2.87 1.08.05c-.87-.27-2.31-.62-.32-.69-.68-.08-1.21-.14-1.58-.18-.16 1.38.03 1.03.25 1.03zm.04 11.98c-.06-.55-.16-.57-.26-.5-.1.07-.2.21-.28.14.24.65.31.96.54.36zm-47.66 20.81.17-.63c-1.31.09-.01.24-.17.63zm-22.6-1.13.11-.01.2-.02.8-.07.57-.09-1.08.12-.55.05-.89.06.67-.03zm-71.59 46.09.39.77c.88-.14 1.07-1.01-.39-.77zm-16.12 39.47c-.29.54-.44 1.13-.44 1.74 0 .39.06.78.19 1.15.05-1.15.35-2.3.25-2.89zM202.35 257l1.94-.21-.91-.04z"/><path class="fil7" d="M211.87 193.82c-.12 5.92-.95 11.84-2.47 17.58-5.93 21.93-22.17 37.89-30.91 45.18-1.62-.01-3.23-.24-4.78-.67-.31.03-.62.05-.93.08-.14.01-.28.02-.42.04-.44.04-.88.09-1.31.14-.13.01-.24.02-.36.04h-.01c-2.82-7.4-4.86-15.09-6.05-22.92v-.01c-1.52-10.04-1.76-21.83 1.42-33.61a73.75 73.75 0 0 1 5.64-14.39c11.37-22.08 31.05-35.23 31.05-35.23s9.72 19.97 9.13 43.77zm-59.85-24.66c-.01.2-.03.38-.05.6a.833.833 0 0 1-.03-.22c0-.13.03-.26.08-.38zm-14.11 13.47c.17-.04.34-.09.51-.16.36.1-.13.09-.51.16zm.68-.54.78.09c-.26-.01-.53-.04-.78-.09zm11.77-1.29c-.03 0-.06-.01-.08-.01l.2-.03c.01-.01.02-.01.02-.01s.01 0 0 .01c0 .01-.01.01-.01.02s-.08.02-.13.02zm.45.21c-.03.03-.07.05-.12.05.04-.02.08-.04.12-.05z"/><path class="fil7" d="M178.76 233.26v.03c-1.18 7.74-3.2 15.37-5.98 22.7-.14.01-.28.03-.42.04-.44.04-.88.09-1.31.14-.13.01-.24.03-.36.04h-.01c-1.86.21-3.62.46-5.44.67-8.66-7.17-25.24-23.26-31.25-45.48-1.52-5.73-2.37-11.66-2.47-17.59-.02-.67-.03-1.39-.03-2.07 0-3.19.17-6.39.5-9.56 2.17-.42 4.15.72 5.8.46-.18.05-.3.11-.25.21 1.59-.13 2.74-.07 3.2-.51l-1.37-.16c1.21.04 1.4-.55 3.7-.21 1.32-.33 2.07-1.05.63-1.06.58-.09 1.86.3 1.41.73 2.53.01 2.34-.76 3.23-.97h1.23c.21.03.44.07.71.12-.24.04-.49.12-.36.21.2.01.39.03.58.05.04.01.08.02.12.02.03 0 .05 0 .07-.01-.14.12-.12.34-.03.54.04.12.09.23.02.29-.04.04-.09.06-.22.06-.24 0-.57-.01-1.03-.04.14.2.37.33.62.35.15.02.31.04.46.05.1.01.2.01.3 0 .17-.02.33-.04.5-.04.25 0 .49.03.73.09.29-.26-.01-.54-.27-.8-.23-.2-.43-.43-.6-.69.01.02.03.04.05.06.2.17.2.03.3-.11a2.74 2.74 0 0 1-.4-.15h.36v-.79c.01-.07.02-.16.04-.24a10.639 10.639 0 0 0-.01-3.84c.23.74.7 2.21 1 .34-.37-3.05.25-.71.69-2.43-.12-3.03-1.04-.53-.68-5 .01-.49-.34-.04-.5.45.27-2.86-.08-4.51.23-7.15-.14.99-.32 1.51-.56.01.35.55.43-.99.56-2.3.11.1.23.22.35.33l.51.51c6.1 5.98 13.25 14.37 18.58 24.72a72.51 72.51 0 0 1 5.64 14.39c3.18 11.77 2.94 23.54 1.43 33.59z"/><path class="fil8" d="M110.81 189.63c-.07.16-.17.31-.3.43.14-.32.23-.42.3-.43zm-12.8 2.95c0 .02-.02.04-.04.05.02-.03.04-.05.04-.05z"/><path class="fil2" d="M171.05 256.17c-.13.01-.24.02-.36.04h-.01c-1.86.21-3.62.46-5.44.67-2.03.23-4.1.35-6.15.35h-.98l.07-.16c-2-.17-6.02-.52-6.01-1.6-1.45.1-2.9.31-4.32.62-10.59-3.44-22.92-9.28-33.01-19.1-14.21-13.84-20.63-32.33-23.45-44.24 2.11-.03 4.18.04 5.72.69-1.05-.5.6-.61.86-.81-.02.02-.03.05-.03.08 0 .04.03.09.07.11.07 0 .14.01.22.01.58 0 1.14-.22 1.57-.61h4.03v-.33h.06c.11 0 .23.02.34.06.02-.34 1.06-.25 2.21-.24-2.32.37-.74.72-1.79 1.24.15.01.3.01.45.01 1.13 0 2.25-.22 3.29-.65a14.251 14.251 0 0 1 .98-.32c.05-.01.11-.03.16-.05.06-.04.13-.07.19-.1.19-.09.39-.14.6-.14.1 0 .19.02.29.04.28.14.58.27.88.38.09-.05.18-.12.25-.19-.36-.37-.6-.84-.69-1.35-.03-.19-.05-.34-.08-.47-.03-.31-.07-.5-.16-.48.3-.62.48-1.53.96-1.39l-.02-.13-.01-.19c-.01-.14-.02-.27-.02-.4-.01-.28-.02-.56-.02-.84l.03-1.42c6.88 2.1 13.54 4.99 19.78 8.56a73.838 73.838 0 0 1 14.65 10.99c8.83 8.6 14.65 18.98 18.46 28.47v.01l.01.01c2.94 7.36 5.1 15.05 6.42 22.86v.01z"/><path class="fil8" d="M194.78 256.33h.03-.03z"/><path class="fil2" d="M254.07 180.81s-2.78 34.04-25.53 56.18c-10.18 9.91-22.64 15.76-33.29 19.19-.08-.7-2.16.13-3.37-.07-.97.1-1.95.75-1.11.95-3.64-.44-8.46-.29-12.28-.47-1.62-.02-3.23-.25-4.78-.68-.31.03-.62.05-.93.08-.14.01-.28.02-.42.04 1.32-7.78 3.47-15.44 6.4-22.78 3.82-9.48 9.64-19.86 18.46-28.44 4.4-4.24 9.35-7.96 14.66-10.99 20.37-11.82 42.19-13.01 42.19-13.01z"/><path class="fil9" d="m366.04 265.75.98-.87-4.76-5.33a4.79 4.79 0 0 1-.99-4.73l7.27-21.86c.12-.37.22-.74.29-1.12.59-2.93-.24-5.98-2.23-8.21l-5.19-5.8c-.81-.89-1.88-1.5-3.06-1.74-1.72-.34-3.5.14-4.8 1.31l-1.79 1.61.87.97 1.79-1.6a4.26 4.26 0 0 1 6.01.33l5.19 5.8a8.172 8.172 0 0 1 1.92 7.07c-.06.33-.15.65-.25.97l-7.26 21.86c-.08.23-.15.48-.19.72a6.13 6.13 0 0 0 1.44 5.3l4.76 5.32z"/><path class="fil9" d="m363.66 267.25-3.36-6.93 1.95-1.75 6.26 4.34 25.77 26.65-6.71 6z"/><path class="fil0" d="m356.5 221.07-4.9-5.47a3.64 3.64 0 0 0-5.14-.29l-33.91 30.37a3.627 3.627 0 0 0-.29 5.13l4.91 5.48a3.627 3.627 0 0 0 5.13.28l33.92-30.36c1.5-1.34 1.62-3.64.28-5.14z"/><path d="m312.55 245.68 1.05-.94.2-.19c-.58.52-.98 1.22-1.14 2-.22 1.12.1 2.28.86 3.14l4.91 5.47c.52.59 1.22.99 1.99 1.15 1.12.22 2.29-.1 3.14-.86l-.21.19-1.05.93c-.85.77-2.01 1.09-3.14.86a3.56 3.56 0 0 1-1.99-1.14l-4.91-5.48a3.622 3.622 0 0 1-.85-3.14c.15-.77.55-1.47 1.14-1.99z" style="fill:#000;fill-rule:nonzero;fill-opacity:.2"/><path class="fil5" d="M334.38 225.52c.06-.04.11-.07.11-.05-.06.05-.1.06-.11.05zm1.2-1.25c.01-.04.03-.06.06-.08l-.06.08zm-8.34 7.75c.05.02-.08.12-.17.21l.17-.21zm-3.55 3.06-.06.06c-.04 0-.07 0-.1-.01l.16-.05zm-2.32 2.31c-.06-.02-.13 0-.19.04-.02-.03-.03-.07-.04-.1.05-.06.17.03.23.06zm-7.07 6.58.02.05c-.02.02-.05.03-.07.04l.05-.09zm23.56-22-.01.01c-.07.04-.03.01.01-.01zm15.15 8.53c.16-.31-.51.23-.23-.2 0 .07.48-.13.23.2zm-9.71-13.29v.06c-.01.01-.01.02-.02.04 0-.02 0-.04.02-.1zm2.59-1.17c.06.06.12.14.16.22-.01 0-.02-.01-.03-.02a.464.464 0 0 0-.13-.2zm1.82 2.56c-.02 0-.04-.01-.05-.02l-.05-.08.1.1z"/><path class="fil6" d="M314.14 244.05c.06.11.19.26.26.23l-.08-.26.03-.03c-.01-.01-.01-.03-.02-.04l2.42-2.16-.05-.01.09-.03.31-.28c-.03-.01-.07-.01-.14.04.16-.28.25-.13.37-.39.01-.03-.01-.03-.03-.02l.26-.15c-.07.01-.06-.14-.18 0 .32-.44.75-.45.79-.71l-.04.02c.45-.33.31-.13.44-.1l.26-.23.01-.37.16.07c.05-.06.16-.16.1-.19.28-.11.01.08.19.04.19-.35.8-.62.7-.86.18 0-.2.3.15.1-.09-.27.37-.27.53-.58-.16-.04-.35.23-.18-.08.3.03.45-.48.69-.63.13.12.51-.36.91-.63.27-.36.57-.7.88-1.02l-.03-.01c.19.08.5-.25.78-.44-.09-.08-.16-.07-.33.01l.24-.2c.13-.02.25-.08.35-.17l-.15-.05c.39-.24.75-.53 1.07-.86.07.05.01.28.11.33l.21-.19a.076.076 0 0 0-.04-.02c-.04-.01-.08 0-.11.02.05-.02.17-.07.22-.16l-.24.07c.14-.2.16-.01.3-.15-.07-.07.06-.15-.02-.19-.04.03-.1.14-.18.16.15-.13.26-.3.33-.49.02.05.09.1.21 0 .32-.27.03-.18.18-.38.12-.02.27-.25.37-.14.09-.08.06-.15.07-.21.21-.1.76-.66.69-.38l-.04.05.03-.02c.63-.36 1.04-1.04 1.6-1.46l-.03-.04c.31-.26.65-.5 1.01-.71.09-.08.15-.26.07-.27.25-.13.46-.32.62-.54-.3.15.03-.13-.29.17.28-.3.3-.43.72-.62-.2 0 .13-.33.3-.43l-.16.26c.16-.13.32-.26.46-.41l-.19-.06c.49-.71 1.37-.76 1.62-1.44.25-.07-.29.37-.05.33.2-.25.37-.52.51-.81.34-.42.54-.15.91-.57-.01.09.04.26.39.02.28-.28.19-.5-.02-.38-.07.06-.1.11-.08.12-.11.07-.25.16-.17.01l.07.01c.11-.18.51-.53.35-.52.26-.15.16-.01.02.16.31-.4.58-.53.93-.91-.04.08-.05.18.01.12.51-.56.32-.13.72-.46.16-.26-.22-.09.21-.38.2-.25-.05-.16-.18-.11.32-.22.59-.51.79-.84l-.21.13c.11-.07.21-.15.31-.24l-.03.19c.09-.12.19-.2.15-.23.16-.05.05.22.34.1.1-.17.48-.35.43-.51-.42.45-.06-.16-.46.16.1-.06.2-.15.27-.24.01-.03-.04-.01-.07.01.34-.5.32-.05.77-.46-.12-.01-.01-.21.07-.27-.18.17.02.19.23.09.24-.31.35-.24.49-.38l-.15.18c.12.01.26-.13.48-.28-.03-.07-.22.12-.17.04.33-.09.4-.58.78-.78.11-.17-.1-.13 0-.28.43-.22.3-.43.73-.68-.02.18-.06.17.27.03l-.66.48.51-.22c-.19.16-.44.29-.53.4.25-.09.21-.1.19.05.13-.35.56-.36.77-.71l-.21-.21c.35-.49.87-.58 1.38-1.14l-.14.2c.15.02.36-.29.57-.42-.08-.06.01-.19.04-.3.04.06.41-.38.59-.28l.17-.32c.39-.42.78-.32 1.28-.81-.09 0-.07-.07-.07-.12-.01-.05-.04-.07-.29.1.23-.21.45-.43.45-.33.02-.03.04-.06.06-.08l.05-.04c.01-.01.02.03.03.05l.16.29c.07.18.17.34.31.47.04.14-.01.26.16.48.03.01.03-.03.03-.03-.02.06.16.34-.04.24.6.32.96 1.39 1.49 1.65.22.36.51.78.74 1.09.01-.04.04-.03-.01-.08.39.36-.03.43.43.84.32.14-.13-.3.04-.19.3-.14.42.6.83.78l-.05-.08c.28.16.4.66.75 1.02 0 0 0-.04.03-.03.2.46.48.9.81 1.28-.01-.19-.1-.2.06-.23.13.18-.2.1.07.44.15.06.41.25.54.18l-.28-.3c.28.03.37.38.54.52l.04-.08c.42.47.3.61.79 1.08l-.09-.01c.13.4.3.13.47.49l.22-.07c.25.36.52.71.82 1.04-.18-.34-.38-.66-.61-.95.25.2.47.44.64.71-.06-.08-.12-.19-.22-.24.17.38.43.7.75.95.08-.19.45.08.9.42l.17.13.09.07c.03.02.08.04.03.07-.1.09-.2.19-.28.28-.15.14-.27.3-.35.49-.13.1-.26.2-.39.29-.08.07-.17.14-.25.21-.16.14-.32.3-.47.46-.31.32-.63.66-1.01.98.07-.45-.22.19-.38-.08-.19.14-.25.21-.25.24l.02-.05-.02.05-.41.61c-.07.18.21-.1.24-.04-.37.36-.07.24-.27.53-.02-.13-.24 0-.43.23l.21-.38c-.64.35-.29.6-.93.96l.23-.08c-.31.21-1.01.92-1.45.97-.02.07-.03.19.11.1-.64.62-1.64 1.12-2.06 1.69l.1.01c-.13.1-.3.09-.41.28.03.02.1.02.05.07-.21.08-.39.21-.55.37l.2-.06c-.58.65-1.13.73-1.7 1.17.15.17-.31.67-.54.93l.03.01c-.68.57-1.39 1.09-2.14 1.56-.27.56-1.39 1.38-1.99 2.1.07-.13-.14-.11-.27-.02-.14.18-.55.29-.39.41l.05-.05c.01.26-.36.52-.61.75l-.22-.15c-.43.89-1.88 1.49-2.02 2.08-.21.09-.41.28-.62.37l.1.1c-.38.4-.8.78-1.23 1.13l.18-.03c-.31.29-.67.06-.97.31l.05.24c-.55.49-.99 1.13-1.67 1.48.03.02.09.05.19-.03-.26.24-.92 1.01-1.02.71.12.15-.55.53-.91.73l.14.07c-.29.03-.57.15-.8.34-.07.09 0 .15.09.02-.23.3-.3.1-.59.45l.18-.04c-.12.15-.31.25-.51.27-.22.12-.52.51-.48.64-.18 0-.35.08-.46.22.01.06.09.03.13.01-.41.5-.82.52-1.06.91.02.03.02.05.02.08-.01.01-.01.02-.02.03.38-.34.68-.62.65-.6.08.1-.21.39.15.3-.41.15-.8.39-1.13.68 0 .01 0 .02-.01.03v.04l.04-.02c-.06.07-.12.12-.2.16-.07.09-.14.17-.22.25.03.11-.32.36-.47.5-.08-.12-.27.08-.15-.17-.02.02.04-.02.14-.11.02-.01.05-.03.08-.04h-.02l.38-.34c-.19.05-.35.17-.45.34-.14 0-.28.01-.36.02-.08.33-.42.77-.39.91-.26.18-.55.42-.82.62-.14.1-.28.19-.42.27-.14.1-.3.17-.46.21a.41.41 0 0 0-.17.2c-.04.06-.07.05-.11.06.03.03.07.06.11.08l.08-.07c.05-.04.1-.07.15-.09-.11.05-.22.27-.38.09l-.45-.3c-.1-.07-.2-.14-.29-.23-.06-.06-.1-.12-.09-.17-.43-.18.13.28-.38-.08l.04.09c-1.22-.44-1.39-1.51-2.65-2.1.08.05.13.07.16.06-1.31-.89-2.2-2.32-3.35-3.36-.31-.3-.24-.42-.33-.69l-.18.02-.12-.47c-.26-.6-.94-.72-1.17-1.54l.14.03c-.17-.24-.41-.83-.49-.73v-.02a.172.172 0 0 0-.06-.18l-.08.03c-.08-.23-.15-.47-.22-.7-.31-.46-.25.23-.63-.49-.11-.29-.18-.88-.08-.8zm4.4-.78c-.01.01-.01.02-.01.03v.01l.12-.11c-1.1-2.14-1.14-2.12-1.18-2.09l1.07 2.16zm9.92 12.28-.03-.01c.02.01.03.01.04.02h.05c.12-.08.13-.13.13-.16-1.12-2.12-1.18-2.07-1.26-2.02l1.07 2.17z"/><path class="fil5" d="M327.15 253.42c-.02.01-.03.02-.05.03.01-.02.03-.05.04-.07h.07l-.06.04zm-.14-21.1c-.01.01-.01.02-.02.03v.01-.01c.01-.01.01-.01.01-.02l.01-.01zm-7.87 6.87c.39-.57-.02.18.48-.3l-.37.38c.04-.1.08-.24-.11-.08zm1.58-1.54c.17-.08.21-.1.08.08-.23.17-.05-.06-.08-.08zm8.98-7.89-.11-.07c.18-.14.04.03.11.07zm2.46-2.56.3-.21-.22.16zm15.34-9.08-.16.04c-.07-.14.06-.27.16-.04zm5.88 6.87c-.13-.09-.26-.18-.38-.29h.01c.16.03.3.14.37.29zm-13.78 17.64-.27.18.11-.11z"/><path class="fil11" d="m437.74 286.27-1.34 6.51a5.392 5.392 0 0 0 5.28 6.47c.61 0 1.22-.1 1.79-.3 2.16-.76 3.6-2.8 3.6-5.09 0-.51-.08-1.03-.22-1.53l-1.8-6.06 16.25-47.54h-13.81l-9.75 47.54z"/><circle class="fil11" cx="423.11" cy="179.01" r="12.6"/><path class="fil11" d="m421.08 201.35 16.66-2.03c-3.82-4.79-5.27-9.79-4.07-15.03l-15.03 1.62 2.44 15.44z"/><path class="fil6" d="m400.36 271.65 39.41-8.94c8.42-6.56 13.9-19.55 18.12-35.27 3.08-11.45-2.45-23.64-13.33-28.36-.26-.11-.52-.22-.79-.33l-8.88-3.49-14.62 1.22-5.22 1.42a5.931 5.931 0 0 0-4.3 4.83c-7.01 25.74-11.64 49.62-10.39 68.92z"/><path class="fil6" d="M445.46 246.45h17.47l-5.69-34.12-11.78 1.21z"/><path class="fil3" d="M386.54 394.35h10.57l22.14-77.81 8.55 77.81h12.38l4.87-124.74c-1.86-9.57-1.82-20.97-.81-33.31 8.71-6.1 5.52-20.58 6.49-35.13v-.04a.56.56 0 0 0-.13-.35l-5.62-2.92a.533.533 0 0 0-.41-.19c-.3 0-.55.25-.55.55v.04c-.14 10.17 2.6 22.27-1.81 30.32-4.8-16.4-11.05-30.16-23.22-33.24-.1-.02-.21-.03-.32-.03-.13 0-.25.01-.38.05l-2.26.65c-.58.16-.97.69-.97 1.29 0 .47.24.91.64 1.15 11.14 6.88 18.33 18.39 18.79 37.85-8.66 12.26-17.1 19.51-32.28 28.43a5.684 5.684 0 0 0-2.76 4.31l-12.91 125.31z"/><path d="m424.74 190.45 8.94-1.69 5.31-9.08a12.086 12.086 0 0 0-1.41-14.13 12.062 12.062 0 0 0-10.71-3.91l-11.58 1.65a7.646 7.646 0 0 0-6.56 7.57c0 .38.03.76.08 1.13l7.8 1.33 8.13 17.13z" style="fill:#2f2e41;fill-rule:nonzero"/><path class="fil3" d="M374.18 407.96h18.6a6.12 6.12 0 0 0 6.12-6.12c0-.3-.02-.59-.06-.88l-1.17-8.01-8.44-.63-16.79 7.85a4.096 4.096 0 0 0-2.33 4.09c.2 2.1 1.96 3.7 4.07 3.7zm42.25 0h18.61a6.12 6.12 0 0 0 6.12-6.12c0-.3-.02-.59-.06-.88l-1.17-8.01-8.45-.63-16.78 7.85a4.088 4.088 0 0 0-2.36 3.7 4.085 4.085 0 0 0 4.09 4.09z"/><path d="m381.07 271.32-8.05 2.8a5.686 5.686 0 0 0-3.83 5.37c0 1.75.81 3.4 2.18 4.48a5.677 5.677 0 0 0 6.6.31l7.33-4.72 25.06-25.47 3.88-29.93a22.778 22.778 0 0 0-8.04-20.46l-8.17 45.59-16.96 22.03z" style="fill:#ffb9b9;fill-rule:nonzero"/><path class="fil6" d="M398.33 240.36h17.87l-.4-42.66a20.595 20.595 0 0 0-15.57 18.7l-1.9 23.96z"/><ellipse class="fil11" cx="419.44" cy="180.72" rx="2.21" ry="2.65"/><path style="fill:#000;fill-rule:nonzero;fill-opacity:.101961" d="M0 83.29h344.41v-1.5H0z"/></g></g></svg>