<svg xmlns="http://www.w3.org/2000/svg" xml:space="preserve" width="512" height="287" style="shape-rendering:geometricPrecision;text-rendering:geometricPrecision;image-rendering:optimizeQuality;fill-rule:evenodd;clip-rule:evenodd" viewBox="0 0 136.28 76.29"><defs><linearGradient id="id0" gradientUnits="userSpaceOnUse" x1="70.93" y1="75.97" x2="70.93" y2="24.35"><stop offset="0" style="stop-opacity:.25098;stop-color:gray"/><stop offset=".541" style="stop-opacity:.121569;stop-color:gray"/><stop offset="1" style="stop-opacity:.101961;stop-color:gray"/></linearGradient><style>.fil2{fill:#3f3d56;fill-rule:nonzero}.fil3{fill:#65617d}.fil3,.fil6,.fil7{fill-rule:nonzero}.fil7{fill:#d4dfec}.fil6{fill:#d93}.fil5,.fil8{fill-rule:nonzero}.fil8{fill:#fbbebe}.fil5{fill:#000;fill-opacity:.101961}</style></defs><g id="Layer_x0020_1"><g id="_2039558112400"><path d="m118.25 75.33-103.71.95c-.72.01-1.61-.28-2.54-.71-1.75-.82-3.6-2.17-4.49-3.14-2.49-2.75-4.3-5.95-5.52-9.42-.18-.51-.34-1.01-.5-1.53-4.22-14.27.93-32.68 10.19-45 .39-.51.78-1.02 1.18-1.51l.01-.01c2.85-3.49 6.05-6.41 9.45-8.49 6.03-3.69 12.71-4.73 19.28-1.63 5.55 2.62 10.74 3.85 15.78 4.18.5.04 1.01.06 1.52.08 11.54.36 22.35-3.8 35.05-6.48.51-.11 1.02-.21 1.53-.32 9.06-1.8 12.33-3.37 24.28-1.37 1.24.21 2.47.5 3.67.88.52.17 1.03.35 1.52.55 5.71 2.32 8.82 6.61 10.14 11.98 2.9 11.56.17 25.38-4.82 38.05-1.07 2.72-7.39 18.76-10.8 22.35-.44.46-.9.58-1.22.59z" style="fill:#d93;fill-rule:nonzero;fill-opacity:.101961"/><path d="m126.52 61.48-.67 1.53H95.48V75.5l-1.53.02V63.01H58.9V75.9l-1.52.01v-12.9H22.32v13.28l-7.78-.01c-.48 0-1.1-.13-1.68-.35V63.01H1.99c-.18-.51-.34-1.01-.5-1.53h11.37v-45h-1.18c.12-.15 1.17-1.52 1.19-1.52 2.85-3.5 6.05-6.42 9.45-8.49v8.49h35.06V9.02c.5.03 1.01.05 1.52.07v5.87h35.05V2.61c.51-.1 1.02-.21 1.53-.31v12.66h34.73V5.65c.36.35.6.6.83.84.22.24.43.48.69.8v7.67h3.51c.12.5.23 1.01.32 1.52h-3.83v31.97c-.22.62-.44 1.25-.67 1.86l-.6 1.59c-.08.22-.17.43-.25.64V16.48H95.48v45h31.04zm-32.57 0v-45H58.9v45h35.05zm-71.63 0h35.06v-45H22.32v45z" style="fill:#d93;fill-rule:nonzero;fill-opacity:.101961"/><path class="fil2" d="M28.99 36.85h2.6v7.9h-2.6zm70.06-.41h2.6v8.36h-2.6z"/><path class="fil3" d="M118.25 73.54v1.79l-20.81.19h-.22l-7.91.07-.19.01-2.41.02h-.07l-14.66.13-24.06.23h-.02l-6.12.05-.06.01-27.18.24v-2.05l6.39-3.84 12.82-.1.28-.01h.36l6.16-.05h.36l.27-.01 1.98-.01h.05l4.87-.04h.04l38.01-.33h1.02l.71-.01 5.16-.04.27-.01h.39l1.6-.01h.32l.43-.01 1.33-.01 2.12-.02h.84l10.24-.09z"/><path style="fill:#000;fill-rule:nonzero;fill-opacity:.2" d="M118.25 73.54v1.79l-20.81.19h-.22l-7.91.07-2.6.03h-.07l-14.66.13-24.06.23h-.02l-6.12.05-.06.01-27.18.24v-2.05l6.39-3.84 12.82-.1.28-.01h.36l6.16-.05h.36l.27-.01 1.98-.01h.05l4.87-.04h.04l38.01-.33h1.02l.71-.01 5.16-.04.27-.01h.39l1.6-.01h.32l.43-.01 1.33-.01 2.12-.02h.84l10.24-.09z"/><path class="fil2" d="M40.57 66.69v3.36c0 .32-.19.62-.48.76-.11.05-.23.08-.34.08l-4.79.1h-.02c-.12 0-.24-.02-.35-.08a.831.831 0 0 1-.48-.76v-3.46h6.46z"/><path class="fil5" d="M40.57 66.69v3.36c0 .32-.19.62-.48.76-.11.05-.23.08-.34.08l-4.79.1h-.02c-.12 0-.24-.02-.35-.08a.831.831 0 0 1-.48-.76v-3.46h6.46z"/><path class="fil2" d="M40.84 66.69v3.36a.836.836 0 0 1-.82.84l-4.78.1h-.02c-.12 0-.24-.02-.35-.08a.824.824 0 0 1-.49-.76v-3.46h6.46zm52.45 0h6.46v4.32h-6.46z"/><path class="fil5" d="M93.29 71.01h6.47v-4.32h-6.47z"/><path class="fil2" d="M93.02 66.69h6.46v4.32h-6.46z"/><path class="fil5" d="M31.59 36.85v.78l-2.6-.06v-.72z"/><path class="fil3" d="M48.73 14.73 45.6 37.2c-.04.29-.29.51-.58.51H45l-25.04-.65-.48-.01a.587.587 0 0 1-.57-.59v-.08l3.51-23.52c.05-.29.29-.5.58-.5h.04l25.14 1.7c.31.02.55.28.55.59v.08z"/><path class="fil6" d="m24.1 14.01-2.65 20.74 23.02.73 2.83-20.01z"/><path class="fil3" d="M53.42 13.69H80c.41 0 .74.33.74.73v22.29c0 .4-.33.73-.74.73H53.42c-.4 0-.73-.33-.73-.73V14.42c0-.4.33-.73.73-.73z"/><path class="fil6" d="M54.02 15.29H79.5v19.77H54.02z"/><path class="fil5" d="M101.65 36.44v.52l-2.6.05v-.57z"/><path class="fil3" d="M113.4 36v.03c0 .23-.18.41-.41.42l-25.65.53h-.01c-.22 0-.4-.17-.42-.38L84.7 13.68v-.04c0-.23.18-.41.4-.42l25.46-1.27.27-.01c.01 0 .02-.01.02-.01.22 0 .4.17.42.39L113.4 36z"/><path class="fil6" d="m86.17 14.56 23.25-1.14 1.96 20.82-23.06.55z"/><path class="fil5" d="M113.4 36v.03c0 .23-.18.41-.41.42l-2.43-24.5.27-.01c.01 0 .02-.01.02-.01.22 0 .4.17.42.39L113.4 36zM23.05 12.36l-3.09 24.7-.48-.01a.587.587 0 0 1-.57-.59v-.08l3.51-23.52c.05-.29.29-.5.58-.5h.05zm5.94 32.39h2.6v-2.34h-2.6zm11.85 21.94v.68l-6.46.18v-.86z"/><path class="fil3" d="M52.25 43.22v23.05c-.01.29-.24.53-.53.54l-26.26.7c-.3 0-.54-.24-.55-.54V43.22c.01-.29.25-.53.55-.54h26.25c.29.01.53.25.54.54z"/><path class="fil5" d="M25.46 42.68v24.83c-.3 0-.54-.24-.55-.54V43.22c.01-.29.25-.53.55-.54z"/><path class="fil7" d="M26.66 44.16h24.32v20.31l-24.32.55z"/><path class="fil5" d="M99.05 44.8h2.6v-2.39h-2.6zm.43 21.89v.88l-6.46-.17v-.71z"/><path class="fil3" d="M108.01 43.22v23.75c0 .3-.25.54-.55.54l-26.26-.7a.556.556 0 0 1-.53-.54V43.22c.01-.29.25-.53.54-.54h26.25c.3 0 .55.25.55.54z"/><path class="fil5" d="M108.01 43.22v23.75c0 .3-.25.54-.55.54V42.68c.3 0 .55.24.55.54z"/><path class="fil7" d="M106.26 44.16H81.95v20.31l24.31.55z"/><path class="fil3" d="M79.99 43.22v23.05c0 .29-.23.53-.52.54l-26.26.7c-.3 0-.55-.24-.55-.54V43.22c0-.29.24-.53.54-.54h26.25c.3.01.54.25.54.54z"/><path class="fil7" d="M54.41 44.16h24.32v20.31l-24.32.55z"/><path class="fil5" d="M118.25 73.54v1.79l-20.81.19h-.22l-7.91.07-2.6.03h-.07l-14.66.13-24.06.23h-.02l-6.12.05-.06.01-27.18.24v-2.05l27.74-.18h.07l5.61-.04h.03l39.57-.26h.2l10.2-.07h.61l.13-.01z"/><circle class="fil8" cx="66.76" cy="37.72" r="7.03"/><path d="M41.72 76.02c.14-.49.38-1.31.56-1.97.02-.09.05-.17.07-.24.2-.75.59-2.51.81-3.6.08-.39.14-.69.15-.84.03-.23.44-1.22.91-2.36.32-.8.68-1.67.94-2.41.17-.44.31-.89.4-1.35.01-.05.02-.1.02-.15 0-.04-.01-.09-.02-.14-.04-.16-.06-.32-.06-.48-.03-.85.22-2.19.61-2.76.48-.68.82-3.24.82-3.24s.71.1.83-.48c0-.05.01-.11.01-.16v-.03c0-.05-.01-.11-.01-.16-.13-.85 2.01-1.76 3.22-1.96.13-.02.27-.03.41-.03.29-.04.58-.1.85-.2.13-.04.27-.09.41-.14.51-.17 1.11-.39 1.75-.64 2.41-.93 5.32-2.19 5.32-2.19.02-.1.04-.19.07-.28a3.779 3.779 0 0 1 2.24-2.6v-.27c0-.47-.02-.96-.04-1.45 0-.09-.01-.19-.01-.28v-.15c0-.1-.01-.2-.02-.29l-.02-.02c-.21-.16-.4-.35-.54-.58-.08-.13-.14-.26-.19-.41-.17-.46-.21-.98-.33-1.47l-.02-.1c-.15-.5-.34-.98-.55-1.45-.3-.74-.54-1.51-.77-2.28l-.42-1.41-.22-.72-.12-.41-.03-.19c0-.02.01-.03.01-.04.01-.05.01-.1.02-.15-.01-.18-.03-.36-.08-.54v-.04c-.03-.14-.04-.27-.05-.41-.01-.08-.01-.17-.01-.25 0-.66.17-1.31.48-1.88l.03-.05c.07-.14.16-.26.25-.38.04-.06.09-.12.14-.17-.19.18-.51.1-.69-.1a.36.36 0 0 1-.07-.1l-.03-.06c-.01-.02-.02-.03-.02-.05-.1-.34.07-.7.29-.97.21-.26.48-.48.79-.64.01-.01.03-.02.05-.03.12-.06.24-.11.36-.15.07-.02.15-.04.23-.06l-.51-.04-.21-.02c.21-.83.93-1.43 1.78-1.5h.15c.07 0 .14.01.22.02a.598.598 0 0 1-.37-.56v-.03c.35.27.78.42 1.22.42h.09c-.02-.15-.04-.3-.04-.45l-.29-.4c.23.19.52.29.81.29.03 0 .06-.01.09-.01h.07c.05-.01.11-.02.16-.04h.01c-.02-.03-.05-.06-.07-.1l-.01-.02c-.06-.08-.1-.18-.14-.28l-.03-.12a1.267 1.267 0 0 1 .06-.75c.45.37.93.88 1.51.5.58-.39.6-1.09 1.51-1.02.51.05.95.37 1.15.84.18-.2.43-.31.69-.31.13 0 .25.02.36.07.33.16.54.49.54.85 0 .03 0 .06-.01.1.38-.1.78-.19 1.15-.05.36.14.59.6.39.91-.01.01-.02.02-.02.03-.17.22-.55.34-.51.61l.06.04.18.13c.7.51 1.38 1.04 2.04 1.59.34.29.7.63.73 1.07v.05c0 .09-.01.19-.04.28-.02.11-.05.21-.07.32-.04.18-.06.37-.06.56a2.002 2.002 0 0 0 .05.51c.21 1.06 1.06 1.93 1.14 3.01v.19c0 .08 0 .16-.01.24-.06.65-.37 1.29-.61 1.91-.02.04-.03.08-.05.12-.47 1.23-.75 2.55-.96 3.86-.06.46-.16.93-.27 1.38.17-.05.34-.08.51-.1-.13.15-.29.29-.46.41-.11.07-.24.14-.36.19-.13.05 0 0 0 .01.01.08.03.17.04.25.01.04.02.09.02.14.12.65.25 1.29.39 1.89l.07.3c1.73.62 1.93 1.9 1.94 2.39 0 .03.01.07.01.1s-.01.06-.01.1c0 .03 2.61.06 3.63.82.19.13.4.23.62.31.41.16.84.29 1.27.4.22.06.45.11.68.17.41.09.85.18 1.27.27 1.12.23 2.18.41 2.71.55 1.28.32 4.21 3.13 4.21 3.13s.34 2.82.68 3.24c.34.41.96 1.86.96 1.86l2.27 4.03.96 1.69h.61c.09 0 .25.12.44.29.17.15.35.33.51.49l.26.28.16.18s1 .03 1.27.82c.81-.03 1.81.03 2.5.34.1.04.19.09.28.15.29.16.49.45.56.77.02.07.03.13.03.2v.23c-.05 1.04-.73 1.9-1.35 2.48l.05.08s-.02.05-.06.14c-.02.02-.03.05-.04.09-.08.17-.21.43-.38.73-.36.66-.8 1.27-1.31 1.81l-.04.03-7.92.07-.02-.02-1.53-1.83-.76-.91-.11-.11-.01.22-.06.81-.14 1.84v.03l-14.7.13-24.06.27h-.02l-6.12.01c-.07 0-.06.01-.06-.01z" style="fill:url(#id0);fill-rule:nonzero"/><path class="fil8" d="M73.79 52.1s-13.63 1.65-12.33 0c.47-.59.6-2.35.58-4.36-.01-.61-.03-1.24-.06-1.87-.15-3.02-.52-5.96-.52-5.96s11.92-5.62 10.55-1.17c-.55 1.8-.37 4.33.05 6.7.12.69.26 1.37.41 2.02.36 1.56.81 3.12 1.33 4.64h-.01z"/><path class="fil5" d="M73.79 52.1s-13.63 1.65-12.33 0c.47-.59.6-2.35.58-4.36 2.08-.89 4.72-.23 4.72-.23 2.78-.55 4.57-.44 5.71-.05.36 1.56.81 3.12 1.33 4.64h-.01z"/><path class="fil6" d="m47.92 76.02 24.06-.27 14.7-.13v-.03l.13-1.78.07-.87.11-.1.02-.19.85-2.82.85-2.82.71-2.37 1.09-3.63s-.62-1.44-.96-1.85c-.35-.41-.69-3.22-.69-3.22s-2.92-2.79-4.2-3.11c-.54-.13-1.59-.32-2.72-.55a28.728 28.728 0 0 1-1.95-.44c-.43-.1-.85-.24-1.27-.39a2.92 2.92 0 0 1-.61-.31c-1.01-.74-3.53-.82-3.63-.82v-.2c0-.05 0-.12-.01-.19 0-.02 0-.05-.01-.07l-.03-.15c-.01-.03-.01-.05-.02-.08-.04-.16-.1-.32-.17-.48l-.03-.06c-.07-.13-.15-.25-.23-.36-.02-.03-.04-.05-.06-.07a2.218 2.218 0 0 0-.49-.45.304.304 0 0 0-.07-.05l-.12-.08-.12-.07-.32-.16c-.03-.01-.07-.03-.11-.04-.04-.02-.1-.04-.15-.06h-.01l-.1-.04c-.08-.03-.16-.05-.24-.07l-.13-.04-.13-.03-.14-.03c-.14-.02-.29-.05-.44-.07l-.15-.02-.17-.01-.16-.02-.24-.01-.27-.01c-1.21 0-2.42.13-3.6.38-.7-.15-1.42-.23-2.15-.23h-.47l-.13.01h-.09l-.18.02c-.06 0-.12.01-.18.02-.05 0-.12.01-.18.02l-.09.02c-.08.01-.18.03-.27.05-.03 0-.06.01-.09.02-.12.02-.24.06-.36.09-.06.02-.11.04-.17.06l-.09.03-.09.03-.09.03-.1.04c-.05.03-.1.05-.15.07-.03.02-.06.03-.09.05-.02.01-.05.02-.08.04-.31.16-.6.36-.85.6l-.07.06-.07.07c-.02.03-.04.05-.06.08-.09.09-.18.2-.25.31-.03.02-.05.05-.07.08-.08.13-.16.27-.23.4-.02.04-.04.07-.05.1-.12.23-.21.48-.28.72-.02.09-.05.19-.07.28-.02.09-2.9 1.28-5.3 2.2-.64.25-1.25.47-1.75.64-.15.05-.28.1-.41.14-.28.1-.57.16-.86.2-.14 0-.27.01-.41.03-1.11.18-3 .96-3.21 1.75-.01.04-.01.08-.01.13v.07c.14.96-.82.82-.82.82s-.35 2.54-.82 3.22c-.35.5-.59 1.6-.62 2.43v.18c0 .2.02.39.06.59v.02c.06.18-.07.68-.3 1.33-.24.7-.59 1.58-.93 2.41-.52 1.25-1 2.38-1.03 2.63-.01.11-.05.31-.1.56-.2 1.05-.64 3.04-.86 3.84-.18.66-.39 1.35-.56 1.99l6.13-.01h.01z"/><path class="fil5" d="M50.16 59.98s7.81 4.04 10.62 3.56l-10.62-3.56zm15.89-1.64s7.61 2.46 10.14 2.81c2.54.34-10.14-2.81-10.14-2.81zm8.44-7.94c-3.98.73-11.46.58-14.69.46 1.18-4.24 6.96-2.8 6.96-2.8 7.16-1.43 7.7 1.54 7.73 2.34z"/><path class="fil6" d="M74.49 50.13c-3.98.73-11.46.57-14.69.46 1.18-4.25 6.96-2.8 6.96-2.8 7.16-1.43 7.7 1.53 7.73 2.34z"/><path class="fil8" d="M95.58 68.85s4.68-.72 4.77 1.34c.09 2.05-2.39 3.49-2.39 3.49l-2.38-4.83z"/><path class="fil5" d="M72.06 45.44c-.2.09-.41.17-.62.24-1.47.51-2.96 1.02-4.52 1.21-1.55.19-3.19.02-4.54-.75-.14-.08-.28-.17-.41-.27-.15-3.02-.52-5.96-.52-5.96S73.37 34.29 72 38.74c-.54 1.8-.36 4.33.06 6.7z"/><path class="fil2" d="M64.83 26.72c-.11.03-.22.05-.33.05-.3 0-.58-.1-.81-.29l.28.4c-.04.01-.08.01-.13.01-.29 0-.58-.11-.79-.32-.01.11-.02.23-.02.34 0 .24.02.49.06.72-.03.01-.06.01-.1.01-.44 0-.86-.15-1.21-.42v.04c0 .24.14.46.36.55-.08-.01-.15-.01-.23-.01-.9 0-1.68.61-1.91 1.48l.72.07c-.56.12-1.07.43-1.43.87-.22.27-.39.62-.29.96.09.33.56.55.81.31-.58.69-.89 1.56-.89 2.46 0 .22.02.44.05.66.05.17.08.35.08.53 0 .06-.01.13-.01.19-.05.23-.19.42-.26.64-.14.4-.01.84.11 1.24l.65 2.11c.23.76.46 1.53.76 2.27.22.46.4.95.55 1.44.18.66.18 1.39.55 1.97.25.36.59.66.98.86 1.36.78 3 .94 4.55.76 1.55-.19 3.04-.7 4.51-1.21.33-.1.64-.24.94-.42 1.02-.66 1.25-2.03 1.44-3.24.21-1.34.49-2.68 1-3.94.3-.75.68-1.52.62-2.32-.09-1.07-.93-1.94-1.14-2.99a2.666 2.666 0 0 1 .01-1.07c.06-.21.1-.42.1-.64-.02-.44-.38-.78-.72-1.06-.74-.62-1.5-1.2-2.28-1.75-.04-.27.33-.39.5-.61.24-.3-.01-.79-.37-.93s-.77-.05-1.15.04c.01-.03.01-.07.01-.11 0-.5-.4-.9-.9-.9-.27 0-.52.11-.69.31-.2-.46-.64-.78-1.15-.83-.91-.07-.93.62-1.51 1.01-.58.38-1.06-.13-1.51-.49a1.25 1.25 0 0 0 .19 1.25z"/><path class="fil6" d="M99.05 72.96s-.12.29-.35.71c-.34.65-.75 1.26-1.23 1.81l-.04.04h-.22l-8.1.08-.02-.04-1.54-1.82-.58-.68-1.26-1.5.41-1.71.7-2.89.02-.07.14-.55.1-.41.32-1.34 1.12-4.61 1.99 1.03 2.09 3.7 1.13 1.99h.61c.12 0 .39.22.66.48l.27.27c.24.26.44.47.44.47s1 .02 1.26.81c.02.04.03.08.04.12.09.31.2.61.34.9.18.38.4.82.63 1.26.42.8.84 1.56 1 1.84l.02.03.05.08z"/><path class="fil5" d="m87.28 66.78-.01.19v.02l-.03.31-.18 2.54-.22 3.05-.06.86-.14 1.85v.02l-14.66.14-24.06.26h-.02v-.04l.06-1.97.12-3.84.1-3.26.01-.33c.03-.78.66-1.4 1.44-1.4.05 0 .09 0 .13.01.64.05 1.48.12 2.49.19l.41.03c5.8.4 16.52.92 27.33.27.23-.01.46-.02.69-.04 1.67-.1 3.35-.24 5.01-.41.05 0 .1-.01.15-.01.8 0 1.44.65 1.44 1.45v.11z"/><path class="fil2" d="m47.92 76.02 24.06-.27 14.66-.13h.04v-.03l.14-1.84.06-.82.22-3.1.18-2.45v-.17c0-.07-.01-.15-.02-.23v-.01c-.04-.23-.13-.45-.27-.64-.28-.35-.7-.55-1.14-.55h-.15c-1.66.17-3.34.31-5.01.41-.23.02-.46.03-.69.05-10.81.64-21.53.12-27.33-.28l-.41-.03c-1.01-.07-1.85-.13-2.49-.19-.04 0-.09-.01-.13-.01-.69 0-1.29.5-1.41 1.18-.02.07-.03.15-.03.22l-.09 3.04-.13 3.85-.06 1.96v.04z"/><path class="fil5" d="m87.32 67.74-.17 2.1-.27 3.1-.06.81-.14 1.84v.03l-14.69.14-24.07.26v-.04l.07-1.97.14-3.84.08-2.56c.01-.3.17-.57.42-.72.14-.08.29-.13.45-.13.02 0 .05.01.07.01.29.02.64.05 1.05.08.67.05 1.5.11 2.46.17 1.78.11 4.02.23 6.58.33 7.12.27 16.74.36 25.88-.44.41-.03.83-.07 1.25-.11.03-.01.05-.01.08-.01.14 0 .27.04.39.1.05.02.09.04.12.07.12.09.22.2.28.34.01.03.02.05.03.08.03.1.05.2.05.3v.06zm-46.48 1.87v.44c0 .32-.18.62-.48.76l-5.49.1a.824.824 0 0 1-.49-.76v-.41l6.46-.13z"/><path class="fil2" d="m40.91 71.07-7.16.13v-1.18l7.16-.14z"/><path class="fil5" d="m40.91 71.07-7.16.13v-1.18l7.16-.14z"/><path class="fil2" d="m41.18 71.07-7.15.13v-1.18l7.15-.14z"/><path d="M64.89 26.28c-.14-.18-.23-.38-.26-.6-.01.07-.02.13-.02.2 0 .15.03.29.07.43l.21-.03zm-1.74.9c-.03-.16-.05-.33-.05-.5v.51l.05-.01zm11.16 4.58c.01-.12.03-.25.05-.37.07-.2.1-.42.11-.64 0-.05-.01-.1-.02-.14-.02.12-.06.25-.09.37-.04.18-.06.37-.06.55 0 .08.01.15.01.23zm-2.85-4.24.15.11c.13-.09.25-.19.35-.3.07-.09.1-.19.1-.3 0-.07-.02-.14-.04-.2l-.06.09c-.16.21-.54.33-.5.6zM60.2 28.84c-.05.1-.09.21-.11.31.21-.12.44-.2.68-.26l-.57-.05zm1.89-1.49c-.09-.05-.17-.11-.25-.17 0 .01-.01.03-.01.04 0 .04.01.08.02.12h.08c.05 0 .11.01.16.01zm13.4 8.07c-.06.67-.37 1.31-.62 1.94-.5 1.26-.78 2.6-1 3.95-.19 1.2-.41 2.57-1.43 3.23-.3.18-.61.32-.94.42-1.48.51-2.97 1.02-4.52 1.21-1.56.18-3.19.02-4.55-.76-.39-.2-.73-.5-.98-.86-.36-.58-.37-1.31-.55-1.97-.14-.49-.33-.98-.55-1.44-.3-.74-.53-1.51-.76-2.27-.22-.7-.43-1.41-.65-2.11-.06-.22-.12-.43-.15-.65-.05.35.05.71.16 1.06.21.7.42 1.41.64 2.11.23.76.46 1.53.76 2.27.22.46.41.95.55 1.44.18.66.18 1.39.55 1.97.25.36.59.66.98.86 1.36.78 3 .94 4.55.76 1.55-.19 3.04-.7 4.52-1.21.33-.1.64-.24.94-.41 1.02-.67 1.24-2.04 1.43-3.24.22-1.35.5-2.69 1-3.95.3-.75.69-1.51.62-2.32v-.03zm-16.4-.53v-.01c.01-.07.01-.13.01-.2 0-.17-.02-.35-.07-.52a3.4 3.4 0 0 1-.06-.46v.21c0 .22.02.44.06.66l.06.32zm.42-3.35c.1-.17.22-.34.36-.5-.26.24-.72.03-.82-.31-.01.07-.02.14-.02.21 0 .07.01.14.02.2.07.21.25.36.46.4z" style="fill:#000;fill-opacity:.011765;fill-rule:nonzero"/><path class="fil5" d="M93.73 66.69s.43 1.58 0 2.95c-.44 1.37 0-2.95 0-2.95zm1.85 1.61s.18 2-.23 2.36c-.41.35.23-2.36.23-2.36z"/><path class="fil6" d="m27.26 46.85 13.92-.14.01 1.11-13.92.14zm0 1.71 13.92-.14.01 1.11-13.92.13zm0 1.71 13.92-.14.01 1.11-13.92.13z"/></g></g></svg>